<?xml version="1.0" encoding="utf-8"?>
<!-- Generator: Adobe Illustrator 18.0.0, SVG Export Plug-In . SVG Version: 6.00 Build 0)  -->
<!DOCTYPE svg PUBLIC "-//W3C//DTD SVG 1.1//EN" "http://www.w3.org/Graphics/SVG/1.1/DTD/svg11.dtd">
<svg version="1.1" id="Calque_1" xmlns="http://www.w3.org/2000/svg" xmlns:xlink="http://www.w3.org/1999/xlink" x="0px" y="0px"
	 viewBox="284.1 0 711.7 800" enable-background="new 284.1 0 711.7 800" xml:space="preserve">
<g id="color">
	<g>
		<circle fill="#C1C1C1" cx="641.3" cy="73.2" r="47"/>
		<g>
			<path fill="#E7E3E1" d="M671,100.4h-7.5c-0.7,0-1.3-0.7-1.3-1.3c0-30.8-5.1-46.8-7.9-46.8c-2.9,0-7.9,14.7-7.9,43.1
				c0,0.7-0.7,1.3-1.3,1.3h-7.5c-0.7,0-1.3-0.7-1.3-1.3c0-28.4-5.1-43.1-7.9-43.1s-7.9,16-7.9,46.8c0,0.7-0.7,1.3-1.3,1.3h-7.5
				c-0.7,0-1.3-0.7-1.3-1.3c0-26.2,6.8-53.2,18-53.2c5.1,0,9.7,5.1,13,14.7c3.3-9.5,7.9-14.7,13-14.7c11.2,0,18,27,18,53.2
				C672.3,100,671.6,100.4,671,100.4z M665.1,97.8h4.6c-0.2-29.5-7.9-49-15.4-49c-4.4,0-8.6,6.4-11.6,16.9c-0.2,0.7-0.7,1.1-1.3,1.1
				l0,0c-0.7,0-1.1-0.4-1.3-1.1c-2.9-10.5-7.3-16.9-11.6-16.9c-7.3,0-14.9,19.8-15.4,49h4.6c0.2-19.8,3.1-48.1,10.5-48.1
				c7.7,0,10.5,26.2,10.5,44.4h4.6c0.2-18.5,3.1-44.4,10.5-44.4C662,49.7,664.8,77.8,665.1,97.8z"/>
		</g>
	</g>
</g>
<g id="cal">
	<circle fill="#C1C1C1" cx="641.3" cy="236.9" r="47"/>
	<g>
		<path fill="#E7E3E1" d="M633.8,258.9c-0.4,0-0.7-0.2-0.9-0.4c-0.4-0.4-0.4-1.3,0-2l20.4-20.4c0.4-0.4,1.3-0.4,2,0
			c0.4,0.4,0.4,1.3,0,2l-20.4,20.4C634.7,258.9,634.3,258.9,633.8,258.9z"/>
		<path fill="#E7E3E1" d="M672.3,247.9h-17.8c-0.7,0-1.3-0.7-1.3-1.3c0-0.7,0.7-1.3,1.3-1.3H669l-12.7-12.1c-0.4-0.4-0.7-1.3,0-2
			c0.4-0.7,1.3-0.7,2,0l15.2,14.5c0.4,0.4,0.4,0.9,0.2,1.5C673.4,247.7,672.7,247.9,672.3,247.9z"/>
		<path fill="#E7E3E1" d="M643.5,229.7c-0.4,0-0.9-0.2-1.1-0.7c-0.4-0.7-0.2-1.5,0.4-2l10.8-7.3c0.4-0.4,1.3-0.2,1.8,0.2l2.4,2.4
			c0.4,0.4,0.4,1.3,0,2c-0.4,0.4-1.3,0.4-2,0l-1.8-1.8l-9.7,6.6C644.2,229.7,644,229.7,643.5,229.7z"/>
		<path fill="#E7E3E1" d="M672.3,234.3h-6.2c-0.4,0-0.7-0.2-0.9-0.4l-6.2-6.2c-0.4-0.4-0.4-1.3,0-2c0.4-0.4,1.3-0.4,2,0l5.7,5.9h5.7
			c0.7,0,1.3,0.7,1.3,1.3S673,234.3,672.3,234.3z"/>
		<path fill="#E7E3E1" d="M664,223.3c-2.2,0-4.2-1.8-4.2-4.2c0-2.2,1.8-4.2,4.2-4.2c2.2,0,4.2,1.8,4.2,4.2
			C668.1,221.3,666.4,223.3,664,223.3z M664,217.8c-0.7,0-1.3,0.7-1.3,1.3s0.7,1.3,1.3,1.3c0.7,0,1.3-0.7,1.3-1.3
			S664.8,217.8,664,217.8z"/>
		<path fill="#E7E3E1" d="M626.8,250.8h-16.5c-0.7,0-1.3-0.7-1.3-1.3s0.7-1.3,1.3-1.3h16.5c0.7,0,1.3,0.7,1.3,1.3
			S627.7,250.8,626.8,250.8z"/>
		<path fill="#E7E3E1" d="M632.3,242.4h-22c-0.7,0-1.3-0.7-1.3-1.3c0-0.7,0.7-1.3,1.3-1.3h22c0.7,0,1.3,0.7,1.3,1.3
			C633.8,241.8,633.2,242.4,632.3,242.4z"/>
		<path fill="#E7E3E1" d="M637.8,234.3h-27.5c-0.7,0-1.3-0.7-1.3-1.3s0.7-1.3,1.3-1.3h27.5c0.7,0,1.3,0.7,1.3,1.3
			S638.7,234.3,637.8,234.3z"/>
	</g>
</g>
<g id="salt">
	<circle fill="#C1C1C1" cx="641.3" cy="400.7" r="47"/>
	<g id="_x31_col_4_">
		<path fill="#E7E3E1" d="M673.2,407c-3.1-2.2-15.8-9.7-26.8-24.2c-0.9-1.1-1.8-2.6-3.7-2.6l0,0l0,0l0,0l0,0c-2.2,0-3.3,1.5-4.4,3.1
			c-9.9,11.9-24.2,21.5-27.9,23.3c-1.8,0.7-2.9,2-2.9,3.7c0.2,2.9,2.9,4.8,7,7c4.6,2.2,15.8,4.2,28.4,4.2c5.9,0,12.3-0.4,18-1.8
			c11.2-2.4,14.9-4.8,15.4-8.6C675.6,409.2,674.3,407.9,673.2,407z M671,413.6c-1.1,0.7-2.9,1.3-5.1,2l0,0c0-0.7-0.4-1.1-1.1-1.1
			c-0.7,0-1.1,0.4-1.1,1.1c0,0.2,0,0.4,0.2,0.7c-1.1,0.2-2.6,0.7-4,0.9c-0.2-0.2-0.4-0.7-0.9-0.7s-0.9,0.4-1.1,0.9
			c-5.1,0.9-10.3,1.3-15.6,1.3c-4.8,0-9.7-0.4-14.1-0.9c0.2-0.2,0.4-0.7,0.4-0.9c0-0.9-0.9-1.8-1.8-1.8c-0.9,0-1.8,0.9-1.8,1.8
			c0,0.2,0,0.4,0.2,0.7c-0.9-0.2-1.8-0.2-2.4-0.4v-0.2c0-0.7-0.4-1.1-1.1-1.1c-0.4,0-0.9,0.4-1.1,0.9c-2.4-0.7-4.4-1.1-5.7-1.8
			c-4-1.8-5.9-4-5.7-4.8c0-0.4,0.2-0.9,1.5-1.5c1.8-0.9,4.8-2.6,8.8-5.5c0,0.7,0.4,0.9,1.1,0.9s1.1-0.4,1.1-1.1
			c0-0.4-0.2-0.9-0.7-1.1c3.5-2.6,7.7-5.9,11.6-9.9c0,0,0,0,0,0.2c0,1.1,0.9,2,2,2c1.1,0,2-0.9,2-2s-0.9-2-2-2l0,0
			c1.8-1.8,3.3-3.5,5.1-5.5c1.3-1.5,2-2.2,2.9-2.2l0,0l0,0c0.7,0,0.9,0.2,2,1.8c11.2,14.7,24.6,22.6,27.5,24.6
			c1.1,0.7,1.5,1.5,1.5,2.2C673.4,411.6,673,412.5,671,413.6z M613.6,411.6c-0.7,0-1.1,0.4-1.1,1.1c0,0.7,0.4,1.1,1.1,1.1
			s1.1-0.4,1.1-1.1C614.7,412.1,614.1,411.6,613.6,411.6z M615.8,407.9c-0.7,0-1.1,0.4-1.1,1.1c0,0.7,0.4,1.1,1.1,1.1
			c0.7,0,1.1-0.4,1.1-1.1C616.9,408.4,616.5,407.9,615.8,407.9z M627.5,411.4c-0.7,0-1.1,0.4-1.1,1.1c0,0.7,0.4,1.1,1.1,1.1
			c0.7,0,1.1-0.4,1.1-1.1C628.6,411.9,628.1,411.4,627.5,411.4z M648.4,408.4c-0.7,0-1.1,0.4-1.1,1.1c0,0.7,0.4,1.1,1.1,1.1
			c0.7,0,1.1-0.4,1.1-1.1C649.5,408.8,649,408.4,648.4,408.4z M626.6,404c0.7,0,1.1-0.4,1.1-1.1c0-0.7-0.4-1.1-1.1-1.1
			c-0.7,0-1.1,0.4-1.1,1.1C625.5,403.5,625.9,404,626.6,404z M625.7,404.8c0-0.7-0.4-1.1-1.1-1.1c-0.7,0-1.1,0.4-1.1,1.1
			c0,0.7,0.4,1.1,1.1,1.1C625.3,405.9,625.7,405.5,625.7,404.8z M627.3,409.9c0-0.7-0.4-1.1-1.1-1.1s-1.1,0.4-1.1,1.1
			c0,0.7,0.4,1.1,1.1,1.1C626.6,411,627.3,410.3,627.3,409.9z M631.4,403.1c-0.9,0-1.8,0.7-1.8,1.8c0,0.9,0.9,1.8,1.8,1.8
			c0.9,0,1.8-0.9,1.8-1.8C633.2,403.7,632.3,403.1,631.4,403.1z M642.9,389.5c-0.7,0-1.1,0.4-1.1,1.1c0,0.7,0.4,1.1,1.1,1.1
			c0.7,0,1.1-0.4,1.1-1.1C644,389.9,643.5,389.5,642.9,389.5z M641.1,387c0.7,0,1.1-0.4,1.1-1.1c0-0.7-0.4-1.1-1.1-1.1
			c-0.7,0-1.1,0.4-1.1,1.1C640,386.6,640.7,387,641.1,387z M639.3,398.7c-0.7,0-1.1,0.4-1.1,1.1c0,0.7,0.4,1.1,1.1,1.1
			c0.7,0,1.1-0.4,1.1-1.1C640.4,399.1,640,398.7,639.3,398.7z M640.2,391.2c-0.7,0-1.1,0.4-1.1,1.1c0,0.7,0.4,1.1,1.1,1.1
			c0.7,0,1.1-0.4,1.1-1.1C641.3,391.6,640.9,391.2,640.2,391.2z M630.3,397.6c0-0.7-0.4-1.1-1.1-1.1c-0.7,0-1.1,0.4-1.1,1.1
			c0,0.7,0.4,1.1,1.1,1.1C629.9,398.7,630.3,398.2,630.3,397.6z M638.7,404c0-0.7-0.4-1.1-1.1-1.1c-0.7,0-1.1,0.4-1.1,1.1
			c0,0.7,0.4,1.1,1.1,1.1C638.2,405.1,638.7,404.4,638.7,404z M638.7,414.5c-0.7,0-1.1,0.4-1.1,1.1c0,0.7,0.4,1.1,1.1,1.1
			c0.7,0,1.1-0.4,1.1-1.1C639.8,414.9,639.3,414.5,638.7,414.5z M647.7,415.4c-0.7,0-1.1,0.4-1.1,1.1c0,0.7,0.4,1.1,1.1,1.1
			c0.7,0,1.1-0.4,1.1-1.1C648.8,415.8,648.4,415.4,647.7,415.4z M620,412.3c-0.7,0-1.1,0.4-1.1,1.1c0,0.7,0.4,1.1,1.1,1.1
			c0.7,0,1.1-0.4,1.1-1.1C621.1,413,620.7,412.3,620,412.3z M669.5,411c-0.7,0-1.1,0.4-1.1,1.1c0,0.7,0.4,1.1,1.1,1.1
			c0.7,0,1.1-0.4,1.1-1.1C670.5,411.4,670.1,411,669.5,411z M620.4,408.1c-0.9,0-1.5,0.7-1.5,1.5c0,0.9,0.7,1.5,1.5,1.5
			c0.9,0,1.5-0.7,1.5-1.5C622,408.8,621.3,408.1,620.4,408.1z"/>
	</g>
</g>
<g id="meat">
	<circle fill="#C1C1C1" cx="641.3" cy="564.6" r="47"/>
	<path fill="#E7E3E1" d="M660.7,558.5c-0.9,0-1.5,0.2-2.4,0.4c0-0.2,0-0.7,0-0.9c7.9-2,13.6-9,13.6-17.4c0-0.2,0-0.2,0-0.4V540
		c0-0.7-0.4-1.1-1.1-1.3c-0.7-0.2-1.3,0.2-1.5,0.7c-2.4,5.3-7.9,8.6-13.6,8.6c-0.4,0-1.1,0-1.5,0h-0.2c-3.1-3.1-7.3-5.1-11.9-5.1
		c-4.6,0-8.8,2-11.9,5.1h-0.2c-0.4,0-1.1,0-1.5,0c-5.7,0-11.2-3.3-13.6-8.6c-0.2-0.7-0.9-0.9-1.5-0.7c-0.7,0.2-1.1,0.7-1.1,1.3v0.2
		c0,0.2,0,0.2,0,0.4c0,8.1,5.7,15.4,13.6,17.4c0,0.2,0,0.4,0,0.9c-0.7-0.2-1.5-0.4-2.4-0.4c-2.9,0-5.7,1.8-7.3,4.6
		c-0.2,0.4-0.2,0.9,0,1.3c1.5,2.9,4.2,4.6,7.3,4.6c1.3,0,2.9-0.4,4-1.1c0.7,2.2,1.5,4.4,2.2,6.2c0.9,2.4,2,5.1,2,5.9
		c0,5.7,4.6,10.3,10.3,10.3c0.2,0,0.7,0,0.7,0c5.7,0,10.3-4.6,10.3-10.3c0-0.9,1.1-3.5,2-5.9c0.7-2,1.5-4.2,2.2-6.2
		c1.3,0.7,2.6,1.1,4,1.1c2.9,0,5.7-1.8,7.3-4.6c0.2-0.4,0.2-0.9,0-1.3C666.4,560.2,663.7,558.5,660.7,558.5z M623.1,566.2
		c-1.8,0-3.3-0.9-4.4-2.4c1.1-1.5,2.6-2.4,4.4-2.4c0.9,0,1.8,0.2,2.6,0.7c0.2,0.9,0.4,2,0.7,3.1
		C625.3,565.7,624.2,566.2,623.1,566.2z M625.9,555.4c-4.8-1.3-8.8-4.8-10.5-9.7c3.3,3.3,7.7,5.3,12.3,5.3
		C627,552.3,626.4,553.8,625.9,555.4z M651.9,573c-1.3,3.5-2.2,5.7-2.2,6.8c0,4.2-3.5,7.7-7.7,7.7c-0.2,0-0.7,0-0.7,0
		c-4.2,0-7.7-3.5-7.7-7.7c0-1.3-0.7-3.3-2.2-6.8c-1.8-4.4-3.7-9.9-3.7-13.4c0-7.7,6.2-13.8,13.6-13.8s13.6,6.2,13.6,13.8
		C655.6,563.1,653.6,568.6,651.9,573z M656,551c4.6,0,9-2,12.3-5.3c-1.8,4.6-5.5,8.4-10.5,9.7C657.4,553.8,656.7,552.3,656,551z
		 M660.7,566.2c-1.1,0-2.2-0.4-3.1-1.1c0.2-1.1,0.4-2,0.7-3.1c0.9-0.4,1.5-0.7,2.6-0.7c1.8,0,3.3,0.9,4.4,2.4
		C664,565.3,662.4,566.2,660.7,566.2z"/>
</g>
<g id="price">
	<circle fill="#C1C1C1" cx="641.3" cy="728.4" r="47"/>
	<g>
		<g>
			<g>
				<path fill="#E7E3E1" d="M642.2,758.9c-0.2,0-0.4,0-0.7-0.2l-25.7-14.1c-0.7-0.4-0.9-1.1-0.7-1.8l24.2-44.6
					c0.4-0.7,1.1-0.9,1.8-0.4l25.7,14.1c0.7,0.4,0.9,1.1,0.7,1.8l-24.2,44.6C643.1,758.7,642.6,758.9,642.2,758.9z M616.5,743.5
					l25.5,13.8l24-44.4l-25.5-13.8L616.5,743.5z"/>
			</g>
			<g>
				<path fill="#E7E3E1" d="M636.5,744.4c-0.9,1.8-3.1,2.4-4.8,1.5c-1.8-0.9-2.4-3.1-1.5-4.8c0.9-1.8,3.1-2.4,4.8-1.5
					C636.7,740.4,637.4,742.6,636.5,744.4z M631.2,741.5c-0.7,1.1-0.2,2.6,0.9,3.3c1.1,0.7,2.6,0.2,3.3-0.9s0.2-2.6-0.9-3.3
					C633.4,739.8,631.9,740.2,631.2,741.5z"/>
			</g>
			<g>
				<path fill="#E7E3E1" d="M651.6,716c-0.9,1.8-3.1,2.4-4.8,1.5c-1.8-0.9-2.4-3.1-1.5-4.8c0.9-1.8,3.1-2.4,4.8-1.5
					S652.5,714.3,651.6,716z M646.4,713.2c-0.7,1.1-0.2,2.6,0.9,3.3c1.1,0.7,2.6,0.2,3.3-0.9c0.7-1.1,0.2-2.6-0.9-3.3
					C648.6,711.4,647,711.9,646.4,713.2z"/>
			</g>
			<g>
				<path fill="#E7E3E1" d="M649.2,733.2c-2.6,4.8-8.6,6.8-13,4.4c-4.6-2.4-5.9-8.4-3.3-13.4c2.6-4.8,8.6-6.8,13-4.4
					C650.3,722.2,651.9,728.1,649.2,733.2z M633.8,724.8c-2.4,4.4-1.1,9.7,2.9,11.9s9,0.4,11.4-4c2.4-4.4,1.1-9.7-2.9-11.9
					C641.3,718.7,636.3,720.4,633.8,724.8z"/>
			</g>
			<g>
				<path fill="#E7E3E1" d="M626.2,748.8c0,0.2-0.2,0.2-0.4,0.2s-0.7,0-0.7-0.4l-4.2-13.4c0-0.2,0-0.7,0.4-0.7c0.2,0,0.7,0,0.7,0.4
					l4.2,13.4C626.2,748.6,626.2,748.8,626.2,748.8z"/>
			</g>
			<g>
				<path fill="#E7E3E1" d="M649.7,704c0,0.2-0.2,0.2-0.4,0.2l-13.2,4.2c-0.2,0-0.7,0-0.7-0.4c0-0.2,0-0.7,0.4-0.7l13.2-4.2
					c0.2,0,0.7,0,0.7,0.4C649.7,703.7,649.7,704,649.7,704z"/>
			</g>
			<g>
				<path fill="#E7E3E1" d="M647,749.2c0,0.2-0.2,0.2-0.4,0.2l-13.6,3.7c-0.2,0-0.7,0-0.7-0.4c0-0.2,0-0.7,0.4-0.7l13.6-3.7
					c0.2,0,0.7,0,0.7,0.4C647.3,748.8,647,749,647,749.2z"/>
			</g>
			<g>
				<path fill="#E7E3E1" d="M662,722c0,0.2-0.2,0.2-0.4,0.2s-0.7,0-0.7-0.4l-3.7-13.2c0-0.2,0-0.7,0.4-0.7c0.2,0,0.7,0,0.7,0.4
					l3.7,13.2C662,721.8,662,722,662,722z"/>
			</g>
		</g>
		<g>
			<path fill="#E7E3E1" d="M639.3,727c0,0.2-0.2,0.2-0.2,0.4c-0.2,0.4,0,0.4,0.2,0.7c0.7,0.2,1.3,0.7,2.4,1.3
				c0.7,0.4,1.1,0.7,1.1,0.7c0.2,0,0.2,0.2,0.2,0.4s-0.2,0.2-0.4,0.2s-0.7-0.4-1.3-0.7c-1.1-0.7-1.8-0.9-2.4-1.3
				c-0.2-0.2-0.4-0.2-0.7,0.2c-0.4,0.7-0.7,1.3-0.7,1.8c-0.2,0.7-0.2,1.8,0,2.6c0.2,1.1,0.7,1.5,1.5,1.3c0.2,0,0.4-0.2,0.7-0.4
				l0.4-0.4c0.2-0.2,0.4-0.4,0.4-0.4c0.2-0.2,0.4-0.2,0.4,0c0.2,0,0.2,0.4,0,0.4c0,0-0.4,0.7-0.7,0.9c-0.7,0.7-1.8,1.1-2.6,0.2
				c-0.7-0.7-0.9-1.8-0.9-3.1c0-1.1,0.2-1.8,0.9-3.1c0.2-0.4,0-0.4-0.2-0.7c-0.4-0.2-0.7-0.2-1.1-0.2c-0.2,0-0.2-0.2-0.2-0.4
				s0.2-0.2,0.4-0.2c0.4,0,0.9,0.2,1.3,0.4c0.2,0.2,0.4,0,0.7-0.2c0-0.2,0.2-0.2,0.2-0.4c0.2-0.2,0.2-0.4-0.2-0.7
				c-0.2-0.2-0.7-0.2-0.9-0.2s-0.2-0.2-0.2-0.4s0.2-0.2,0.4-0.2c0.4,0.2,0.7,0.2,1.1,0.4s0.4,0,0.7-0.2c1.3-1.8,2-2.2,3.1-2.6
				c1.1-0.4,2.2-0.2,2.9,0.4c0.7,0.9,0.4,2,0.2,3.1c0,0-0.2,0.7-0.4,1.1c0,0.2-0.2,0.2-0.4,0.2s-0.2-0.2-0.2-0.4s0-0.2,0.2-0.7
				c0-0.2,0.2-0.4,0.2-0.4c0.2-0.9,0.4-1.8,0-2.4c-0.4-0.4-1.3-0.7-2.2-0.2c-0.9,0.2-1.5,0.7-2.6,2.2c-0.2,0.4-0.2,0.4,0.2,0.7
				c0.7,0.2,1.8,0.9,3.1,1.8c0.2,0,0.2,0.2,0.2,0.4s-0.2,0.2-0.4,0.2c-1.5-0.9-2.6-1.5-3.3-1.8C639.6,726.6,639.6,726.6,639.3,727
				L639.3,727z"/>
		</g>
	</g>
</g>
<rect x="284.1" y="55.4" fill="none" width="293.9" height="96.1"/>
<text transform="matrix(1 0 0 1 484.3113 84.1313)" fill="#DF5252" font-family="'Courgette-Regular'" font-size="34.8482">{{textcolor1}}</text>
<rect x="713.2" y="55.4" fill="none" width="298.4" height="96.1"/>
<text transform="matrix(1 0 0 1 713.2181 84.1313)" fill="#DF5252" font-family="'Courgette-Regular'" font-size="34.8482">{{textcolor2}}</text>
<rect x="284.1" y="223.6" fill="none" width="293.9" height="96.1"/>
<text transform="matrix(1 0 0 1 465.474 252.2487)" fill="#DF5252" font-family="'Courgette-Regular'" font-size="34.8482">{{textcal1}}</text>
<rect x="713.2" y="223.6" fill="none" width="298.4" height="96.1"/>
<text transform="matrix(1 0 0 1 713.2181 252.2487)" fill="#DF5252" font-family="'Courgette-Regular'" font-size="34.8482">{{textcal2}}</text>
<rect x="284.1" y="388.7" fill="none" width="293.9" height="96.1"/>
<text transform="matrix(1 0 0 1 505.6312 417.3513)" fill="#DF5252" font-family="'Courgette-Regular'" font-size="34.8482">{{textsalt1}}</text>
<rect x="713.2" y="388.7" fill="none" width="298.4" height="96.1"/>
<text transform="matrix(1 0 0 1 713.2181 417.3513)" fill="#DF5252" font-family="'Courgette-Regular'" font-size="34.8482">{{textsalt2}}</text>
<rect x="284.1" y="550.3" fill="none" width="293.9" height="96.1"/>
<text transform="matrix(1 0 0 1 317.3861 578.9766)" fill="#DF5252" font-family="'Courgette-Regular'" font-size="34.8482">{{textmeat1}}</text>
<rect x="713.2" y="550.3" fill="none" width="298.4" height="96.1"/>
<text transform="matrix(1 0 0 1 713.2181 578.9766)" fill="#DF5252" font-family="'Courgette-Regular'" font-size="34.8482">{{textmeat2}}</text>
<rect x="284.1" y="718.9" fill="none" width="293.9" height="96.1"/>
<text transform="matrix(1 0 0 1 436.2581 747.5845)" fill="#DF5252" font-family="'Courgette-Regular'" font-size="34.8482">{{textprice1}}</text>
<rect x="713.2" y="718.9" fill="none" width="298.4" height="96.1"/>
<text transform="matrix(1 0 0 1 713.2181 747.5845)" fill="#DF5252" font-family="'Courgette-Regular'" font-size="34.8482">{{textprice1}}</text>
</svg>
