<?xml version="1.0" encoding="utf-8"?>
<!-- Generator: Adobe Illustrator 18.0.0, SVG Export Plug-In . SVG Version: 6.00 Build 0)  -->
<!DOCTYPE svg PUBLIC "-//W3C//DTD SVG 1.1//EN" "http://www.w3.org/Graphics/SVG/1.1/DTD/svg11.dtd">
<svg version="1.1" xmlns="http://www.w3.org/2000/svg" xmlns:xlink="http://www.w3.org/1999/xlink" x="0px" y="0px"
	 viewBox="0 0 84 364" enable-background="new 0 0 84 364" xml:space="preserve">
<g id="color">
	<g>
		<circle fill="#C1C1C1" cx="42.6" cy="33.3" r="21.4"/>
		<g>
			<path fill="#E7E3E1" d="M56.1,45.7h-3.4c-0.3,0-0.6-0.3-0.6-0.6c0-14-2.3-21.3-3.6-21.3s-3.6,6.7-3.6,19.6c0,0.3-0.3,0.6-0.6,0.6
				h-3.4c-0.3,0-0.6-0.3-0.6-0.6c0-12.9-2.3-19.6-3.6-19.6s-3.6,7.3-3.6,21.3c0,0.3-0.3,0.6-0.6,0.6h-3.4c-0.3,0-0.6-0.3-0.6-0.6
				c0-11.9,3.1-24.2,8.2-24.2c2.3,0,4.4,2.3,5.9,6.7c1.5-4.3,3.6-6.7,5.9-6.7c5.1,0,8.2,12.3,8.2,24.2
				C56.7,45.5,56.4,45.7,56.1,45.7z M53.4,44.5h2.1c-0.1-13.4-3.6-22.3-7-22.3c-2,0-3.9,2.9-5.3,7.7c-0.1,0.3-0.3,0.5-0.6,0.5l0,0
				c-0.3,0-0.5-0.2-0.6-0.5c-1.3-4.8-3.3-7.7-5.3-7.7c-3.3,0-6.8,9-7,22.3h2.1c0.1-9,1.4-21.9,4.8-21.9c3.5,0,4.8,11.9,4.8,20.2h2.1
				c0.1-8.4,1.4-20.2,4.8-20.2C52,22.6,53.3,35.4,53.4,44.5z"/>
		</g>
	</g>
</g>
<g id="cal">
	<circle fill="#C1C1C1" cx="42.6" cy="107.8" r="21.4"/>
	<g>
		<path fill="#E7E3E1" d="M39.2,117.8c-0.2,0-0.3-0.1-0.4-0.2c-0.2-0.2-0.2-0.6,0-0.9l9.3-9.3c0.2-0.2,0.6-0.2,0.9,0
			c0.2,0.2,0.2,0.6,0,0.9l-9.3,9.3C39.6,117.8,39.4,117.8,39.2,117.8z"/>
		<path fill="#E7E3E1" d="M56.7,112.8h-8.1c-0.3,0-0.6-0.3-0.6-0.6c0-0.3,0.3-0.6,0.6-0.6h6.6l-5.8-5.5c-0.2-0.2-0.3-0.6,0-0.9
			c0.2-0.3,0.6-0.3,0.9,0l6.9,6.6c0.2,0.2,0.2,0.4,0.1,0.7C57.2,112.7,56.9,112.8,56.7,112.8z"/>
		<path fill="#E7E3E1" d="M43.6,104.5c-0.2,0-0.4-0.1-0.5-0.3c-0.2-0.3-0.1-0.7,0.2-0.9l4.9-3.3c0.2-0.2,0.6-0.1,0.8,0.1l1.1,1.1
			c0.2,0.2,0.2,0.6,0,0.9c-0.2,0.2-0.6,0.2-0.9,0l-0.8-0.8l-4.4,3C43.9,104.5,43.8,104.5,43.6,104.5z"/>
		<path fill="#E7E3E1" d="M56.7,106.6h-2.8c-0.2,0-0.3-0.1-0.4-0.2l-2.8-2.8c-0.2-0.2-0.2-0.6,0-0.9c0.2-0.2,0.6-0.2,0.9,0l2.6,2.7
			h2.6c0.3,0,0.6,0.3,0.6,0.6S57,106.6,56.7,106.6z"/>
		<path fill="#E7E3E1" d="M52.9,101.6c-1,0-1.9-0.8-1.9-1.9c0-1,0.8-1.9,1.9-1.9c1,0,1.9,0.8,1.9,1.9
			C54.8,100.7,54,101.6,52.9,101.6z M52.9,99.1c-0.3,0-0.6,0.3-0.6,0.6s0.3,0.6,0.6,0.6s0.6-0.3,0.6-0.6S53.3,99.1,52.9,99.1z"/>
		<path fill="#E7E3E1" d="M36,114.1h-7.5c-0.3,0-0.6-0.3-0.6-0.6s0.3-0.6,0.6-0.6H36c0.3,0,0.6,0.3,0.6,0.6S36.4,114.1,36,114.1z"/>
		<path fill="#E7E3E1" d="M38.5,110.3h-10c-0.3,0-0.6-0.3-0.6-0.6c0-0.3,0.3-0.6,0.6-0.6h10c0.3,0,0.6,0.3,0.6,0.6
			C39.2,110,38.9,110.3,38.5,110.3z"/>
		<path fill="#E7E3E1" d="M41,106.6H28.5c-0.3,0-0.6-0.3-0.6-0.6s0.3-0.6,0.6-0.6H41c0.3,0,0.6,0.3,0.6,0.6S41.4,106.6,41,106.6z"/>
	</g>
</g>
<g id="salt">
	<circle fill="#C1C1C1" cx="42.6" cy="182.3" r="21.4"/>
	<g id="_x31_col_4_">
		<path fill="#E7E3E1" d="M57.1,185.2c-1.4-1-7.2-4.4-12.2-11c-0.4-0.5-0.8-1.2-1.7-1.2c0,0,0,0,0,0v0c0,0,0,0,0,0h0
			c-1,0-1.5,0.7-2,1.4c-4.5,5.4-11,9.8-12.7,10.6c-0.8,0.3-1.3,0.9-1.3,1.7c0.1,1.3,1.3,2.2,3.2,3.2c2.1,1,7.2,1.9,12.9,1.9
			c2.7,0,5.6-0.2,8.2-0.8c5.1-1.1,6.8-2.2,7-3.9C58.2,186.2,57.6,185.6,57.1,185.2z M56.1,188.2c-0.5,0.3-1.3,0.6-2.3,0.9
			c0,0,0,0,0,0c0-0.3-0.2-0.5-0.5-0.5c-0.3,0-0.5,0.2-0.5,0.5c0,0.1,0,0.2,0.1,0.3c-0.5,0.1-1.2,0.3-1.8,0.4
			c-0.1-0.1-0.2-0.3-0.4-0.3c-0.2,0-0.4,0.2-0.5,0.4c-2.3,0.4-4.7,0.6-7.1,0.6c-2.2,0-4.4-0.2-6.4-0.4c0.1-0.1,0.2-0.3,0.2-0.4
			c0-0.4-0.4-0.8-0.8-0.8c-0.4,0-0.8,0.4-0.8,0.8c0,0.1,0,0.2,0.1,0.3c-0.4-0.1-0.8-0.1-1.1-0.2c0,0,0-0.1,0-0.1
			c0-0.3-0.2-0.5-0.5-0.5c-0.2,0-0.4,0.2-0.5,0.4c-1.1-0.3-2-0.5-2.6-0.8c-1.8-0.8-2.7-1.8-2.6-2.2c0-0.2,0.1-0.4,0.7-0.7
			c0.8-0.4,2.2-1.2,4-2.5c0,0.3,0.2,0.4,0.5,0.4c0.3,0,0.5-0.2,0.5-0.5c0-0.2-0.1-0.4-0.3-0.5c1.6-1.2,3.5-2.7,5.3-4.5
			c0,0,0,0,0,0.1c0,0.5,0.4,0.9,0.9,0.9c0.5,0,0.9-0.4,0.9-0.9c0-0.5-0.4-0.9-0.9-0.9c0,0,0,0,0,0c0.8-0.8,1.5-1.6,2.3-2.5
			c0.6-0.7,0.9-1,1.3-1h0l0,0c0.3,0,0.4,0.1,0.9,0.8c5.1,6.7,11.2,10.3,12.5,11.2c0.5,0.3,0.7,0.7,0.7,1
			C57.2,187.3,57,187.7,56.1,188.2z M30,187.3c-0.3,0-0.5,0.2-0.5,0.5c0,0.3,0.2,0.5,0.5,0.5c0.3,0,0.5-0.2,0.5-0.5
			C30.5,187.5,30.2,187.3,30,187.3z M31,185.6c-0.3,0-0.5,0.2-0.5,0.5c0,0.3,0.2,0.5,0.5,0.5c0.3,0,0.5-0.2,0.5-0.5
			C31.5,185.8,31.3,185.6,31,185.6z M36.3,187.2c-0.3,0-0.5,0.2-0.5,0.5c0,0.3,0.2,0.5,0.5,0.5c0.3,0,0.5-0.2,0.5-0.5
			C36.8,187.4,36.6,187.2,36.3,187.2z M45.8,185.8c-0.3,0-0.5,0.2-0.5,0.5c0,0.3,0.2,0.5,0.5,0.5c0.3,0,0.5-0.2,0.5-0.5
			C46.3,186,46.1,185.8,45.8,185.8z M35.9,183.8c0.3,0,0.5-0.2,0.5-0.5c0-0.3-0.2-0.5-0.5-0.5c-0.3,0-0.5,0.2-0.5,0.5
			C35.4,183.6,35.6,183.8,35.9,183.8z M35.5,184.2c0-0.3-0.2-0.5-0.5-0.5c-0.3,0-0.5,0.2-0.5,0.5s0.2,0.5,0.5,0.5
			S35.5,184.5,35.5,184.2z M36.2,186.5c0-0.3-0.2-0.5-0.5-0.5c-0.3,0-0.5,0.2-0.5,0.5c0,0.3,0.2,0.5,0.5,0.5
			C35.9,187,36.2,186.7,36.2,186.5z M38.1,183.4c-0.4,0-0.8,0.3-0.8,0.8c0,0.4,0.4,0.8,0.8,0.8c0.4,0,0.8-0.4,0.8-0.8
			C38.9,183.7,38.5,183.4,38.1,183.4z M43.3,177.2c-0.3,0-0.5,0.2-0.5,0.5c0,0.3,0.2,0.5,0.5,0.5c0.3,0,0.5-0.2,0.5-0.5
			C43.8,177.4,43.6,177.2,43.3,177.2z M42.5,176.1c0.3,0,0.5-0.2,0.5-0.5c0-0.3-0.2-0.5-0.5-0.5c-0.3,0-0.5,0.2-0.5,0.5
			C42,175.9,42.3,176.1,42.5,176.1z M41.7,181.4c-0.3,0-0.5,0.2-0.5,0.5c0,0.3,0.2,0.5,0.5,0.5c0.3,0,0.5-0.2,0.5-0.5
			C42.2,181.6,42,181.4,41.7,181.4z M42.1,178c-0.3,0-0.5,0.2-0.5,0.5c0,0.3,0.2,0.5,0.5,0.5c0.3,0,0.5-0.2,0.5-0.5
			C42.6,178.2,42.4,178,42.1,178z M37.6,180.9c0-0.3-0.2-0.5-0.5-0.5c-0.3,0-0.5,0.2-0.5,0.5c0,0.3,0.2,0.5,0.5,0.5
			C37.4,181.4,37.6,181.2,37.6,180.9z M41.4,183.8c0-0.3-0.2-0.5-0.5-0.5c-0.3,0-0.5,0.2-0.5,0.5c0,0.3,0.2,0.5,0.5,0.5
			C41.2,184.3,41.4,184,41.4,183.8z M41.4,188.6c-0.3,0-0.5,0.2-0.5,0.5c0,0.3,0.2,0.5,0.5,0.5c0.3,0,0.5-0.2,0.5-0.5
			C41.9,188.8,41.7,188.6,41.4,188.6z M45.5,189c-0.3,0-0.5,0.2-0.5,0.5c0,0.3,0.2,0.5,0.5,0.5c0.3,0,0.5-0.2,0.5-0.5
			C46,189.2,45.8,189,45.5,189z M32.9,187.6c-0.3,0-0.5,0.2-0.5,0.5c0,0.3,0.2,0.5,0.5,0.5c0.3,0,0.5-0.2,0.5-0.5
			C33.4,187.9,33.2,187.6,32.9,187.6z M55.4,187c-0.3,0-0.5,0.2-0.5,0.5c0,0.3,0.2,0.5,0.5,0.5c0.3,0,0.5-0.2,0.5-0.5
			C55.9,187.2,55.7,187,55.4,187z M33.1,185.7c-0.4,0-0.7,0.3-0.7,0.7c0,0.4,0.3,0.7,0.7,0.7c0.4,0,0.7-0.3,0.7-0.7
			C33.8,186,33.5,185.7,33.1,185.7z"/>
	</g>
</g>
<g id="meat">
	<circle fill="#C1C1C1" cx="42.6" cy="256.9" r="21.4"/>
	<path fill="#E7E3E1" d="M51.4,254.1c-0.4,0-0.7,0.1-1.1,0.2c0-0.1,0-0.3,0-0.4c3.6-0.9,6.2-4.1,6.2-7.9c0-0.1,0-0.1,0-0.2l0-0.1
		c0-0.3-0.2-0.5-0.5-0.6c-0.3-0.1-0.6,0.1-0.7,0.3c-1.1,2.4-3.6,3.9-6.2,3.9c-0.2,0-0.5,0-0.7,0c0,0-0.1,0-0.1,0
		c-1.4-1.4-3.3-2.3-5.4-2.3c-2.1,0-4,0.9-5.4,2.3c0,0-0.1,0-0.1,0c-0.2,0-0.5,0-0.7,0c-2.6,0-5.1-1.5-6.2-3.9
		c-0.1-0.3-0.4-0.4-0.7-0.3c-0.3,0.1-0.5,0.3-0.5,0.6l0,0.1c0,0.1,0,0.1,0,0.2c0,3.7,2.6,7,6.2,7.9c0,0.1,0,0.2,0,0.4
		c-0.3-0.1-0.7-0.2-1.1-0.2c-1.3,0-2.6,0.8-3.3,2.1c-0.1,0.2-0.1,0.4,0,0.6c0.7,1.3,1.9,2.1,3.3,2.1c0.6,0,1.3-0.2,1.8-0.5
		c0.3,1,0.7,2,1,2.8c0.4,1.1,0.9,2.3,0.9,2.7c0,2.6,2.1,4.7,4.7,4.7c0.1,0,0.3,0,0.3,0c2.6,0,4.7-2.1,4.7-4.7c0-0.4,0.5-1.6,0.9-2.7
		c0.3-0.9,0.7-1.9,1-2.8c0.6,0.3,1.2,0.5,1.8,0.5c1.3,0,2.6-0.8,3.3-2.1c0.1-0.2,0.1-0.4,0-0.6C54,254.9,52.8,254.1,51.4,254.1z
		 M34.3,257.6c-0.8,0-1.5-0.4-2-1.1c0.5-0.7,1.2-1.1,2-1.1c0.4,0,0.8,0.1,1.2,0.3c0.1,0.4,0.2,0.9,0.3,1.4
		C35.3,257.4,34.8,257.6,34.3,257.6z M35.6,252.7c-2.2-0.6-4-2.2-4.8-4.4c1.5,1.5,3.5,2.4,5.6,2.4C36.1,251.3,35.8,252,35.6,252.7z
		 M47.4,260.7c-0.6,1.6-1,2.6-1,3.1c0,1.9-1.6,3.5-3.5,3.5c-0.1,0-0.3,0-0.3,0c-1.9,0-3.5-1.6-3.5-3.5c0-0.6-0.3-1.5-1-3.1
		c-0.8-2-1.7-4.5-1.7-6.1c0-3.5,2.8-6.3,6.2-6.3c3.4,0,6.2,2.8,6.2,6.3C49.1,256.2,48.2,258.7,47.4,260.7z M49.3,250.7
		c2.1,0,4.1-0.9,5.6-2.4c-0.8,2.1-2.5,3.8-4.8,4.4C49.9,252,49.6,251.3,49.3,250.7z M51.4,257.6c-0.5,0-1-0.2-1.4-0.5
		c0.1-0.5,0.2-0.9,0.3-1.4c0.4-0.2,0.7-0.3,1.2-0.3c0.8,0,1.5,0.4,2,1.1C52.9,257.2,52.2,257.6,51.4,257.6z"/>
</g>
<g id="price">
	<circle fill="#C1C1C1" cx="42.6" cy="331.4" r="21.4"/>
	<g>
		<g>
			<g>
				<path fill="#E7E3E1" d="M43,345.3c-0.1,0-0.2,0-0.3-0.1l-11.7-6.4c-0.3-0.2-0.4-0.5-0.3-0.8l11-20.3c0.2-0.3,0.5-0.4,0.8-0.2
					l11.7,6.4c0.3,0.2,0.4,0.5,0.3,0.8l-11,20.3C43.4,345.2,43.2,345.3,43,345.3z M31.3,338.3l11.6,6.3l10.9-20.2l-11.6-6.3
					L31.3,338.3z"/>
			</g>
			<g>
				<path fill="#E7E3E1" d="M40.4,338.7c-0.4,0.8-1.4,1.1-2.2,0.7s-1.1-1.4-0.7-2.2c0.4-0.8,1.4-1.1,2.2-0.7S40.8,337.9,40.4,338.7z
					 M38,337.4c-0.3,0.5-0.1,1.2,0.4,1.5c0.5,0.3,1.2,0.1,1.5-0.4c0.3-0.5,0.1-1.2-0.4-1.5C39,336.6,38.3,336.8,38,337.4z"/>
			</g>
			<g>
				<path fill="#E7E3E1" d="M47.3,325.8c-0.4,0.8-1.4,1.1-2.2,0.7s-1.1-1.4-0.7-2.2c0.4-0.8,1.4-1.1,2.2-0.7S47.7,325,47.3,325.8z
					 M44.9,324.5c-0.3,0.5-0.1,1.2,0.4,1.5c0.5,0.3,1.2,0.1,1.5-0.4c0.3-0.5,0.1-1.2-0.4-1.5C45.9,323.7,45.2,323.9,44.9,324.5z"/>
			</g>
			<g>
				<path fill="#E7E3E1" d="M46.2,333.6c-1.2,2.2-3.9,3.1-5.9,2c-2.1-1.1-2.7-3.8-1.5-6.1c1.2-2.2,3.9-3.1,5.9-2
					C46.7,328.6,47.4,331.3,46.2,333.6z M39.2,329.8c-1.1,2-0.5,4.4,1.3,5.4c1.8,1,4.1,0.2,5.2-1.8c1.1-2,0.5-4.4-1.3-5.4
					C42.6,327,40.3,327.8,39.2,329.8z"/>
			</g>
			<g>
				<path fill="#E7E3E1" d="M35.7,340.7c0,0.1-0.1,0.1-0.2,0.1c-0.1,0-0.3,0-0.3-0.2l-1.9-6.1c0-0.1,0-0.3,0.2-0.3
					c0.1,0,0.3,0,0.3,0.2l1.9,6.1C35.7,340.6,35.7,340.7,35.7,340.7z"/>
			</g>
			<g>
				<path fill="#E7E3E1" d="M46.4,320.3c0,0.1-0.1,0.1-0.2,0.1l-6,1.9c-0.1,0-0.3,0-0.3-0.2c0-0.1,0-0.3,0.2-0.3l6-1.9
					c0.1,0,0.3,0,0.3,0.2C46.4,320.2,46.4,320.3,46.4,320.3z"/>
			</g>
			<g>
				<path fill="#E7E3E1" d="M45.2,340.9c0,0.1-0.1,0.1-0.2,0.1l-6.2,1.7c-0.1,0-0.3,0-0.3-0.2c0-0.1,0-0.3,0.2-0.3l6.2-1.7
					c0.1,0,0.3,0,0.3,0.2C45.3,340.7,45.2,340.8,45.2,340.9z"/>
			</g>
			<g>
				<path fill="#E7E3E1" d="M52,328.5c0,0.1-0.1,0.1-0.2,0.1c-0.1,0-0.3,0-0.3-0.2l-1.7-6c0-0.1,0-0.3,0.2-0.3c0.1,0,0.3,0,0.3,0.2
					l1.7,6C52,328.4,52,328.5,52,328.5z"/>
			</g>
		</g>
		<g>
			<path fill="#E7E3E1" d="M41.7,330.8c0,0.1-0.1,0.1-0.1,0.2c-0.1,0.2,0,0.2,0.1,0.3c0.3,0.1,0.6,0.3,1.1,0.6
				c0.3,0.2,0.5,0.3,0.5,0.3c0.1,0,0.1,0.1,0.1,0.2c0,0.1-0.1,0.1-0.2,0.1c-0.1,0-0.3-0.2-0.6-0.3c-0.5-0.3-0.8-0.4-1.1-0.6
				c-0.1-0.1-0.2-0.1-0.3,0.1c-0.2,0.3-0.3,0.6-0.3,0.8c-0.1,0.3-0.1,0.8,0,1.2c0.1,0.5,0.3,0.7,0.7,0.6c0.1,0,0.2-0.1,0.3-0.2
				l0.2-0.2c0.1-0.1,0.2-0.2,0.2-0.2c0.1-0.1,0.2-0.1,0.2,0c0.1,0,0.1,0.2,0,0.2c0,0-0.2,0.3-0.3,0.4c-0.3,0.3-0.8,0.5-1.2,0.1
				c-0.3-0.3-0.4-0.8-0.4-1.4c0-0.5,0.1-0.8,0.4-1.4c0.1-0.2,0-0.2-0.1-0.3c-0.2-0.1-0.3-0.1-0.5-0.1c-0.1,0-0.1-0.1-0.1-0.2
				c0-0.1,0.1-0.1,0.2-0.1c0.2,0,0.4,0.1,0.6,0.2c0.1,0.1,0.2,0,0.3-0.1c0-0.1,0.1-0.1,0.1-0.2c0.1-0.1,0.1-0.2-0.1-0.3
				c-0.1-0.1-0.3-0.1-0.4-0.1c-0.1,0-0.1-0.1-0.1-0.2c0-0.1,0.1-0.1,0.2-0.1c0.2,0.1,0.3,0.1,0.5,0.2c0.2,0.1,0.2,0,0.3-0.1
				c0.6-0.8,0.9-1,1.4-1.2c0.5-0.2,1-0.1,1.3,0.2c0.3,0.4,0.2,0.9,0.1,1.4c0,0-0.1,0.3-0.2,0.5c0,0.1-0.1,0.1-0.2,0.1
				c-0.1,0-0.1-0.1-0.1-0.2c0-0.1,0-0.1,0.1-0.3c0-0.1,0.1-0.2,0.1-0.2c0.1-0.4,0.2-0.8,0-1.1c-0.2-0.2-0.6-0.3-1-0.1
				c-0.4,0.1-0.7,0.3-1.2,1c-0.1,0.2-0.1,0.2,0.1,0.3c0.3,0.1,0.8,0.4,1.4,0.8c0.1,0,0.1,0.1,0.1,0.2c0,0.1-0.1,0.1-0.2,0.1
				c-0.7-0.4-1.2-0.7-1.5-0.8C41.8,330.6,41.8,330.6,41.7,330.8L41.7,330.8z"/>
		</g>
	</g>
</g>
</svg>
