<?xml version="1.0" encoding="utf-8"?>
<!-- Generator: Adobe Illustrator 18.0.0, SVG Export Plug-In . SVG Version: 6.00 Build 0)  -->
<!DOCTYPE svg PUBLIC "-//W3C//DTD SVG 1.1//EN" "http://www.w3.org/Graphics/SVG/1.1/DTD/svg11.dtd">
<svg version="1.1" id="Calque_1" xmlns="http://www.w3.org/2000/svg" xmlns:xlink="http://www.w3.org/1999/xlink" x="0px" y="0px"
	 viewBox="872 0 682 800" enable-background="new 872 0 682 800" xml:space="preserve">
<g id="color">
	<g>
		<circle fill="#C1C1C1" cx="1213.9" cy="73.2" r="47"/>
		<g>
			<path fill="#E7E3E1" d="M1243.7,100.4h-7.5c-0.7,0-1.3-0.7-1.3-1.3c0-30.8-5.1-46.8-7.9-46.8c-2.9,0-7.9,14.7-7.9,43.1
				c0,0.7-0.7,1.3-1.3,1.3h-7.5c-0.7,0-1.3-0.7-1.3-1.3c0-28.4-5.1-43.1-7.9-43.1s-7.9,16-7.9,46.8c0,0.7-0.7,1.3-1.3,1.3h-7.5
				c-0.7,0-1.3-0.7-1.3-1.3c0-26.2,6.8-53.2,18-53.2c5.1,0,9.7,5.1,13,14.7c3.3-9.5,7.9-14.7,13-14.7c11.2,0,18,27,18,53.2
				C1244.9,100,1244.3,100.4,1243.7,100.4z M1237.7,97.8h4.6c-0.2-29.5-7.9-49-15.4-49c-4.4,0-8.6,6.4-11.6,16.9
				c-0.2,0.7-0.7,1.1-1.3,1.1l0,0c-0.7,0-1.1-0.4-1.3-1.1c-2.9-10.5-7.3-16.9-11.6-16.9c-7.3,0-14.9,19.8-15.4,49h4.6
				c0.2-19.8,3.1-48.1,10.5-48.1c7.7,0,10.5,26.2,10.5,44.4h4.6c0.2-18.5,3.1-44.4,10.5-44.4C1234.7,49.7,1237.4,77.8,1237.7,97.8z"
				/>
		</g>
	</g>
</g>
<g id="cal">
	<circle fill="#C1C1C1" cx="1213.9" cy="236.9" r="47"/>
	<g>
		<path fill="#E7E3E1" d="M1206.4,258.9c-0.4,0-0.7-0.2-0.9-0.4c-0.4-0.4-0.4-1.3,0-2l20.4-20.4c0.4-0.4,1.3-0.4,2,0
			c0.4,0.4,0.4,1.3,0,2l-20.4,20.4C1207.3,258.9,1206.9,258.9,1206.4,258.9z"/>
		<path fill="#E7E3E1" d="M1244.9,247.9h-17.8c-0.7,0-1.3-0.7-1.3-1.3c0-0.7,0.7-1.3,1.3-1.3h14.5l-12.7-12.1c-0.4-0.4-0.7-1.3,0-2
			c0.4-0.7,1.3-0.7,2,0l15.2,14.5c0.4,0.4,0.4,0.9,0.2,1.5C1246.1,247.7,1245.3,247.9,1244.9,247.9z"/>
		<path fill="#E7E3E1" d="M1216.2,229.7c-0.4,0-0.9-0.2-1.1-0.7c-0.4-0.7-0.2-1.5,0.4-2l10.8-7.3c0.4-0.4,1.3-0.2,1.8,0.2l2.4,2.4
			c0.4,0.4,0.4,1.3,0,2c-0.4,0.4-1.3,0.4-2,0l-1.8-1.8l-9.7,6.6C1216.8,229.7,1216.7,229.7,1216.2,229.7z"/>
		<path fill="#E7E3E1" d="M1244.9,234.3h-6.2c-0.4,0-0.7-0.2-0.9-0.4l-6.2-6.2c-0.4-0.4-0.4-1.3,0-2c0.4-0.4,1.3-0.4,2,0l5.7,5.9
			h5.7c0.7,0,1.3,0.7,1.3,1.3S1245.7,234.3,1244.9,234.3z"/>
		<path fill="#E7E3E1" d="M1236.7,223.3c-2.2,0-4.2-1.8-4.2-4.2c0-2.2,1.8-4.2,4.2-4.2c2.2,0,4.2,1.8,4.2,4.2
			C1240.7,221.3,1239.1,223.3,1236.7,223.3z M1236.7,217.8c-0.7,0-1.3,0.7-1.3,1.3s0.7,1.3,1.3,1.3c0.7,0,1.3-0.7,1.3-1.3
			S1237.4,217.8,1236.7,217.8z"/>
		<path fill="#E7E3E1" d="M1199.4,250.8h-16.5c-0.7,0-1.3-0.7-1.3-1.3s0.7-1.3,1.3-1.3h16.5c0.7,0,1.3,0.7,1.3,1.3
			S1200.3,250.8,1199.4,250.8z"/>
		<path fill="#E7E3E1" d="M1204.9,242.4h-22c-0.7,0-1.3-0.7-1.3-1.3c0-0.7,0.7-1.3,1.3-1.3h22c0.7,0,1.3,0.7,1.3,1.3
			C1206.4,241.8,1205.8,242.4,1204.9,242.4z"/>
		<path fill="#E7E3E1" d="M1210.4,234.3h-27.5c-0.7,0-1.3-0.7-1.3-1.3s0.7-1.3,1.3-1.3h27.5c0.7,0,1.3,0.7,1.3,1.3
			S1211.3,234.3,1210.4,234.3z"/>
	</g>
</g>
<g id="salt">
	<circle fill="#C1C1C1" cx="1213.9" cy="400.7" r="47"/>
	<g id="_x31_col_4_">
		<path fill="#E7E3E1" d="M1245.8,407c-3.1-2.2-15.8-9.7-26.8-24.2c-0.9-1.1-1.8-2.6-3.7-2.6l0,0l0,0l0,0l0,0
			c-2.2,0-3.3,1.5-4.4,3.1c-9.9,11.9-24.2,21.5-27.9,23.3c-1.8,0.7-2.9,2-2.9,3.7c0.2,2.9,2.9,4.8,7,7c4.6,2.2,15.8,4.2,28.4,4.2
			c5.9,0,12.3-0.4,18-1.8c11.2-2.4,14.9-4.8,15.4-8.6C1248.3,409.2,1246.9,407.9,1245.8,407z M1243.7,413.6c-1.1,0.7-2.9,1.3-5.1,2
			l0,0c0-0.7-0.4-1.1-1.1-1.1s-1.1,0.4-1.1,1.1c0,0.2,0,0.4,0.2,0.7c-1.1,0.2-2.6,0.7-4,0.9c-0.2-0.2-0.4-0.7-0.9-0.7
			s-0.9,0.4-1.1,0.9c-5.1,0.9-10.3,1.3-15.6,1.3c-4.8,0-9.7-0.4-14.1-0.9c0.2-0.2,0.4-0.7,0.4-0.9c0-0.9-0.9-1.8-1.8-1.8
			c-0.9,0-1.8,0.9-1.8,1.8c0,0.2,0,0.4,0.2,0.7c-0.9-0.2-1.8-0.2-2.4-0.4V417c0-0.7-0.4-1.1-1.1-1.1c-0.4,0-0.9,0.4-1.1,0.9
			c-2.4-0.7-4.4-1.1-5.7-1.8c-4-1.8-5.9-4-5.7-4.8c0-0.4,0.2-0.9,1.5-1.5c1.8-0.9,4.8-2.6,8.8-5.5c0,0.7,0.4,0.9,1.1,0.9
			s1.1-0.4,1.1-1.1c0-0.4-0.2-0.9-0.7-1.1c3.5-2.6,7.7-5.9,11.6-9.9c0,0,0,0,0,0.2c0,1.1,0.9,2,2,2c1.1,0,2-0.9,2-2s-0.9-2-2-2l0,0
			c1.8-1.8,3.3-3.5,5.1-5.5c1.3-1.5,2-2.2,2.9-2.2l0,0l0,0c0.7,0,0.9,0.2,2,1.8c11.2,14.7,24.6,22.6,27.5,24.6
			c1.1,0.7,1.5,1.5,1.5,2.2C1246.1,411.6,1245.7,412.5,1243.7,413.6z M1186.3,411.6c-0.7,0-1.1,0.4-1.1,1.1s0.4,1.1,1.1,1.1
			s1.1-0.4,1.1-1.1C1187.3,412.1,1186.7,411.6,1186.3,411.6z M1188.4,407.9c-0.7,0-1.1,0.4-1.1,1.1s0.4,1.1,1.1,1.1
			c0.7,0,1.1-0.4,1.1-1.1C1189.6,408.4,1189.2,407.9,1188.4,407.9z M1200.2,411.4c-0.7,0-1.1,0.4-1.1,1.1s0.4,1.1,1.1,1.1
			s1.1-0.4,1.1-1.1C1201.3,411.9,1200.7,411.4,1200.2,411.4z M1221.1,408.4c-0.7,0-1.1,0.4-1.1,1.1s0.4,1.1,1.1,1.1s1.1-0.4,1.1-1.1
			S1221.7,408.4,1221.1,408.4z M1199.3,404c0.7,0,1.1-0.4,1.1-1.1s-0.4-1.1-1.1-1.1c-0.7,0-1.1,0.4-1.1,1.1
			C1198.2,403.5,1198.6,404,1199.3,404z M1198.3,404.8c0-0.7-0.4-1.1-1.1-1.1s-1.1,0.4-1.1,1.1s0.4,1.1,1.1,1.1
			S1198.3,405.5,1198.3,404.8z M1199.9,409.9c0-0.7-0.4-1.1-1.1-1.1s-1.1,0.4-1.1,1.1s0.4,1.1,1.1,1.1
			C1199.3,411,1199.9,410.3,1199.9,409.9z M1204.1,403.1c-0.9,0-1.8,0.7-1.8,1.8c0,0.9,0.9,1.8,1.8,1.8s1.8-0.9,1.8-1.8
			C1205.8,403.7,1204.9,403.1,1204.1,403.1z M1215.6,389.5c-0.7,0-1.1,0.4-1.1,1.1s0.4,1.1,1.1,1.1s1.1-0.4,1.1-1.1
			S1216.2,389.5,1215.6,389.5z M1213.7,387c0.7,0,1.1-0.4,1.1-1.1s-0.4-1.1-1.1-1.1s-1.1,0.4-1.1,1.1S1213.3,387,1213.7,387z
			 M1211.9,398.7c-0.7,0-1.1,0.4-1.1,1.1s0.4,1.1,1.1,1.1c0.7,0,1.1-0.4,1.1-1.1C1213.1,399.1,1212.7,398.7,1211.9,398.7z
			 M1212.8,391.2c-0.7,0-1.1,0.4-1.1,1.1s0.4,1.1,1.1,1.1s1.1-0.4,1.1-1.1S1213.6,391.2,1212.8,391.2z M1202.9,397.6
			c0-0.7-0.4-1.1-1.1-1.1s-1.1,0.4-1.1,1.1s0.4,1.1,1.1,1.1C1202.6,398.7,1202.9,398.2,1202.9,397.6z M1211.3,404
			c0-0.7-0.4-1.1-1.1-1.1s-1.1,0.4-1.1,1.1s0.4,1.1,1.1,1.1C1210.8,405.1,1211.3,404.4,1211.3,404z M1211.3,414.5
			c-0.7,0-1.1,0.4-1.1,1.1s0.4,1.1,1.1,1.1s1.1-0.4,1.1-1.1S1211.9,414.5,1211.3,414.5z M1220.3,415.4c-0.7,0-1.1,0.4-1.1,1.1
			s0.4,1.1,1.1,1.1s1.1-0.4,1.1-1.1S1221.1,415.4,1220.3,415.4z M1192.7,412.3c-0.7,0-1.1,0.4-1.1,1.1s0.4,1.1,1.1,1.1
			s1.1-0.4,1.1-1.1C1193.7,413,1193.3,412.3,1192.7,412.3z M1242.2,411c-0.7,0-1.1,0.4-1.1,1.1s0.4,1.1,1.1,1.1s1.1-0.4,1.1-1.1
			C1243.2,411.4,1242.7,411,1242.2,411z M1193.1,408.1c-0.9,0-1.5,0.7-1.5,1.5c0,0.9,0.7,1.5,1.5,1.5c0.9,0,1.5-0.7,1.5-1.5
			C1194.7,408.8,1193.9,408.1,1193.1,408.1z"/>
	</g>
</g>
<g id="meat">
	<circle fill="#C1C1C1" cx="1213.9" cy="564.6" r="47"/>
	<path fill="#E7E3E1" d="M1233.3,558.5c-0.9,0-1.5,0.2-2.4,0.4c0-0.2,0-0.7,0-0.9c7.9-2,13.6-9,13.6-17.4c0-0.2,0-0.2,0-0.4V540
		c0-0.7-0.4-1.1-1.1-1.3s-1.3,0.2-1.5,0.7c-2.4,5.3-7.9,8.6-13.6,8.6c-0.4,0-1.1,0-1.5,0h-0.2c-3.1-3.1-7.3-5.1-11.9-5.1
		s-8.8,2-11.9,5.1h-0.2c-0.4,0-1.1,0-1.5,0c-5.7,0-11.2-3.3-13.6-8.6c-0.2-0.7-0.9-0.9-1.5-0.7c-0.7,0.2-1.1,0.7-1.1,1.3v0.2
		c0,0.2,0,0.2,0,0.4c0,8.1,5.7,15.4,13.6,17.4c0,0.2,0,0.4,0,0.9c-0.7-0.2-1.5-0.4-2.4-0.4c-2.9,0-5.7,1.8-7.3,4.6
		c-0.2,0.4-0.2,0.9,0,1.3c1.5,2.9,4.2,4.6,7.3,4.6c1.3,0,2.9-0.4,4-1.1c0.7,2.2,1.5,4.4,2.2,6.2c0.9,2.4,2,5.1,2,5.9
		c0,5.7,4.6,10.3,10.3,10.3c0.2,0,0.7,0,0.7,0c5.7,0,10.3-4.6,10.3-10.3c0-0.9,1.1-3.5,2-5.9c0.7-2,1.5-4.2,2.2-6.2
		c1.3,0.7,2.6,1.1,4,1.1c2.9,0,5.7-1.8,7.3-4.6c0.2-0.4,0.2-0.9,0-1.3C1239.1,560.2,1236.3,558.5,1233.3,558.5z M1195.7,566.2
		c-1.8,0-3.3-0.9-4.4-2.4c1.1-1.5,2.6-2.4,4.4-2.4c0.9,0,1.8,0.2,2.6,0.7c0.2,0.9,0.4,2,0.7,3.1
		C1197.9,565.7,1196.8,566.2,1195.7,566.2z M1198.6,555.4c-4.8-1.3-8.8-4.8-10.5-9.7c3.3,3.3,7.7,5.3,12.3,5.3
		C1199.7,552.3,1199.1,553.8,1198.6,555.4z M1224.6,573c-1.3,3.5-2.2,5.7-2.2,6.8c0,4.2-3.5,7.7-7.7,7.7c-0.2,0-0.7,0-0.7,0
		c-4.2,0-7.7-3.5-7.7-7.7c0-1.3-0.7-3.3-2.2-6.8c-1.8-4.4-3.7-9.9-3.7-13.4c0-7.7,6.2-13.8,13.6-13.8s13.6,6.2,13.6,13.8
		C1228.3,563.1,1226.3,568.6,1224.6,573z M1228.7,551c4.6,0,9-2,12.3-5.3c-1.8,4.6-5.5,8.4-10.5,9.7
		C1230.1,553.8,1229.3,552.3,1228.7,551z M1233.3,566.2c-1.1,0-2.2-0.4-3.1-1.1c0.2-1.1,0.4-2,0.7-3.1c0.9-0.4,1.5-0.7,2.6-0.7
		c1.8,0,3.3,0.9,4.4,2.4C1236.7,565.3,1235.1,566.2,1233.3,566.2z"/>
</g>
<g id="price">
	<circle fill="#C1C1C1" cx="1213.9" cy="728.4" r="47"/>
	<g>
		<g>
			<g>
				<path fill="#E7E3E1" d="M1214.8,758.9c-0.2,0-0.4,0-0.7-0.2l-25.7-14.1c-0.7-0.4-0.9-1.1-0.7-1.8l24.2-44.6
					c0.4-0.7,1.1-0.9,1.8-0.4l25.7,14.1c0.7,0.4,0.9,1.1,0.7,1.8l-24.2,44.6C1215.7,758.7,1215.3,758.9,1214.8,758.9z M1189.2,743.5
					l25.5,13.8l24-44.4l-25.5-13.8L1189.2,743.5z"/>
			</g>
			<g>
				<path fill="#E7E3E1" d="M1209.2,744.4c-0.9,1.8-3.1,2.4-4.8,1.5c-1.8-0.9-2.4-3.1-1.5-4.8c0.9-1.8,3.1-2.4,4.8-1.5
					C1209.3,740.4,1210.1,742.6,1209.2,744.4z M1203.8,741.5c-0.7,1.1-0.2,2.6,0.9,3.3c1.1,0.7,2.6,0.2,3.3-0.9
					c0.7-1.1,0.2-2.6-0.9-3.3C1206.1,739.8,1204.6,740.2,1203.8,741.5z"/>
			</g>
			<g>
				<path fill="#E7E3E1" d="M1224.3,716c-0.9,1.8-3.1,2.4-4.8,1.5c-1.8-0.9-2.4-3.1-1.5-4.8c0.9-1.8,3.1-2.4,4.8-1.5
					C1224.4,712.1,1225.2,714.3,1224.3,716z M1219.1,713.2c-0.7,1.1-0.2,2.6,0.9,3.3c1.1,0.7,2.6,0.2,3.3-0.9
					c0.7-1.1,0.2-2.6-0.9-3.3C1221.3,711.4,1219.7,711.9,1219.1,713.2z"/>
			</g>
			<g>
				<path fill="#E7E3E1" d="M1221.8,733.2c-2.6,4.8-8.6,6.8-13,4.4c-4.6-2.4-5.9-8.4-3.3-13.4c2.6-4.8,8.6-6.8,13-4.4
					C1222.9,722.2,1224.6,728.1,1221.8,733.2z M1206.4,724.8c-2.4,4.4-1.1,9.7,2.9,11.9s9,0.4,11.4-4s1.1-9.7-2.9-11.9
					C1213.9,718.7,1208.9,720.4,1206.4,724.8z"/>
			</g>
			<g>
				<path fill="#E7E3E1" d="M1198.8,748.8c0,0.2-0.2,0.2-0.4,0.2c-0.2,0-0.7,0-0.7-0.4l-4.2-13.4c0-0.2,0-0.7,0.4-0.7
					c0.2,0,0.7,0,0.7,0.4l4.2,13.4C1198.8,748.6,1198.8,748.8,1198.8,748.8z"/>
			</g>
			<g>
				<path fill="#E7E3E1" d="M1222.3,704c0,0.2-0.2,0.2-0.4,0.2l-13.2,4.2c-0.2,0-0.7,0-0.7-0.4c0-0.2,0-0.7,0.4-0.7l13.2-4.2
					c0.2,0,0.7,0,0.7,0.4C1222.3,703.7,1222.3,704,1222.3,704z"/>
			</g>
			<g>
				<path fill="#E7E3E1" d="M1219.7,749.2c0,0.2-0.2,0.2-0.4,0.2l-13.6,3.7c-0.2,0-0.7,0-0.7-0.4c0-0.2,0-0.7,0.4-0.7l13.6-3.7
					c0.2,0,0.7,0,0.7,0.4C1219.9,748.8,1219.7,749,1219.7,749.2z"/>
			</g>
			<g>
				<path fill="#E7E3E1" d="M1234.7,722c0,0.2-0.2,0.2-0.4,0.2c-0.2,0-0.7,0-0.7-0.4l-3.7-13.2c0-0.2,0-0.7,0.4-0.7
					c0.2,0,0.7,0,0.7,0.4l3.7,13.2C1234.7,721.8,1234.7,722,1234.7,722z"/>
			</g>
		</g>
		<g>
			<path fill="#E7E3E1" d="M1211.9,727c0,0.2-0.2,0.2-0.2,0.4c-0.2,0.4,0,0.4,0.2,0.7c0.7,0.2,1.3,0.7,2.4,1.3
				c0.7,0.4,1.1,0.7,1.1,0.7c0.2,0,0.2,0.2,0.2,0.4s-0.2,0.2-0.4,0.2c-0.2,0-0.7-0.4-1.3-0.7c-1.1-0.7-1.8-0.9-2.4-1.3
				c-0.2-0.2-0.4-0.2-0.7,0.2c-0.4,0.7-0.7,1.3-0.7,1.8c-0.2,0.7-0.2,1.8,0,2.6c0.2,1.1,0.7,1.5,1.5,1.3c0.2,0,0.4-0.2,0.7-0.4
				l0.4-0.4c0.2-0.2,0.4-0.4,0.4-0.4c0.2-0.2,0.4-0.2,0.4,0c0.2,0,0.2,0.4,0,0.4c0,0-0.4,0.7-0.7,0.9c-0.7,0.7-1.8,1.1-2.6,0.2
				c-0.7-0.7-0.9-1.8-0.9-3.1c0-1.1,0.2-1.8,0.9-3.1c0.2-0.4,0-0.4-0.2-0.7c-0.4-0.2-0.7-0.2-1.1-0.2c-0.2,0-0.2-0.2-0.2-0.4
				s0.2-0.2,0.4-0.2c0.4,0,0.9,0.2,1.3,0.4c0.2,0.2,0.4,0,0.7-0.2c0-0.2,0.2-0.2,0.2-0.4c0.2-0.2,0.2-0.4-0.2-0.7
				c-0.2-0.2-0.7-0.2-0.9-0.2s-0.2-0.2-0.2-0.4s0.2-0.2,0.4-0.2c0.4,0.2,0.7,0.2,1.1,0.4c0.4,0.2,0.4,0,0.7-0.2
				c1.3-1.8,2-2.2,3.1-2.6c1.1-0.4,2.2-0.2,2.9,0.4c0.7,0.9,0.4,2,0.2,3.1c0,0-0.2,0.7-0.4,1.1c0,0.2-0.2,0.2-0.4,0.2
				c-0.2,0-0.2-0.2-0.2-0.4s0-0.2,0.2-0.7c0-0.2,0.2-0.4,0.2-0.4c0.2-0.9,0.4-1.8,0-2.4c-0.4-0.4-1.3-0.7-2.2-0.2
				c-0.9,0.2-1.5,0.7-2.6,2.2c-0.2,0.4-0.2,0.4,0.2,0.7c0.7,0.2,1.8,0.9,3.1,1.8c0.2,0,0.2,0.2,0.2,0.4s-0.2,0.2-0.4,0.2
				c-1.5-0.9-2.6-1.5-3.3-1.8C1212.3,726.6,1212.3,726.6,1211.9,727L1211.9,727z"/>
		</g>
	</g>
</g>
<rect x="856.7" y="55.4" fill="none" width="293.9" height="96.1"/>
<text transform="matrix(1 0 0 1 1056.9613 84.1313)" fill="#DF5252" font-family="'Courgette-Regular'" font-size="34.8482">{{textcolor1}}</text>
<rect x="1285.9" y="55.4" fill="none" width="298.4" height="96.1"/>
<text transform="matrix(1 0 0 1 1285.8679 84.1313)" fill="#DF5252" font-family="'Courgette-Regular'" font-size="34.8482">{{textcolor2}}</text>
<rect x="856.7" y="223.6" fill="none" width="293.9" height="96.1"/>
<text transform="matrix(1 0 0 1 1038.124 252.2487)" fill="#DF5252" font-family="'Courgette-Regular'" font-size="34.8482">{{textcal1}}</text>
<rect x="1285.9" y="223.6" fill="none" width="298.4" height="96.1"/>
<text transform="matrix(1 0 0 1 1285.8679 252.2487)" fill="#DF5252" font-family="'Courgette-Regular'" font-size="34.8482">{{textcal2}}</text>
<rect x="856.7" y="388.7" fill="none" width="293.9" height="96.1"/>
<text transform="matrix(1 0 0 1 1008.2812 417.3513)" fill="#DF5252" font-family="'Courgette-Regular'" font-size="34.8482">{{textsalt1}}</text>
<rect x="1285.9" y="388.7" fill="none" width="298.4" height="96.1"/>
<text transform="matrix(1 0 0 1 1285.8679 417.3513)" fill="#DF5252" font-family="'Courgette-Regular'" font-size="34.8482">{{textsalt2}}</text>
<rect x="856.7" y="550.3" fill="none" width="293.9" height="96.1"/>
<text transform="matrix(1 0 0 1 959.0821 578.9766)" fill="#DF5252" font-family="'Courgette-Regular'" font-size="34.8482">{{textmeat1}}</text>
<rect x="1285.9" y="550.3" fill="none" width="298.4" height="96.1"/>
<text transform="matrix(1 0 0 1 1285.8679 578.9766)" fill="#DF5252" font-family="'Courgette-Regular'" font-size="34.8482">{{textmeat2}}</text>
<rect x="856.7" y="718.9" fill="none" width="293.9" height="96.1"/>
<text transform="matrix(1 0 0 1 978.9081 747.5845)" fill="#DF5252" font-family="'Courgette-Regular'" font-size="34.8482">{{textprice1}}</text>
<rect x="1285.9" y="718.9" fill="none" width="298.4" height="96.1"/>
<text transform="matrix(1 0 0 1 1285.8679 747.5845)" fill="#DF5252" font-family="'Courgette-Regular'" font-size="34.8482">{{textprice1}}</text>
</svg>
