<?xml version="1.0" encoding="utf-8"?>
<!-- Generator: Adobe Illustrator 18.0.0, SVG Export Plug-In . SVG Version: 6.00 Build 0)  -->
<!DOCTYPE svg PUBLIC "-//W3C//DTD SVG 1.1//EN" "http://www.w3.org/Graphics/SVG/1.1/DTD/svg11.dtd">
<svg version="1.1" id="Calque_1" xmlns="http://www.w3.org/2000/svg" xmlns:xlink="http://www.w3.org/1999/xlink" x="0px" y="0px"
	 viewBox="0 0 422 278" enable-background="new 0 0 422 278" xml:space="preserve">
<pattern  x="-429" y="-261" width="130" height="142.7" patternUnits="userSpaceOnUse" id="Nouveau_motif_2" viewBox="34.7 -162.5 130 142.7" overflow="visible">
	<g>
		<polygon fill="none" points="34.7,-162.5 164.7,-162.5 164.7,-19.8 34.7,-19.8 		"/>
		<g>
			<path d="M144.8-16.5c-2.7,3.3-6.9,4.5-8.7-0.4c-0.3-1-0.6-2-0.8-3c-0.1-0.2-0.2-0.4-0.3-0.6c-2.1-1-4-2.6-3.1-4.8
				c0-0.1,0-0.2,0-0.3c-0.4,0.9-0.4,2,0.3,3.3c0.1,0.2,0.1,0.4-0.2,0.5c-0.6,0.3-1.2,0.4-1.7,0.6c0.1,0.9,0.1,1.9,0.1,2.9
				c0,2-2.5,2.4-3.3,0.7c0,0,0-0.1-0.1-0.1c-0.3,0.2-0.8,0.1-0.8-0.4c0-0.3-0.1-0.7-0.2-1c-0.6-0.1-1.2-0.2-1.8-0.3
				c0,0.1,0,0.2,0,0.3c-0.1,0.8-0.9,1.5-1.7,1.6c-0.7,0-1.4,0.1-2.1,0.5c-0.9,0.4-2.1-0.2-2.4-1.2c-0.3-1-0.6-2.1-0.9-3.2
				c-0.1,0-0.1,0-0.2-0.1c-1.1-0.5-2.2-1.3-2.6-2.5c-0.3,0.2-0.6,0.3-0.8,0.4c-1.1,0.6-2.3,1.2-3.4,1.9c-0.1,0.1-0.1,0.3-0.2,0.4
				c-0.3,0.5-0.8,0.8-1.3,0.9c0.1,1.2,0.4,2.4,0.7,3.5c0.5,1.6-1,2.8-2.5,2.3c-0.6-0.2-1.3-0.5-2-0.9c0,0.2,0,0.3,0,0.5
				c0,0.4-0.3,0.6-0.6,0.4c-3.3-1.1-4-4-3.4-6.8c-0.1-0.3-0.2-0.6-0.2-1c0.5-5.2,5.6-6.4,8.4-4.9c1.4-2.1,3.3-3.6,6.2-4
				c0.2,0,0.3,0,0.4,0c0-2.6,0.3-5.2,1.2-7.7c0.5-1.5,3.2-1.5,3.5,0.2c0.4,1.6,1.1,3.8,1.6,5.9c0.1,0,0.2,0.1,0.3,0.2
				c0.8,0.9,1.4,1.9,1.9,3c0,0,0,0,0,0c0.9-0.9,2.2-0.9,3,0.1c1.9,2.2,2.7,4.6,3.1,7.2c0.7-0.3,0.8-0.7,0.5-1.3
				c-0.2-0.5-0.6-1.2-0.5-1.8c0.1-1.5,0.5-2.6,1.5-3.8c0.7-0.8,1.6-1.4,2.6-1.9c0.3-0.3,0.7-0.6,1.2-0.8c0.6-0.3,1.4-0.4,2-0.1
				c0.6-0.1,1.2-0.1,1.8-0.1c0.4-0.8,1.3-1.3,2.6-1.3c0.9,0,1.2,1.5,0.4,1.9c-0.9,0.5,0.9,4.2,1.2,4.9c0.8,1.7-1.2,2.8-2.6,2.4
				c-0.6-0.2-1.2-0.3-1.9-0.3c-0.2,0.3-0.3,0.6-0.4,1c0,0.1,0,0.3,0,0.4c1,0.3,1.2,1.2,1,2.1c1.7,0.7,4.5,1.7,5.1,2.2
				C145.3-18.3,145.4-17.2,144.8-16.5z M122.1-27.2c-0.1-0.3-0.2-0.7-0.2-1c-0.1,0.3-0.1,0.7-0.3,0.9c-0.3,0.7-1,1.1-1.8,1.4
				c0.1,0.5,0.2,0.9,0.3,1.4c0.3,0.1,0.5,0.2,0.8,0.2c0.1,0,0.1,0,0.2,0C121.3-25.2,121.6-26.2,122.1-27.2z"/>
			<path d="M169.3-10.8c-6.6,0.4-13.5-4.3-14-11.3c-0.2-2.6,0.6-5.4,3.1-6.5c2.3-1,5.7-0.5,7.4,1.5c3.1,0.3,4.3,3.9,4.7,7.4
				c0.5,1.7,0.5,3.4,0.3,5.2c0,0.1,0.1,0.1,0.1,0.2C171.9-12.9,171.1-10.9,169.3-10.8z M165.4-15.8c-0.3-0.7-0.5-1.3-0.8-2
				c-0.1,0-0.2,0-0.4,0c-1-0.1-2-0.4-3-0.8C162.3-17.3,163.7-16.3,165.4-15.8z"/>
			<path d="M176.5-46.6c-0.1-0.1-0.2-0.1-0.3-0.2c-0.9-1.7-2.3-3.2-4-4.5c-2.1-4.8-6.2-8.4-12-7.6c-0.2,0-0.4,0-0.6,0.1
				c-1.4,0.4-2.1,2.2-1.1,3.3c-0.3,1.1-0.5,2.4-0.6,3.6c-0.2,0.4-0.3,0.8-0.1,1.3c-0.9,9.1,1,19.8,11.9,18.1
				c5.4-0.8,8.1-5.9,7.5-10.8C178-44.3,177.8-45.8,176.5-46.6z"/>
			<path d="M142.7-55.6c-2.1-0.3-5,0.8-7.3,0.4c0.5-0.6,0.3-1.8-0.5-2.2c-1.3-0.7-2.7-1.3-4.1-1.7c-0.8-0.9-1.6-1.7-2.8-2.3
				c-2.4-1.3-6.2,0.3-7.6,2.8c-0.3,0.1-0.5,0.2-0.8,0.3c-5.5,2.9-3.3,10.2,0.1,13.7c4.4,4.6,9.7,5.3,15,1.6
				c3.9-2.7,10.4,0.9,13.4-3.5C150.9-50.3,146.5-55,142.7-55.6z"/>
		</g>
		<g>
			<path d="M76.1-62.6C74.6-63.5,73.3-64,72-64c0-0.7-0.5-1.5-1.1-1.7c-6-2-10,2.2-13.2,7.1c-1.7,1-3.1,2.4-4,4.2
				c-0.3,0.7-0.1,1.3,0.3,1.8c-0.4,0.7-0.8,1.3-1.2,1.9c-1,1.5-0.2,4.3,2,3.8c8.4-1.7,15.5-6.5,21.6-12.4
				C77.3-60,77.1-61.9,76.1-62.6z"/>
			<path d="M73.7-27.2c-1,0.5-2,0.8-3.2,1c0.2,0.5,0.1,1-0.5,1.3c-1,0.5-1.8,0.7-2.9,0.4c-0.6-0.1-0.9-0.6-1.1-1
				c-0.6,0-0.9-0.4-1-0.9c-0.9,0-1.7-0.1-2.4-0.4c-0.6,0.8-1.1,1.8-1.3,3.1c-0.2,0.7-0.7,1.1-1.3,1.3c0.1,0.3,0.2,0.6,0.3,0.8
				c1,1.3,2.1,2.5,3.5,3.4c0.7,0.5,0.7,1.6,0.2,2.2c-1.9,2.2-5.4,5.5-9.1,8c-0.5,0.7-1,1.4-1.6,2c0.5,0.2,1,0.4,1.6,0.6
				c0.8,0.3,0.9,1.4,0.5,2C53.2,0,49.7,0.3,46-0.2c-0.6-0.1-1-0.6-1.1-1.2c-0.2-1.4,0-2.5,0.4-3.6c-0.5-0.5-0.7-1.2-0.2-2
				c2.3-3.6,5.5-6.5,9.3-7.7c0.7-1.2,1.1-2.6,0.9-4.4c-0.8-6.9-1.5-12.1,5.4-15.5c0.8-0.4,1.3,0.5,1.1,1.1c0.1,0,0.2,0,0.3,0
				c2-1.8,5.8-0.4,8.1,1.4c0.5,0.3,0.8,0.8,0.8,1.3c0,0,0,0.1,0,0.1c0,0,0,0.1,0,0.1c0.4,0.3,0.6,0.8,0.6,1.3c0.7,0,1.3,0.2,1.9,0.5
				C74.1-28.4,74.3-27.5,73.7-27.2z M52.3-3.5c-0.3-0.1-0.5-0.2-0.8-0.4c-1.1,0.8-2.1,0.8-3.1-0.5C48.6-2.7,50.1-1.5,52.3-3.5z
				 M60-17.3c-0.5,0.1-0.9,0-1.3-0.3c-0.2-0.2-0.3-0.3-0.4-0.5c0.1,1,0.1,2-0.3,2.9c0.4,0,0.7,0,1.1,0c0.6-0.5,1.1-1.1,1.6-1.6
				C60.4-16.9,60.2-17.1,60-17.3z"/>
			<path d="M39.3-10.8c-6.6,0.4-13.5-4.3-14-11.3c-0.2-2.6,0.6-5.4,3.1-6.5c2.3-1,5.7-0.5,7.4,1.5c3.1,0.3,4.3,3.9,4.7,7.4
				c0.5,1.7,0.5,3.4,0.3,5.2c0,0.1,0.1,0.1,0.1,0.2C41.9-12.9,41.1-10.9,39.3-10.8z M35.4-15.8c-0.3-0.7-0.5-1.3-0.8-2
				c-0.1,0-0.2,0-0.4,0c-1-0.1-2-0.4-3-0.8C32.3-17.3,33.7-16.3,35.4-15.8z"/>
			<path d="M46.5-46.6c-0.1-0.1-0.2-0.1-0.3-0.2c-0.9-1.7-2.3-3.2-4-4.5c-2.1-4.8-6.2-8.4-12-7.6c-0.2,0-0.4,0-0.6,0.1
				c-1.4,0.4-2.1,2.2-1.1,3.3c-0.3,1.1-0.5,2.4-0.6,3.6c-0.2,0.4-0.3,0.8-0.1,1.3c-0.9,9.1,1,19.8,11.9,18.1
				c5.4-0.8,8.1-5.9,7.5-10.8C48-44.3,47.8-45.8,46.5-46.6z"/>
			<path d="M109.4-51.2c-2.7,3.3-6.9,4.5-8.7-0.4c-0.3-1-0.6-2-0.8-3c-0.1-0.2-0.2-0.4-0.3-0.6c-2.1-1-4-2.6-3.1-4.8
				c0-0.1,0-0.2,0-0.3c-0.4,0.9-0.4,2,0.3,3.3c0.1,0.2,0.1,0.4-0.2,0.5c-0.6,0.3-1.2,0.4-1.7,0.6c0.1,0.9,0.1,1.9,0.1,2.9
				c0,2-2.5,2.4-3.3,0.7c0,0,0-0.1-0.1-0.1c-0.3,0.2-0.8,0.1-0.8-0.4c0-0.3-0.1-0.7-0.2-1c-0.6-0.1-1.2-0.2-1.8-0.3
				c0,0.1,0,0.2,0,0.3c-0.1,0.8-0.9,1.5-1.7,1.6c-0.7,0-1.4,0.1-2.1,0.5c-0.9,0.4-2.1-0.2-2.4-1.2c-0.3-1-0.6-2.1-0.9-3.2
				c-0.1,0-0.1,0-0.2-0.1c-1.1-0.5-2.2-1.3-2.6-2.5c-0.3,0.2-0.6,0.3-0.8,0.4c-1.1,0.6-2.3,1.2-3.4,1.9c-0.1,0.1-0.1,0.3-0.2,0.4
				c-0.3,0.5-0.8,0.8-1.3,0.9c0.1,1.2,0.4,2.4,0.7,3.5c0.5,1.6-1,2.8-2.5,2.3c-0.6-0.2-1.3-0.5-2-0.9c0,0.2,0,0.3,0,0.5
				c0,0.4-0.3,0.6-0.6,0.4c-3.3-1.1-4-4-3.4-6.8c-0.1-0.3-0.2-0.6-0.2-1c0.5-5.2,5.6-6.4,8.4-5c1.4-2.1,3.3-3.6,6.2-4
				c0.2,0,0.3,0,0.4,0c0-2.6,0.3-5.2,1.2-7.7c0.5-1.5,3.2-1.5,3.5,0.2c0.4,1.6,1.1,3.8,1.6,5.9c0.1,0,0.2,0.1,0.3,0.2
				c0.8,0.9,1.4,1.9,1.9,3c0,0,0,0,0,0c0.9-0.9,2.2-0.9,3,0.1c1.9,2.2,2.7,4.6,3.1,7.2c0.7-0.3,0.8-0.7,0.5-1.3
				c-0.2-0.5-0.6-1.2-0.5-1.8c0.1-1.5,0.5-2.6,1.5-3.8c0.7-0.8,1.6-1.4,2.6-1.9c0.4-0.3,0.7-0.6,1.2-0.8c0.6-0.3,1.4-0.4,2-0.1
				c0.6-0.1,1.2-0.1,1.8-0.1c0.4-0.8,1.3-1.3,2.6-1.3c0.9,0,1.2,1.5,0.4,1.9c-0.9,0.5,0.9,4.2,1.2,4.9c0.8,1.7-1.2,2.8-2.6,2.4
				c-0.6-0.2-1.2-0.3-1.9-0.3c-0.2,0.3-0.3,0.6-0.4,1c0,0.1,0,0.3,0,0.4c1,0.3,1.2,1.2,1,2.1c1.7,0.7,4.5,1.7,5.1,2.2
				C109.9-53.1,109.9-51.9,109.4-51.2z M86.7-61.9c-0.1-0.3-0.2-0.7-0.2-1c-0.1,0.3-0.1,0.7-0.3,0.9c-0.3,0.7-1,1.1-1.8,1.4
				c0.1,0.5,0.2,0.9,0.3,1.4c0.3,0.1,0.5,0.2,0.8,0.2c0.1,0,0.1,0,0.2,0C85.9-60,86.2-61,86.7-61.9z"/>
		</g>
		<g>
			<path d="M164.8-46.6c-1.7-0.7-3.4-0.5-5,0.3c-1.9,1-2.3,3.3-2.4,5.2c0,1,0.8,1.9,1.6,2.3c1.8,0.9,3.9,1.1,5.7,0.3c0,0,0,0,0,0
				c0.4,2.7,4.7,3.2,5,0.2C170.1-41.8,168.2-45.3,164.8-46.6z"/>
			<path d="M186.1-58.1c-3,2.4-6.5,4.3-10.4,4.3c-0.1,0-0.2,0-0.3,0c-2.5,0.8-5,1.8-7.4,2.6c-1.5,0.5-3.6,1.3-5.2,0.5
				c-0.1-0.1-0.2-0.1-0.3-0.2c-0.5,0.3-1.3,0.1-1.4-0.4c-0.1-0.3-0.2-0.5-0.3-0.8c-0.5-0.6-0.7-1.1-0.9-1.7c-0.5-0.8-1-1.5-1.4-2.3
				c-0.3-0.5-0.2-1,0.1-1.3c-2-3.1-5-7.6-3.9-11.5c0.8-2.9,2.6-5.1,4.9-6.7c0.1-0.1,0.1-0.2,0.2-0.4c0,0,0,0,0,0c0,0,0,0,0,0
				c0.1-0.1,0.1-0.2,0.2-0.4c0.4-0.6,1-0.7,1.6-0.5c0.5-0.3,1-0.5,1.5-0.7c0.3-0.2,0.7,0.3,0.4,0.6c-0.3,0.3-0.5,0.6-0.8,0.9
				c0.2,0.3,0.3,0.7,0.2,1.1c-1.2,4.7,0.3,9.4,4.4,12.2c3.8,2.6,7.4,2.9,11.9,3c0.4,0,0.9,0.3,1.1,0.6c0,0,0.1,0,0.1,0
				c0.3,0,0.5,0,0.7,0.1c0.9-0.4,1.8-0.9,2.6-1.5c0.1-0.1,0.2,0.1,0.2,0.2c0.2-0.1,0.5-0.1,0.7-0.2
				C186.4-61.3,187.5-59.1,186.1-58.1z M163.3-54.6c-0.1-0.1-0.2-0.2-0.2-0.3c-0.4,0-0.8-0.1-1.1-0.2c0,0.1,0,0.2,0,0.4
				c0.2,0.3,0.3,0.7,0.5,1C162.6-54,162.9-54.3,163.3-54.6z M160.6-65.8c0,0.3,0.1,0.5,0.1,0.8c1,1.7,2,3.3,2.7,5.1
				c0,0.1,0,0.2,0.1,0.3c0.6-0.2,1.2-0.3,1.8-0.4C163.3-61.5,161.7-63.5,160.6-65.8z M166.1-53.2c-0.3-0.2-0.6-0.4-1-0.6
				c-0.5,0.3-0.9,0.6-1.3,1C164.6-52.8,165.4-53,166.1-53.2z"/>
		</g>
		<g>
			<path d="M34.8-46.6c-1.7-0.7-3.4-0.5-5,0.3c-1.9,1-2.3,3.3-2.4,5.2c0,1,0.8,1.9,1.6,2.3c1.8,0.9,3.9,1.1,5.7,0.3c0,0,0,0,0,0
				c0.4,2.7,4.7,3.2,5,0.2C40.1-41.8,38.2-45.3,34.8-46.6z"/>
			<path d="M71.5-77c-0.1-0.5-0.3-1.1-0.8-1.4c-8.2-5.6-23.6,1.1-25.1,10.8c-0.3,1.7,1.1,3.1,2.7,3c3.6-0.2,6.8-1.9,9.8-3.8
				c1.2-0.7,2.5-1.7,3.8-2.5c0.3,1,1.2,1.9,2.4,1.6c1.6-0.3,2.9-1.1,4.2-2c0.2,0.1,0.4,0,0.5-0.2c0.1-0.1,0.2-0.3,0.3-0.4
				c0.7-0.6,1.4-1.3,2.1-1.9C72.5-74.6,72.3-76,71.5-77z"/>
			<path d="M141.1-133.9c-1.4-0.9-2.8-1.4-4.1-1.4c0-0.7-0.5-1.5-1.1-1.7c-6-2-10,2.2-13.2,7.1c-1.7,1-3.1,2.4-4,4.2
				c-0.3,0.7-0.1,1.3,0.3,1.8c-0.4,0.7-0.8,1.3-1.2,1.9c-1,1.5-0.2,4.3,2,3.8c8.4-1.7,15.5-6.5,21.6-12.4
				C142.3-131.3,142.1-133.3,141.1-133.9z"/>
			<path d="M138.7-98.6c-1,0.5-2,0.8-3.2,1c0.2,0.5,0.1,1-0.5,1.3c-1,0.5-1.8,0.7-2.9,0.4c-0.6-0.1-0.9-0.6-1.1-1
				c-0.6,0-0.9-0.4-1-0.9c-0.9,0-1.7-0.1-2.4-0.4c-0.6,0.8-1.1,1.8-1.3,3.1c-0.2,0.7-0.7,1.1-1.3,1.3c0.1,0.3,0.2,0.6,0.3,0.8
				c1,1.3,2.1,2.5,3.5,3.4c0.7,0.5,0.7,1.6,0.2,2.2c-1.9,2.2-5.4,5.5-9.1,8c-0.5,0.7-1,1.4-1.6,2c0.5,0.2,1,0.4,1.6,0.6
				c0.8,0.3,0.9,1.4,0.5,2c-2.4,3.2-5.9,3.5-9.6,3.1c-0.6-0.1-1-0.6-1.1-1.2c-0.2-1.4,0-2.5,0.4-3.6c-0.5-0.5-0.7-1.2-0.2-2
				c2.3-3.6,5.5-6.5,9.3-7.7c0.7-1.2,1.1-2.6,0.9-4.4c-0.8-6.9-1.5-12.1,5.4-15.5c0.8-0.4,1.3,0.5,1.1,1.1c0.1,0,0.2,0,0.3,0
				c2-1.8,5.8-0.4,8.1,1.4c0.5,0.3,0.8,0.8,0.8,1.3c0,0,0,0.1,0,0.1c0,0,0,0.1,0,0.1c0.4,0.3,0.6,0.8,0.6,1.3c0.7,0,1.3,0.2,1.9,0.5
				C139.1-99.7,139.3-98.9,138.7-98.6z M117.3-74.9c-0.3-0.1-0.5-0.2-0.8-0.4c-1.1,0.8-2.1,0.8-3.1-0.5
				C113.6-74.1,115.1-72.8,117.3-74.9z M125-88.6c-0.5,0.1-0.9,0-1.3-0.3c-0.2-0.2-0.3-0.3-0.4-0.5c0.1,1,0.1,2-0.3,2.9
				c0.4,0,0.7,0,1.1,0c0.6-0.5,1.1-1.1,1.6-1.6C125.4-88.2,125.2-88.4,125-88.6z"/>
			<path d="M79.8-87.8c-2.7,3.3-6.9,4.5-8.7-0.4c-0.3-1-0.6-2-0.8-3c-0.1-0.2-0.2-0.4-0.3-0.6c-2.1-1-4-2.6-3.1-4.8
				c0-0.1,0-0.2,0-0.3c-0.4,0.9-0.4,2,0.3,3.3c0.1,0.2,0.1,0.4-0.2,0.5c-0.6,0.3-1.2,0.4-1.7,0.6c0.1,0.9,0.1,1.9,0.1,2.9
				c0,2-2.5,2.4-3.3,0.7c0,0,0-0.1-0.1-0.1c-0.3,0.2-0.8,0.1-0.8-0.4c0-0.3-0.1-0.7-0.2-1c-0.6-0.1-1.2-0.2-1.8-0.3
				c0,0.1,0,0.2,0,0.3c-0.1,0.8-0.9,1.5-1.7,1.6c-0.7,0-1.4,0.1-2.1,0.5c-0.9,0.4-2.1-0.2-2.4-1.2c-0.3-1-0.6-2.1-0.9-3.2
				c-0.1,0-0.1,0-0.2-0.1c-1.1-0.5-2.2-1.3-2.6-2.5c-0.3,0.2-0.6,0.3-0.8,0.4c-1.1,0.6-2.3,1.2-3.4,1.9c-0.1,0.1-0.1,0.3-0.2,0.4
				c-0.3,0.5-0.8,0.8-1.3,0.9c0.1,1.2,0.4,2.4,0.7,3.5c0.5,1.6-1,2.8-2.5,2.3c-0.6-0.2-1.3-0.5-2-0.9c0,0.2,0,0.3,0,0.5
				c0,0.4-0.3,0.6-0.6,0.4c-3.3-1.1-4-4-3.4-6.8c-0.1-0.3-0.2-0.6-0.2-1c0.5-5.2,5.6-6.4,8.4-4.9c1.4-2.1,3.3-3.6,6.2-4
				c0.2,0,0.3,0,0.4,0c0-2.6,0.3-5.2,1.2-7.7c0.5-1.5,3.2-1.5,3.5,0.2c0.4,1.6,1.1,3.8,1.6,5.9c0.1,0,0.2,0.1,0.3,0.2
				c0.8,0.9,1.4,1.9,1.9,3c0,0,0,0,0,0c0.9-0.9,2.2-0.9,3,0.1c1.9,2.2,2.7,4.6,3.1,7.2c0.7-0.3,0.8-0.7,0.5-1.3
				c-0.2-0.5-0.6-1.2-0.5-1.8c0.1-1.5,0.5-2.6,1.5-3.8c0.7-0.8,1.6-1.4,2.6-1.9c0.3-0.3,0.7-0.6,1.2-0.8c0.6-0.3,1.4-0.4,2-0.1
				c0.6-0.1,1.2-0.1,1.8-0.1c0.4-0.8,1.3-1.3,2.6-1.3c0.9,0,1.2,1.5,0.4,1.9c-0.9,0.5,0.9,4.2,1.2,4.9c0.8,1.7-1.2,2.8-2.6,2.4
				c-0.6-0.2-1.2-0.3-1.9-0.3c-0.2,0.3-0.3,0.6-0.4,1c0,0.1,0,0.3,0,0.4c1,0.3,1.2,1.2,1,2.1c1.7,0.7,4.5,1.7,5.1,2.2
				C80.3-89.7,80.4-88.5,79.8-87.8z M57.1-98.5c-0.1-0.3-0.2-0.7-0.2-1c-0.1,0.3-0.1,0.7-0.3,0.9c-0.3,0.7-1,1.1-1.8,1.4
				c0.1,0.5,0.2,0.9,0.3,1.4c0.3,0.1,0.5,0.2,0.8,0.2c0.1,0,0.1,0,0.2,0C56.3-96.6,56.6-97.6,57.1-98.5z"/>
			<path d="M129.4-81.3c-1.7-0.7-3.4-0.5-5,0.3c-1.9,1-2.3,3.3-2.4,5.2c0,1,0.8,1.9,1.6,2.3c1.8,0.9,3.9,1.1,5.7,0.3c0,0,0,0,0,0
				c0.4,2.7,4.7,3.2,5,0.2C134.7-76.6,132.8-80.1,129.4-81.3z"/>
			<path d="M104.3-82.2c-6.6,0.4-13.5-4.3-14-11.3c-0.2-2.6,0.6-5.4,3.1-6.5c2.3-1,5.7-0.5,7.4,1.5c3.1,0.3,4.3,3.9,4.7,7.4
				c0.5,1.7,0.5,3.4,0.3,5.2c0,0.1,0.1,0.1,0.1,0.2C106.9-84.3,106.1-82.3,104.3-82.2z M100.4-87.1c-0.3-0.7-0.5-1.3-0.8-2
				c-0.1,0-0.2,0-0.4,0c-1-0.1-2-0.4-3-0.8C97.3-88.6,98.7-87.6,100.4-87.1z"/>
			<path d="M111.5-118c-0.1-0.1-0.2-0.1-0.3-0.2c-0.9-1.7-2.3-3.2-4-4.5c-2.1-4.8-6.2-8.4-12-7.6c-0.2,0-0.4,0-0.6,0.1
				c-1.4,0.4-2.1,2.2-1.1,3.3c-0.3,1.1-0.5,2.4-0.6,3.6c-0.2,0.4-0.3,0.8-0.1,1.3c-0.9,9.1,1,19.8,11.9,18.1
				c5.4-0.8,8.1-5.9,7.5-10.8C113-115.6,112.8-117.2,111.5-118z"/>
			<path d="M77.7-126.9c-2.1-0.3-5,0.8-7.3,0.4c0.5-0.6,0.3-1.8-0.5-2.2c-1.3-0.7-2.7-1.3-4.1-1.7c-0.8-0.9-1.6-1.7-2.8-2.3
				c-2.4-1.3-6.2,0.3-7.6,2.8c-0.3,0.1-0.5,0.2-0.8,0.3c-5.5,2.9-3.3,10.2,0.1,13.7c4.4,4.6,9.7,5.3,15,1.6
				c3.9-2.7,10.4,0.9,13.4-3.5C85.9-121.7,81.5-126.4,77.7-126.9z"/>
			<path d="M174.4-122.6c-2.7,3.3-6.9,4.5-8.7-0.4c-0.3-1-0.6-2-0.8-3c-0.1-0.2-0.2-0.4-0.3-0.6c-2.1-1-4-2.6-3.1-4.8
				c0-0.1,0-0.2,0-0.3c-0.4,0.9-0.4,2,0.3,3.3c0.1,0.2,0.1,0.4-0.2,0.5c-0.6,0.3-1.2,0.4-1.7,0.6c0.1,0.9,0.1,1.9,0.1,2.9
				c0,2-2.5,2.4-3.3,0.7c0,0,0-0.1-0.1-0.1c-0.3,0.2-0.8,0.1-0.8-0.4c0-0.3-0.1-0.7-0.2-1c-0.6-0.1-1.2-0.2-1.8-0.3
				c0,0.1,0,0.2,0,0.3c-0.1,0.8-0.9,1.5-1.7,1.6c-0.7,0-1.4,0.1-2.1,0.5c-0.9,0.4-2.1-0.2-2.4-1.2c-0.3-1-0.6-2.1-0.9-3.2
				c-0.1,0-0.1,0-0.2-0.1c-1.1-0.5-2.2-1.3-2.6-2.5c-0.3,0.2-0.6,0.3-0.8,0.4c-1.1,0.6-2.3,1.2-3.4,1.9c-0.1,0.1-0.1,0.3-0.2,0.4
				c-0.3,0.5-0.8,0.8-1.3,0.9c0.1,1.2,0.4,2.4,0.7,3.5c0.5,1.6-1,2.8-2.5,2.3c-0.6-0.2-1.3-0.5-2-0.9c0,0.2,0,0.3,0,0.5
				c0,0.4-0.3,0.6-0.6,0.4c-3.3-1.1-4-4-3.4-6.8c-0.1-0.3-0.2-0.6-0.2-1c0.5-5.2,5.6-6.4,8.4-5c1.4-2.1,3.3-3.6,6.2-4
				c0.2,0,0.3,0,0.4,0c0-2.6,0.3-5.2,1.2-7.7c0.5-1.5,3.2-1.5,3.5,0.2c0.4,1.6,1.1,3.8,1.6,5.9c0.1,0,0.2,0.1,0.3,0.2
				c0.8,0.9,1.4,1.9,1.9,3c0,0,0,0,0,0c0.9-0.9,2.2-0.9,3,0.1c1.9,2.2,2.7,4.6,3.1,7.2c0.7-0.3,0.8-0.7,0.5-1.3
				c-0.2-0.5-0.6-1.2-0.5-1.8c0.1-1.5,0.5-2.6,1.5-3.8c0.7-0.8,1.6-1.4,2.6-1.9c0.4-0.3,0.7-0.6,1.2-0.8c0.6-0.3,1.4-0.4,2-0.1
				c0.6-0.1,1.2-0.1,1.8-0.1c0.4-0.8,1.3-1.3,2.6-1.3c0.9,0,1.2,1.5,0.4,1.9c-0.9,0.5,0.9,4.2,1.2,4.9c0.8,1.7-1.2,2.8-2.6,2.4
				c-0.6-0.2-1.2-0.3-1.9-0.3c-0.2,0.3-0.3,0.6-0.4,1c0,0.1,0,0.3,0,0.4c1,0.3,1.2,1.2,1,2.1c1.7,0.7,4.5,1.7,5.1,2.2
				C174.9-124.4,174.9-123.3,174.4-122.6z M151.7-133.3c-0.1-0.3-0.2-0.7-0.2-1c-0.1,0.3-0.1,0.7-0.3,0.9c-0.3,0.7-1,1.1-1.8,1.4
				c0.1,0.5,0.2,0.9,0.3,1.4c0.3,0.1,0.5,0.2,0.8,0.2c0.1,0,0.1,0,0.2,0C150.9-131.3,151.2-132.3,151.7-133.3z"/>
			<path d="M56.1-58.1c-3,2.4-6.5,4.3-10.4,4.3c-0.1,0-0.2,0-0.3,0c-2.5,0.8-5,1.8-7.4,2.6c-1.5,0.5-3.6,1.3-5.2,0.5
				c-0.1-0.1-0.2-0.1-0.3-0.2c-0.5,0.3-1.3,0.1-1.4-0.4c-0.1-0.3-0.2-0.5-0.3-0.8c-0.5-0.6-0.7-1.1-0.9-1.7c-0.5-0.8-1-1.5-1.4-2.3
				c-0.3-0.5-0.2-1,0.1-1.3c-2-3.1-5-7.6-3.9-11.5c0.8-2.9,2.6-5.1,4.9-6.7c0.1-0.1,0.1-0.2,0.2-0.4c0,0,0,0,0,0c0,0,0,0,0,0
				c0.1-0.1,0.1-0.2,0.2-0.4c0.4-0.6,1-0.7,1.6-0.5c0.5-0.3,1-0.5,1.5-0.7c0.3-0.2,0.7,0.3,0.4,0.6c-0.3,0.3-0.5,0.6-0.8,0.9
				c0.2,0.3,0.3,0.7,0.2,1.1c-1.2,4.7,0.3,9.4,4.4,12.2c3.8,2.6,7.4,2.9,11.9,3c0.4,0,0.9,0.3,1.1,0.6c0,0,0.1,0,0.1,0
				c0.3,0,0.5,0,0.7,0.1c0.9-0.4,1.8-0.9,2.6-1.5c0.1-0.1,0.2,0.1,0.2,0.2c0.2-0.1,0.5-0.1,0.7-0.2C56.4-61.3,57.5-59.1,56.1-58.1z
				 M33.3-54.6c-0.1-0.1-0.2-0.2-0.2-0.3c-0.4,0-0.8-0.1-1.1-0.2c0,0.1,0,0.2,0,0.4c0.2,0.3,0.3,0.7,0.5,1
				C32.6-54,32.9-54.3,33.3-54.6z M30.6-65.8c0,0.3,0.1,0.5,0.1,0.8c1,1.7,2,3.3,2.7,5.1c0,0.1,0,0.2,0.1,0.3
				c0.6-0.2,1.2-0.3,1.8-0.4C33.3-61.5,31.7-63.5,30.6-65.8z M36.1-53.2c-0.3-0.2-0.6-0.4-1-0.6c-0.5,0.3-0.9,0.6-1.3,1
				C34.6-52.8,35.4-53,36.1-53.2z"/>
		</g>
		<g>
			<path d="M44.4-122.6c-2.7,3.3-6.9,4.5-8.7-0.4c-0.3-1-0.6-2-0.8-3c-0.1-0.2-0.2-0.4-0.3-0.6c-2.1-1-4-2.6-3.1-4.8
				c0-0.1,0-0.2,0-0.3c-0.4,0.9-0.4,2,0.3,3.3c0.1,0.2,0.1,0.4-0.2,0.5c-0.6,0.3-1.2,0.4-1.7,0.6c0.1,0.9,0.1,1.9,0.1,2.9
				c0,2-2.5,2.4-3.3,0.7c0,0,0-0.1-0.1-0.1c-0.3,0.2-0.8,0.1-0.8-0.4c0-0.3-0.1-0.7-0.2-1c-0.6-0.1-1.2-0.2-1.8-0.3
				c0,0.1,0,0.2,0,0.3c-0.1,0.8-0.9,1.5-1.7,1.6c-0.7,0-1.4,0.1-2.1,0.5c-0.9,0.4-2.1-0.2-2.4-1.2c-0.3-1-0.6-2.1-0.9-3.2
				c-0.1,0-0.1,0-0.2-0.1c-1.1-0.5-2.2-1.3-2.6-2.5c-0.3,0.2-0.6,0.3-0.8,0.4c-1.1,0.6-2.3,1.2-3.4,1.9c-0.1,0.1-0.1,0.3-0.2,0.4
				c-0.3,0.5-0.8,0.8-1.3,0.9c0.1,1.2,0.4,2.4,0.7,3.5c0.5,1.6-1,2.8-2.5,2.3c-0.6-0.2-1.3-0.5-2-0.9c0,0.2,0,0.3,0,0.5
				c0,0.4-0.3,0.6-0.6,0.4c-3.3-1.1-4-4-3.4-6.8c-0.1-0.3-0.2-0.6-0.2-1c0.5-5.2,5.6-6.4,8.4-5c1.4-2.1,3.3-3.6,6.2-4
				c0.2,0,0.3,0,0.4,0c0-2.6,0.3-5.2,1.2-7.7c0.5-1.5,3.2-1.5,3.5,0.2c0.4,1.6,1.1,3.8,1.6,5.9c0.1,0,0.2,0.1,0.3,0.2
				c0.8,0.9,1.4,1.9,1.9,3c0,0,0,0,0,0c0.9-0.9,2.2-0.9,3,0.1c1.9,2.2,2.7,4.6,3.1,7.2c0.7-0.3,0.8-0.7,0.5-1.3
				c-0.2-0.5-0.6-1.2-0.5-1.8c0.1-1.5,0.5-2.6,1.5-3.8c0.7-0.8,1.6-1.4,2.6-1.9c0.4-0.3,0.7-0.6,1.2-0.8c0.6-0.3,1.4-0.4,2-0.1
				c0.6-0.1,1.2-0.1,1.8-0.1c0.4-0.8,1.3-1.3,2.6-1.3c0.9,0,1.2,1.5,0.4,1.9c-0.9,0.5,0.9,4.2,1.2,4.9c0.8,1.7-1.2,2.8-2.6,2.4
				c-0.6-0.2-1.2-0.3-1.9-0.3c-0.2,0.3-0.3,0.6-0.4,1c0,0.1,0,0.3,0,0.4c1,0.3,1.2,1.2,1,2.1c1.7,0.7,4.5,1.7,5.1,2.2
				C44.9-124.4,44.9-123.3,44.4-122.6z M21.7-133.3c-0.1-0.3-0.2-0.7-0.2-1c-0.1,0.3-0.1,0.7-0.3,0.9c-0.3,0.7-1,1.1-1.8,1.4
				c0.1,0.5,0.2,0.9,0.3,1.4c0.3,0.1,0.5,0.2,0.8,0.2c0.1,0,0.1,0,0.2,0C20.9-131.3,21.2-132.3,21.7-133.3z"/>
		</g>
		<g>
			<path d="M99.8-117.9c-1.7-0.7-3.4-0.5-5,0.3c-1.9,1-2.3,3.3-2.4,5.2c0,1,0.8,1.9,1.6,2.3c1.8,0.9,3.9,1.1,5.7,0.3c0,0,0,0,0,0
				c0.4,2.7,4.7,3.2,5,0.2C105.1-113.2,103.2-116.7,99.8-117.9z"/>
			<path d="M136.5-148.3c-0.1-0.5-0.3-1.1-0.8-1.4c-8.2-5.6-23.6,1.1-25.1,10.8c-0.3,1.7,1.1,3.1,2.7,3c3.6-0.2,6.8-1.9,9.8-3.8
				c1.2-0.7,2.5-1.7,3.8-2.5c0.3,1,1.2,1.9,2.4,1.6c1.6-0.3,2.9-1.1,4.2-2c0.2,0.1,0.4,0,0.5-0.2c0.1-0.1,0.2-0.3,0.3-0.4
				c0.7-0.6,1.4-1.3,2.1-1.9C137.5-146,137.3-147.3,136.5-148.3z"/>
			<path d="M144.8-159.2c-2.7,3.3-6.9,4.5-8.7-0.4c-0.3-1-0.6-2-0.8-3c-0.1-0.2-0.2-0.4-0.3-0.6c-2.1-1-4-2.6-3.1-4.8
				c0-0.1,0-0.2,0-0.3c-0.4,0.9-0.4,2,0.3,3.3c0.1,0.2,0.1,0.4-0.2,0.5c-0.6,0.3-1.2,0.4-1.7,0.6c0.1,0.9,0.1,1.9,0.1,2.9
				c0,2-2.5,2.4-3.3,0.7c0,0,0-0.1-0.1-0.1c-0.3,0.2-0.8,0.1-0.8-0.4c0-0.3-0.1-0.7-0.2-1c-0.6-0.1-1.2-0.2-1.8-0.3
				c0,0.1,0,0.2,0,0.3c-0.1,0.8-0.9,1.5-1.7,1.6c-0.7,0-1.4,0.1-2.1,0.5c-0.9,0.4-2.1-0.2-2.4-1.2c-0.3-1-0.6-2.1-0.9-3.2
				c-0.1,0-0.1,0-0.2-0.1c-1.1-0.5-2.2-1.3-2.6-2.5c-0.3,0.2-0.6,0.3-0.8,0.4c-1.1,0.6-2.3,1.2-3.4,1.9c-0.1,0.1-0.1,0.3-0.2,0.4
				c-0.3,0.5-0.8,0.8-1.3,0.9c0.1,1.2,0.4,2.4,0.7,3.5c0.5,1.6-1,2.8-2.5,2.3c-0.6-0.2-1.3-0.5-2-0.9c0,0.2,0,0.3,0,0.5
				c0,0.4-0.3,0.6-0.6,0.4c-3.3-1.1-4-4-3.4-6.8c-0.1-0.3-0.2-0.6-0.2-1c0.5-5.2,5.6-6.4,8.4-4.9c1.4-2.1,3.3-3.6,6.2-4
				c0.2,0,0.3,0,0.4,0c0-2.6,0.3-5.2,1.2-7.7c0.5-1.5,3.2-1.5,3.5,0.2c0.4,1.6,1.1,3.8,1.6,5.9c0.1,0,0.2,0.1,0.3,0.2
				c0.8,0.9,1.4,1.9,1.9,3c0,0,0,0,0,0c0.9-0.9,2.2-0.9,3,0.1c1.9,2.2,2.7,4.6,3.1,7.2c0.7-0.3,0.8-0.7,0.5-1.3
				c-0.2-0.5-0.6-1.2-0.5-1.8c0.1-1.5,0.5-2.6,1.5-3.8c0.7-0.8,1.6-1.4,2.6-1.9c0.3-0.3,0.7-0.6,1.2-0.8c0.6-0.3,1.4-0.4,2-0.1
				c0.6-0.1,1.2-0.1,1.8-0.1c0.4-0.8,1.3-1.3,2.6-1.3c0.9,0,1.2,1.5,0.4,1.9c-0.9,0.5,0.9,4.2,1.2,4.9c0.8,1.7-1.2,2.8-2.6,2.4
				c-0.6-0.2-1.2-0.3-1.9-0.3c-0.2,0.3-0.3,0.6-0.4,1c0,0.1,0,0.3,0,0.4c1,0.3,1.2,1.2,1,2.1c1.7,0.7,4.5,1.7,5.1,2.2
				C145.3-161,145.4-159.9,144.8-159.2z M122.1-169.9c-0.1-0.3-0.2-0.7-0.2-1c-0.1,0.3-0.1,0.7-0.3,0.9c-0.3,0.7-1,1.1-1.8,1.4
				c0.1,0.5,0.2,0.9,0.3,1.4c0.3,0.1,0.5,0.2,0.8,0.2c0.1,0,0.1,0,0.2,0C121.3-167.9,121.6-168.9,122.1-169.9z"/>
			<path d="M169.3-153.5c-6.6,0.4-13.5-4.3-14-11.3c-0.2-2.6,0.6-5.4,3.1-6.5c2.3-1,5.7-0.5,7.4,1.5c3.1,0.3,4.3,3.9,4.7,7.4
				c0.5,1.7,0.5,3.4,0.3,5.2c0,0.1,0.1,0.1,0.1,0.2C171.9-155.6,171.1-153.6,169.3-153.5z M165.4-158.5c-0.3-0.7-0.5-1.3-0.8-2
				c-0.1,0-0.2,0-0.4,0c-1-0.1-2-0.4-3-0.8C162.3-160,163.7-159,165.4-158.5z"/>
			<path d="M121.1-129.4c-3,2.4-6.5,4.3-10.4,4.3c-0.1,0-0.2,0-0.3,0c-2.5,0.8-5,1.8-7.4,2.6c-1.5,0.5-3.6,1.3-5.2,0.5
				c-0.1-0.1-0.2-0.1-0.3-0.2c-0.5,0.3-1.3,0.1-1.4-0.4c-0.1-0.3-0.2-0.5-0.3-0.8c-0.5-0.6-0.7-1.1-0.9-1.7c-0.5-0.8-1-1.5-1.4-2.3
				c-0.3-0.5-0.2-1,0.1-1.3c-2-3.1-5-7.6-3.9-11.5c0.8-2.9,2.6-5.1,4.9-6.7c0.1-0.1,0.1-0.2,0.2-0.4c0,0,0,0,0,0c0,0,0,0,0,0
				c0.1-0.1,0.1-0.2,0.2-0.4c0.4-0.6,1-0.7,1.6-0.5c0.5-0.3,1-0.5,1.5-0.7c0.3-0.2,0.7,0.3,0.4,0.6c-0.3,0.3-0.5,0.6-0.8,0.9
				c0.2,0.3,0.3,0.7,0.2,1.1c-1.2,4.7,0.3,9.4,4.4,12.2c3.8,2.6,7.4,2.9,11.9,3c0.4,0,0.9,0.3,1.1,0.6c0,0,0.1,0,0.1,0
				c0.3,0,0.5,0,0.7,0.1c0.9-0.4,1.8-0.9,2.6-1.5c0.1-0.1,0.2,0.1,0.2,0.2c0.2-0.1,0.5-0.1,0.7-0.2
				C121.4-132.6,122.5-130.5,121.1-129.4z M98.3-125.9c-0.1-0.1-0.2-0.2-0.2-0.3c-0.4,0-0.8-0.1-1.1-0.2c0,0.1,0,0.2,0,0.4
				c0.2,0.3,0.3,0.7,0.5,1C97.6-125.3,97.9-125.6,98.3-125.9z M95.6-137.1c0,0.3,0.1,0.5,0.1,0.8c1,1.7,2,3.3,2.7,5.1
				c0,0.1,0,0.2,0.1,0.3c0.6-0.2,1.2-0.3,1.8-0.4C98.3-132.8,96.7-134.9,95.6-137.1z M101.1-124.6c-0.3-0.2-0.6-0.4-1-0.6
				c-0.5,0.3-0.9,0.6-1.3,1C99.6-124.1,100.4-124.3,101.1-124.6z"/>
		</g>
		<g>
			<path d="M73.7-169.9c-1,0.5-2,0.8-3.2,1c0.2,0.5,0.1,1-0.5,1.3c-1,0.5-1.8,0.7-2.9,0.4c-0.6-0.1-0.9-0.6-1.1-1
				c-0.6,0-0.9-0.4-1-0.9c-0.9,0-1.7-0.1-2.4-0.4c-0.6,0.8-1.1,1.8-1.3,3.1c-0.2,0.7-0.7,1.1-1.3,1.3c0.1,0.3,0.2,0.6,0.3,0.8
				c1,1.3,2.1,2.5,3.5,3.4c0.7,0.5,0.7,1.6,0.2,2.2c-1.9,2.2-5.4,5.5-9.1,8c-0.5,0.7-1,1.4-1.6,2c0.5,0.2,1,0.4,1.6,0.6
				c0.8,0.3,0.9,1.4,0.5,2c-2.4,3.2-5.9,3.5-9.6,3.1c-0.6-0.1-1-0.6-1.1-1.2c-0.2-1.4,0-2.5,0.4-3.6c-0.5-0.5-0.7-1.2-0.2-2
				c2.3-3.6,5.5-6.5,9.3-7.7c0.7-1.2,1.1-2.6,0.9-4.4c-0.8-6.9-1.5-12.1,5.4-15.5c0.8-0.4,1.3,0.5,1.1,1.1c0.1,0,0.2,0,0.3,0
				c2-1.8,5.8-0.4,8.1,1.4c0.5,0.3,0.8,0.8,0.8,1.3c0,0,0,0.1,0,0.1c0,0,0,0.1,0,0.1c0.4,0.3,0.6,0.8,0.6,1.3c0.7,0,1.3,0.2,1.9,0.5
				C74.1-171.1,74.3-170.2,73.7-169.9z M52.3-146.2c-0.3-0.1-0.5-0.2-0.8-0.4c-1.1,0.8-2.1,0.8-3.1-0.5
				C48.6-145.4,50.1-144.2,52.3-146.2z M60-159.9c-0.5,0.1-0.9,0-1.3-0.3c-0.2-0.2-0.3-0.3-0.4-0.5c0.1,1,0.1,2-0.3,2.9
				c0.4,0,0.7,0,1.1,0c0.6-0.5,1.1-1.1,1.6-1.6C60.4-159.6,60.2-159.8,60-159.9z"/>
			<path d="M64.4-152.7c-1.7-0.7-3.4-0.5-5,0.3c-1.9,1-2.3,3.3-2.4,5.2c0,1,0.8,1.9,1.6,2.3c1.8,0.9,3.9,1.1,5.7,0.3c0,0,0,0,0,0
				c0.4,2.7,4.7,3.2,5,0.2C69.7-147.9,67.8-151.4,64.4-152.7z"/>
			<path d="M39.3-153.5c-6.6,0.4-13.5-4.3-14-11.3c-0.2-2.6,0.6-5.4,3.1-6.5c2.3-1,5.7-0.5,7.4,1.5c3.1,0.3,4.3,3.9,4.7,7.4
				c0.5,1.7,0.5,3.4,0.3,5.2c0,0.1,0.1,0.1,0.1,0.2C41.9-155.6,41.1-153.6,39.3-153.5z M35.4-158.5c-0.3-0.7-0.5-1.3-0.8-2
				c-0.1,0-0.2,0-0.4,0c-1-0.1-2-0.4-3-0.8C32.3-160,33.7-159,35.4-158.5z"/>
		</g>
	</g>
</pattern>
<pattern  x="-429" y="-261" width="270" height="305.5" patternUnits="userSpaceOnUse" id="Nouveau_motif_4" viewBox="19.4 -332.5 270 305.5" overflow="visible">
	<g>
		<polygon fill="none" points="19.4,-332.5 289.4,-332.5 289.4,-27 19.4,-27 		"/>
		<g>
			<path fill="#FFFFFF" d="M310.1-64.9c-2.8,5.5-5.3,8.1-11.2,9.9c-4.1,1.3-9.7-0.8-11,4.2c-0.9,3.2-5.5,4.2-4.2,8.2
				c0.2,0.5,0.3,1,0.5,1.5c0.5,0.8,1.1,1.5,1.6,2.2c1.9-0.9,1.7-2.5,3-4c0.8-1,2.9-2,4.2-1.7c6.4,2,9.5,5.4,8.3,11.7
				c0.2,0.2,0.3,0.3,0.5,0.5c2-2.8,4.6-4.9,7.7-7.2c1.1-0.8,2.6-0.4,3.4,0.6c3,4.1,2.5,6.4,0.2,10.7c-1.5,2.7,8.6,9.6,7.6,14.5
				c-1.7,8.6-18.3-1.2-22.6-0.2c-1.5,0.4-3-0.4-3.2-2c-0.7-5.2,4-9.8,1.7-13.7c-0.7-0.7-1.4-1.4-2.1-2.1c-1.4-1.4-0.9-3.3,0.3-4.1
				c-1-3.4-2-3.6-2.9-0.6c-0.2,0.4-0.5,0.8-0.9,1.1c-0.9,0.8-1.4,1.2-2,1.5c1.4,3.9,1.1,7.1-0.8,10.7c6.2,5.9,11.9,13.8,7.8,19.8
				c-3.7,5.5-6.3,3.7-8.2,0c-0.8-0.7-1.5-1.6-2-2.5c-0.9-1.7-1.8-4.2-1.3-6.2c0-0.1,0-0.2,0.1-0.2c-0.6-1.9-1-3.4-1.5-4.2
				c-0.7-1.2,0-2.4,0.9-2.9c-2.2-2.1-4.6-4-7.1-5.6c-1.8-1.1-2.2-3.5-0.4-4.9c1.7-1.3-7.1-12.6-6.1-16.3c2-7,12.4-11.3,13.2-17.6
				c0.1-1.1,1.3-2.4,2.5-2.3c1.5,0,9.9,0.2,5.6-4.3c-1.1-1.1-1.4-2.7-0.3-4c1.4-1.7,3-4.1,5.4-4c1.7,0.1,2.8,0.9,3.1,2.6
				c0.3,1.5-0.4,3.9-1,6.1c0.6,1.5,0.7,3-0.1,4.5c0.9,0.6,3-0.1,7.4-3C308.1-70,311.4-67.5,310.1-64.9z M298.5-60.9
				c-1-0.3-2-0.8-3-1.5c-1.2,0.7-2.5,1-3.7,1.3c0.3,0.1,0.6,0.2,0.8,0.4C294.6-59.6,296.7-59.9,298.5-60.9z"/>
		</g>
		<g>
			<path fill="#FFFFFF" d="M248.8-59.6c-0.4,0.2-0.8,0.4-1.2,0.6c-1.2,0.6-1.8,1.5-1.8,2.9c0,0.2,0,0.4,0,0.7c0,0.3,0.1,0.5,0.2,0.7
				c0,0,0,0,0,0c-0.1-0.1-0.2-0.2-0.4-0.3c-3.1-1.2-6.3-1.5-9.4,0.2c-0.4,0.2-0.8,0.5-1.2,0.8c-1.4,0.4-2.8,1-4.1,1.8
				c-1.4,0.8-1.9,3.2-0.8,4.4c0.1,0.1,0.2,0.2,0.3,0.3c-0.3,0.4-0.6,0.9-0.9,1.3c-0.4,0.5,0.2,1.3,0.8,0.9c0.5-0.4,1-0.7,1.5-1
				c2.8,2,5.6,1.3,8.5,0.1c0.9,2.5,4.8,3.2,5.7,0.6c1,0.3,2,0.3,2.8-0.3c3.9-2.9,5.3-7.2,3.8-11.9C252.2-59.3,250.2-60.4,248.8-59.6
				z"/>
			<path fill="#FFFFFF" d="M241.9-116.1c-8.5-5.6-14.6-0.2-18,7.2c-10.5,11.8-0.5,29,7.6,39.2c0.8,1,2.2,1.4,3.2,0.6
				c1-0.8,1.8-1.6,2.6-2.4c0.7-0.1,1.3-0.7,1.1-1.4c0.1-0.2,0.3-0.3,0.4-0.5c0.4-0.5,0.4-1.4-0.1-1.8c-2.7-1.9-5-4.2-7.3-6.5
				c0,0,0,0,0-0.1c3.9-3.5,3.7-7.3,3.5-12.8c-0.1-3.9,4.5-5.2,4.2-8.4c0-0.3,0-0.6-0.1-0.9c0.9,0.4,2.1,0.3,3-0.6
				c3.3-3.2,2.6-6.1,0.4-7.6C243.2-113.4,243.4-115.2,241.9-116.1z"/>
			<path fill="#FFFFFF" d="M220.1-64.9c-2.8,5.5-5.3,8.1-11.2,9.9c-4.1,1.3-9.7-0.8-11,4.2c-0.9,3.2-5.5,4.2-4.2,8.2
				c0.2,0.5,0.3,1,0.5,1.5c0.5,0.8,1.1,1.5,1.6,2.2c1.9-0.9,1.7-2.5,3-4c0.8-1,2.9-2,4.2-1.7c6.4,2,9.5,5.4,8.3,11.7
				c0.2,0.2,0.3,0.3,0.5,0.5c2-2.8,4.6-4.9,7.7-7.2c1.1-0.8,2.6-0.4,3.4,0.6c3,4.1,2.5,6.4,0.2,10.7c-1.5,2.7,8.6,9.6,7.6,14.5
				c-1.7,8.6-18.3-1.2-22.6-0.2c-1.5,0.4-3-0.4-3.2-2c-0.7-5.2,4-9.8,1.7-13.7c-0.7-0.7-1.4-1.4-2.1-2.1c-1.4-1.4-0.9-3.3,0.3-4.1
				c-1-3.4-2-3.6-2.9-0.6c-0.2,0.4-0.5,0.8-0.9,1.1c-0.9,0.8-1.4,1.2-2,1.5c1.4,3.9,1.1,7.1-0.8,10.7c6.2,5.9,11.9,13.8,7.8,19.8
				c-3.7,5.5-6.3,3.7-8.2,0c-0.8-0.7-1.5-1.6-2-2.5c-0.9-1.7-1.8-4.2-1.3-6.2c0-0.1,0-0.2,0.1-0.2c-0.6-1.9-1-3.4-1.5-4.2
				c-0.7-1.2,0-2.4,0.9-2.9c-2.2-2.1-4.6-4-7.1-5.6c-1.8-1.1-2.2-3.5-0.4-4.9c1.7-1.3-7.1-12.6-6.1-16.3c2-7,12.4-11.3,13.2-17.6
				c0.1-1.1,1.3-2.4,2.5-2.3c1.5,0,9.9,0.2,5.6-4.3c-1.1-1.1-1.4-2.7-0.3-4c1.4-1.7,3-4.1,5.4-4c1.7,0.1,2.8,0.9,3.1,2.6
				c0.3,1.5-0.4,3.9-1,6.1c0.6,1.5,0.7,3-0.1,4.5c0.9,0.6,3-0.1,7.4-3C218.1-70,221.4-67.5,220.1-64.9z M208.5-60.9
				c-1-0.3-2-0.8-3-1.5c-1.2,0.7-2.5,1-3.7,1.3c0.3,0.1,0.6,0.2,0.8,0.4C204.6-59.6,206.7-59.9,208.5-60.9z"/>
		</g>
		<g>
			<path fill="#FFFFFF" d="M158.8-59.6c-0.4,0.2-0.8,0.4-1.2,0.6c-1.2,0.6-1.8,1.5-1.8,2.9c0,0.2,0,0.4,0,0.7c0,0.3,0.1,0.5,0.2,0.7
				c0,0,0,0,0,0c-0.1-0.1-0.2-0.2-0.4-0.3c-3.1-1.2-6.3-1.5-9.4,0.2c-0.4,0.2-0.8,0.5-1.2,0.8c-1.4,0.4-2.8,1-4.1,1.8
				c-1.4,0.8-1.9,3.2-0.8,4.4c0.1,0.1,0.2,0.2,0.3,0.3c-0.3,0.4-0.6,0.9-0.9,1.3c-0.4,0.5,0.2,1.3,0.8,0.9c0.5-0.4,1-0.7,1.5-1
				c2.8,2,5.6,1.3,8.5,0.1c0.9,2.5,4.8,3.2,5.7,0.6c1,0.3,2,0.3,2.8-0.3c3.9-2.9,5.3-7.2,3.8-11.9C162.2-59.3,160.2-60.4,158.8-59.6
				z"/>
			<path fill="#FFFFFF" d="M151.9-116.1c-8.5-5.6-14.6-0.2-18,7.2c-10.5,11.8-0.5,29,7.6,39.2c0.8,1,2.2,1.4,3.2,0.6
				c1-0.8,1.8-1.6,2.6-2.4c0.7-0.1,1.3-0.7,1.1-1.4c0.1-0.2,0.3-0.3,0.4-0.5c0.4-0.5,0.4-1.4-0.1-1.8c-2.7-1.9-5-4.2-7.3-6.5
				c0,0,0,0,0-0.1c3.9-3.5,3.7-7.3,3.5-12.8c-0.1-3.9,4.5-5.2,4.2-8.4c0-0.3,0-0.6-0.1-0.9c0.9,0.4,2.1,0.3,3-0.6
				c3.3-3.2,2.6-6.1,0.4-7.6C153.2-113.4,153.4-115.2,151.9-116.1z"/>
			<path fill="#FFFFFF" d="M130.1-64.9c-2.8,5.5-5.3,8.1-11.2,9.9c-4.1,1.3-9.7-0.8-11,4.2c-0.9,3.2-5.5,4.2-4.2,8.2
				c0.2,0.5,0.3,1,0.5,1.5c0.5,0.8,1.1,1.5,1.6,2.2c1.9-0.9,1.7-2.5,3-4c0.8-1,2.9-2,4.2-1.7c6.4,2,9.5,5.4,8.3,11.7
				c0.2,0.2,0.3,0.3,0.5,0.5c2-2.8,4.6-4.9,7.7-7.2c1.1-0.8,2.6-0.4,3.4,0.6c3,4.1,2.5,6.4,0.2,10.7c-1.5,2.7,8.6,9.6,7.6,14.5
				c-1.7,8.6-18.3-1.2-22.6-0.2c-1.5,0.4-3-0.4-3.2-2c-0.7-5.2,4-9.8,1.7-13.7c-0.7-0.7-1.4-1.4-2.1-2.1c-1.4-1.4-0.9-3.3,0.3-4.1
				c-1-3.4-2-3.6-2.9-0.6c-0.2,0.4-0.5,0.8-0.9,1.1c-0.9,0.8-1.4,1.2-2,1.5c1.4,3.9,1.1,7.1-0.8,10.7c6.2,5.9,11.9,13.8,7.8,19.8
				c-3.7,5.5-6.3,3.7-8.2,0c-0.8-0.7-1.5-1.6-2-2.5c-0.9-1.7-1.8-4.2-1.3-6.2c0-0.1,0-0.2,0.1-0.2c-0.6-1.9-1-3.4-1.5-4.2
				c-0.7-1.2,0-2.4,0.9-2.9c-2.2-2.1-4.6-4-7.1-5.6c-1.8-1.1-2.2-3.5-0.4-4.9c1.7-1.3-7.1-12.6-6.1-16.3c2-7,12.4-11.3,13.2-17.6
				c0.1-1.1,1.3-2.4,2.5-2.3c1.5,0,9.9,0.2,5.6-4.3c-1.1-1.1-1.4-2.7-0.3-4c1.4-1.7,3-4.1,5.4-4c1.7,0.1,2.8,0.9,3.1,2.6
				c0.3,1.5-0.4,3.9-1,6.1c0.6,1.5,0.7,3-0.1,4.5c0.9,0.6,3-0.1,7.4-3C128.1-70,131.4-67.5,130.1-64.9z M118.5-60.9
				c-1-0.3-2-0.8-3-1.5c-1.2,0.7-2.5,1-3.7,1.3c0.3,0.1,0.6,0.2,0.8,0.4C114.6-59.6,116.7-59.9,118.5-60.9z"/>
		</g>
		<g>
			<path fill="#FFFFFF" d="M68.8-59.6c-0.4,0.2-0.8,0.4-1.2,0.6c-1.2,0.6-1.8,1.5-1.8,2.9c0,0.2,0,0.4,0,0.7c0,0.3,0.1,0.5,0.2,0.7
				c0,0,0,0,0,0c-0.1-0.1-0.2-0.2-0.4-0.3c-3.1-1.2-6.3-1.5-9.4,0.2c-0.4,0.2-0.8,0.5-1.2,0.8c-1.4,0.4-2.8,1-4.1,1.8
				c-1.4,0.8-1.9,3.2-0.8,4.4c0.1,0.1,0.2,0.2,0.3,0.3c-0.3,0.4-0.6,0.9-0.9,1.3c-0.4,0.5,0.2,1.3,0.8,0.9c0.5-0.4,1-0.7,1.5-1
				c2.8,2,5.6,1.3,8.5,0.1c0.9,2.5,4.8,3.2,5.7,0.6c1,0.3,2,0.3,2.8-0.3c3.9-2.9,5.3-7.2,3.8-11.9C72.2-59.3,70.2-60.4,68.8-59.6z"
				/>
			<path fill="#FFFFFF" d="M61.9-116.1c-8.5-5.6-14.6-0.2-18,7.2c-10.5,11.8-0.5,29,7.6,39.2c0.8,1,2.2,1.4,3.2,0.6
				c1-0.8,1.8-1.6,2.6-2.4c0.7-0.1,1.3-0.7,1.1-1.4c0.1-0.2,0.3-0.3,0.4-0.5c0.4-0.5,0.4-1.4-0.1-1.8c-2.7-1.9-5-4.2-7.3-6.5
				c0,0,0,0,0-0.1c3.9-3.5,3.7-7.3,3.5-12.8c-0.1-3.9,4.5-5.2,4.2-8.4c0-0.3,0-0.6-0.1-0.9c0.9,0.4,2.1,0.3,3-0.6
				c3.3-3.2,2.6-6.1,0.4-7.6C63.2-113.4,63.4-115.2,61.9-116.1z"/>
			<path fill="#FFFFFF" d="M40.1-64.9c-2.8,5.5-5.3,8.1-11.2,9.9c-4.1,1.3-9.7-0.8-11,4.2c-0.9,3.2-5.5,4.2-4.2,8.2
				c0.2,0.5,0.3,1,0.5,1.5c0.5,0.8,1.1,1.5,1.6,2.2c1.9-0.9,1.7-2.5,3-4c0.8-1,2.9-2,4.2-1.7c6.4,2,9.5,5.4,8.3,11.7
				c0.2,0.2,0.3,0.3,0.5,0.5c2-2.8,4.6-4.9,7.7-7.2c1.1-0.8,2.6-0.4,3.4,0.6c3,4.1,2.5,6.4,0.2,10.7c-1.5,2.7,8.6,9.6,7.6,14.5
				c-1.7,8.6-18.3-1.2-22.6-0.2c-1.5,0.4-3-0.4-3.2-2c-0.7-5.2,4-9.8,1.7-13.7c-0.7-0.7-1.4-1.4-2.1-2.1c-1.4-1.4-0.9-3.3,0.3-4.1
				c-1-3.4-2-3.6-2.9-0.6c-0.2,0.4-0.5,0.8-0.9,1.1c-0.9,0.8-1.4,1.2-2,1.5c1.4,3.9,1.1,7.1-0.8,10.7c6.2,5.9,11.9,13.8,7.8,19.8
				c-3.7,5.5-6.3,3.7-8.2,0c-0.8-0.7-1.5-1.6-2-2.5c-0.9-1.7-1.8-4.2-1.3-6.2c0-0.1,0-0.2,0.1-0.2c-0.6-1.9-1-3.4-1.5-4.2
				c-0.7-1.2,0-2.4,0.9-2.9c-2.2-2.1-4.6-4-7.1-5.6c-1.8-1.1-2.2-3.5-0.4-4.9C7.9-31.3-1-42.6,0.1-46.3c2-7,12.4-11.3,13.2-17.6
				c0.1-1.1,1.3-2.4,2.5-2.3c1.5,0,9.9,0.2,5.6-4.3c-1.1-1.1-1.4-2.7-0.3-4c1.4-1.7,3-4.1,5.4-4c1.7,0.1,2.8,0.9,3.1,2.6
				c0.3,1.5-0.4,3.9-1,6.1c0.6,1.5,0.7,3-0.1,4.5c0.9,0.6,3-0.1,7.4-3C38.1-70,41.4-67.5,40.1-64.9z M28.5-60.9c-1-0.3-2-0.8-3-1.5
				c-1.2,0.7-2.5,1-3.7,1.3c0.3,0.1,0.6,0.2,0.8,0.4C24.6-59.6,26.7-59.9,28.5-60.9z"/>
		</g>
		<g>
			<path fill="#FFFFFF" d="M307-129.7c-1.4,1.1-2.6,2.3-3.7,3.6c-0.8,0.1-1.5,0.6-1.8,1.5c-0.2,0.5-0.3,0.9-0.5,1.4
				c-1.4,2-2.7,4.2-4.1,6.3c-2.2,3.3-5.5,4.9-8.9,6.5c-0.2,0-0.3,0-0.5,0.1c-0.6,0.3-1.1,0.5-1.6,0.9c0.9-1.3,2-2.6,3.2-3.7
				c0.4-0.4-0.1-1.2-0.7-1c-6.2,2.8-9.5,8.8-7.5,15.6c1.1,3.9,5.9,12.9,11.5,9.4c6.7-4.1,7.1-14.6,11.5-20.7
				c4.3-5.9,8.9-11.6,5.5-19.1C309.2-129.8,307.9-130.4,307-129.7z"/>
		</g>
		<g>
			<path fill="#FFFFFF" d="M293.8-212.4c-0.4,0.2-0.8,0.4-1.2,0.6c-1.2,0.6-1.8,1.5-1.8,2.9c0,0.2,0,0.4,0,0.7
				c0,0.3,0.1,0.5,0.2,0.7c0,0,0,0,0,0c-0.1-0.1-0.2-0.2-0.4-0.3c-3.1-1.2-6.3-1.5-9.4,0.2c-0.4,0.2-0.8,0.5-1.2,0.8
				c-1.4,0.4-2.8,1-4.1,1.8c-1.4,0.8-1.9,3.2-0.8,4.4c0.1,0.1,0.2,0.2,0.3,0.3c-0.3,0.4-0.6,0.9-0.9,1.3c-0.4,0.5,0.2,1.3,0.8,0.9
				c0.5-0.4,1-0.7,1.5-1c2.8,2,5.6,1.3,8.5,0.1c0.9,2.5,4.8,3.2,5.7,0.6c1,0.3,2,0.3,2.8-0.3c3.9-2.9,5.3-7.2,3.8-11.9
				C297.2-212,295.2-213.1,293.8-212.4z"/>
			<path fill="#FFFFFF" d="M233.8-156.6c-0.1-0.8-0.5-1.7-1.2-2.2c-1.1-0.7-2.1-1-3.4-0.6c-0.8,0.3-1.6,1-2.1,1.6
				c-1.3,0-2.5,0.9-3.2,2c-0.9,1.4-1.2,2.8-0.7,4.5c0.4,1.4,1.6,2.1,2.9,2.4c1.9,2,5.5,1.9,8,1.4c2.6-0.5,4-3.1,2.5-5.4
				c-0.8-1.2-1.7-2.1-2.7-2.8c0-0.1-0.1-0.2-0.1-0.3C234-155.8,233.8-156.6,233.8-156.6z"/>
			<path fill="#FFFFFF" d="M286.9-268.9c-8.5-5.6-14.6-0.2-18,7.2c-10.5,11.8-0.5,29,7.6,39.2c0.8,1,2.2,1.4,3.2,0.6
				c1-0.8,1.8-1.6,2.6-2.4c0.7-0.1,1.3-0.7,1.1-1.4c0.1-0.2,0.3-0.3,0.4-0.5c0.4-0.5,0.4-1.4-0.1-1.8c-2.7-1.9-5-4.2-7.3-6.5
				c0,0,0,0,0-0.1c3.9-3.5,3.7-7.3,3.5-12.8c-0.1-3.9,4.5-5.2,4.2-8.4c0-0.3,0-0.6-0.1-0.9c0.9,0.4,2.1,0.3,3-0.6
				c3.3-3.2,2.6-6.1,0.4-7.6C288.2-266.2,288.4-267.9,286.9-268.9z"/>
			<path fill="#FFFFFF" d="M265.1-217.6c-2.8,5.5-5.3,8.1-11.2,9.9c-4.1,1.3-9.7-0.8-11,4.2c-0.9,3.2-5.5,4.2-4.2,8.2
				c0.2,0.5,0.3,1,0.5,1.5c0.5,0.8,1.1,1.5,1.6,2.2c1.9-0.9,1.7-2.5,3-4c0.8-1,2.9-2,4.2-1.7c6.4,2,9.5,5.4,8.3,11.7
				c0.2,0.2,0.3,0.3,0.5,0.5c2-2.8,4.6-4.9,7.7-7.2c1.1-0.8,2.6-0.4,3.4,0.6c3,4.1,2.5,6.4,0.2,10.7c-1.5,2.7,8.6,9.6,7.6,14.5
				c-1.7,8.6-18.3-1.2-22.6-0.2c-1.5,0.4-3-0.4-3.2-2c-0.7-5.2,4-9.8,1.7-13.7c-0.7-0.7-1.4-1.4-2.1-2.1c-1.4-1.4-0.9-3.3,0.3-4.1
				c-1-3.4-2-3.6-2.9-0.6c-0.2,0.4-0.5,0.8-0.9,1.1c-0.9,0.8-1.4,1.2-2,1.5c1.4,3.9,1.1,7.1-0.8,10.7c6.2,5.9,11.9,13.8,7.8,19.8
				c-3.7,5.5-6.3,3.7-8.2,0c-0.8-0.7-1.5-1.6-2-2.5c-0.9-1.7-1.8-4.2-1.3-6.2c0-0.1,0-0.2,0.1-0.2c-0.6-1.9-1-3.4-1.5-4.2
				c-0.7-1.2,0-2.4,0.9-2.9c-2.2-2.1-4.6-4-7.1-5.6c-1.8-1.1-2.2-3.5-0.4-4.9c1.7-1.3-7.1-12.6-6.1-16.3c2-7,12.4-11.3,13.2-17.6
				c0.1-1.1,1.3-2.4,2.5-2.3c1.5,0,9.9,0.2,5.6-4.3c-1.1-1.1-1.4-2.7-0.3-4c1.4-1.7,3-4.1,5.4-4c1.7,0.1,2.8,0.9,3.1,2.6
				c0.3,1.5-0.4,3.9-1,6.1c0.6,1.5,0.7,3-0.1,4.5c0.9,0.6,3-0.1,7.4-3C263.1-222.8,266.4-220.3,265.1-217.6z M253.5-213.6
				c-1-0.3-2-0.8-3-1.5c-1.2,0.7-2.5,1-3.7,1.3c0.3,0.1,0.6,0.2,0.8,0.4C249.6-212.3,251.7-212.7,253.5-213.6z"/>
			<path fill="#FFFFFF" d="M292.5-157.7c2.1,3.7-0.3,7.1-2.7,10.1c-2.5,3.1-5.6,7-9.5,8.5c-1.2,0.5-2.8-0.2-3.2-1.5
				c-1.4-4.3-3.5-9.7-1.1-14.2c1.4-2.6,3.4-4.1,5.8-5.7c1-0.6,1.4-1.7,2.7-1.6c0.9,0.1,1.5,1.2,1.1,2c0.1,0,0.2,0.1,0.3,0.1
				c0,0.1,0.1,0.2,0.1,0.3C288.4-160.4,291.1-160.2,292.5-157.7z M287.1-154.7c0,1.1-0.1,2.2-0.4,3.3c0.7-1,1.2-2,1.6-2.9
				C288.8-155.4,288-155.2,287.1-154.7z"/>
			<path fill="#FFFFFF" d="M217-129.7c-1.4,1.1-2.6,2.3-3.7,3.6c-0.8,0.1-1.5,0.6-1.8,1.5c-0.2,0.5-0.3,0.9-0.5,1.4
				c-1.4,2-2.7,4.2-4.1,6.3c-2.2,3.3-5.5,4.9-8.9,6.5c-0.2,0-0.3,0-0.5,0.1c-0.6,0.3-1.1,0.5-1.6,0.9c0.9-1.3,2-2.6,3.2-3.7
				c0.4-0.4-0.1-1.2-0.7-1c-6.2,2.8-9.5,8.8-7.5,15.6c1.1,3.9,5.9,12.9,11.5,9.4c6.7-4.1,7.1-14.6,11.5-20.7
				c4.3-5.9,8.9-11.6,5.5-19.1C219.2-129.8,217.9-130.4,217-129.7z"/>
			<path fill="#FFFFFF" d="M227.1-139.5c-0.2,0-0.3,0-0.5,0c0,0,0,0-0.1,0c0.1-0.5,0.2-1,0.2-1.5c0-0.2-0.2-0.4-0.4-0.4
				c-2.4-0.5-3.2,2.9-3.4,4.7c-0.3,3,0.8,6.3,2.6,8.7c4.4,5.7,15.3,1.5,14.9-5.6C240.2-139.5,231.6-142.6,227.1-139.5z"/>
		</g>
		<g>
			<path fill="#FFFFFF" d="M203.8-212.4c-0.4,0.2-0.8,0.4-1.2,0.6c-1.2,0.6-1.8,1.5-1.8,2.9c0,0.2,0,0.4,0,0.7
				c0,0.3,0.1,0.5,0.2,0.7c0,0,0,0,0,0c-0.1-0.1-0.2-0.2-0.4-0.3c-3.1-1.2-6.3-1.5-9.4,0.2c-0.4,0.2-0.8,0.5-1.2,0.8
				c-1.4,0.4-2.8,1-4.1,1.8c-1.4,0.8-1.9,3.2-0.8,4.4c0.1,0.1,0.2,0.2,0.3,0.3c-0.3,0.4-0.6,0.9-0.9,1.3c-0.4,0.5,0.2,1.3,0.8,0.9
				c0.5-0.4,1-0.7,1.5-1c2.8,2,5.6,1.3,8.5,0.1c0.9,2.5,4.8,3.2,5.7,0.6c1,0.3,2,0.3,2.8-0.3c3.9-2.9,5.3-7.2,3.8-11.9
				C207.2-212,205.2-213.1,203.8-212.4z"/>
			<path fill="#FFFFFF" d="M143.8-156.6c-0.1-0.8-0.5-1.7-1.2-2.2c-1.1-0.7-2.1-1-3.4-0.6c-0.8,0.3-1.6,1-2.1,1.6
				c-1.3,0-2.5,0.9-3.2,2c-0.9,1.4-1.2,2.8-0.7,4.5c0.4,1.4,1.6,2.1,2.9,2.4c1.9,2,5.5,1.9,8,1.4c2.6-0.5,4-3.1,2.5-5.4
				c-0.8-1.2-1.7-2.1-2.7-2.8c0-0.1-0.1-0.2-0.1-0.3C144-155.8,143.8-156.6,143.8-156.6z"/>
			<path fill="#FFFFFF" d="M196.9-268.9c-8.5-5.6-14.6-0.2-18,7.2c-10.5,11.8-0.5,29,7.6,39.2c0.8,1,2.2,1.4,3.2,0.6
				c1-0.8,1.8-1.6,2.6-2.4c0.7-0.1,1.3-0.7,1.1-1.4c0.1-0.2,0.3-0.3,0.4-0.5c0.4-0.5,0.4-1.4-0.1-1.8c-2.7-1.9-5-4.2-7.3-6.5
				c0,0,0,0,0-0.1c3.9-3.5,3.7-7.3,3.5-12.8c-0.1-3.9,4.5-5.2,4.2-8.4c0-0.3,0-0.6-0.1-0.9c0.9,0.4,2.1,0.3,3-0.6
				c3.3-3.2,2.6-6.1,0.4-7.6C198.2-266.2,198.4-267.9,196.9-268.9z"/>
			<path fill="#FFFFFF" d="M175.1-217.6c-2.8,5.5-5.3,8.1-11.2,9.9c-4.1,1.3-9.7-0.8-11,4.2c-0.9,3.2-5.5,4.2-4.2,8.2
				c0.2,0.5,0.3,1,0.5,1.5c0.5,0.8,1.1,1.5,1.6,2.2c1.9-0.9,1.7-2.5,3-4c0.8-1,2.9-2,4.2-1.7c6.4,2,9.5,5.4,8.3,11.7
				c0.2,0.2,0.3,0.3,0.5,0.5c2-2.8,4.6-4.9,7.7-7.2c1.1-0.8,2.6-0.4,3.4,0.6c3,4.1,2.5,6.4,0.2,10.7c-1.5,2.7,8.6,9.6,7.6,14.5
				c-1.7,8.6-18.3-1.2-22.6-0.2c-1.5,0.4-3-0.4-3.2-2c-0.7-5.2,4-9.8,1.7-13.7c-0.7-0.7-1.4-1.4-2.1-2.1c-1.4-1.4-0.9-3.3,0.3-4.1
				c-1-3.4-2-3.6-2.9-0.6c-0.2,0.4-0.5,0.8-0.9,1.1c-0.9,0.8-1.4,1.2-2,1.5c1.4,3.9,1.1,7.1-0.8,10.7c6.2,5.9,11.9,13.8,7.8,19.8
				c-3.7,5.5-6.3,3.7-8.2,0c-0.8-0.7-1.5-1.6-2-2.5c-0.9-1.7-1.8-4.2-1.3-6.2c0-0.1,0-0.2,0.1-0.2c-0.6-1.9-1-3.4-1.5-4.2
				c-0.7-1.2,0-2.4,0.9-2.9c-2.2-2.1-4.6-4-7.1-5.6c-1.8-1.1-2.2-3.5-0.4-4.9c1.7-1.3-7.1-12.6-6.1-16.3c2-7,12.4-11.3,13.2-17.6
				c0.1-1.1,1.3-2.4,2.5-2.3c1.5,0,9.9,0.2,5.6-4.3c-1.1-1.1-1.4-2.7-0.3-4c1.4-1.7,3-4.1,5.4-4c1.7,0.1,2.8,0.9,3.1,2.6
				c0.3,1.5-0.4,3.9-1,6.1c0.6,1.5,0.7,3-0.1,4.5c0.9,0.6,3-0.1,7.4-3C173.1-222.8,176.4-220.3,175.1-217.6z M163.5-213.6
				c-1-0.3-2-0.8-3-1.5c-1.2,0.7-2.5,1-3.7,1.3c0.3,0.1,0.6,0.2,0.8,0.4C159.6-212.3,161.7-212.7,163.5-213.6z"/>
			<path fill="#FFFFFF" d="M202.5-157.7c2.1,3.7-0.3,7.1-2.7,10.1c-2.5,3.1-5.6,7-9.5,8.5c-1.2,0.5-2.8-0.2-3.2-1.5
				c-1.4-4.3-3.5-9.7-1.1-14.2c1.4-2.6,3.4-4.1,5.8-5.7c1-0.6,1.4-1.7,2.7-1.6c0.9,0.1,1.5,1.2,1.1,2c0.1,0,0.2,0.1,0.3,0.1
				c0,0.1,0.1,0.2,0.1,0.3C198.4-160.4,201.1-160.2,202.5-157.7z M197.1-154.7c0,1.1-0.1,2.2-0.4,3.3c0.7-1,1.2-2,1.6-2.9
				C198.8-155.4,198-155.2,197.1-154.7z"/>
			<path fill="#FFFFFF" d="M127-129.7c-1.4,1.1-2.6,2.3-3.7,3.6c-0.8,0.1-1.5,0.6-1.8,1.5c-0.2,0.5-0.3,0.9-0.5,1.4
				c-1.4,2-2.7,4.2-4.1,6.3c-2.2,3.3-5.5,4.9-8.9,6.5c-0.2,0-0.3,0-0.5,0.1c-0.6,0.3-1.1,0.5-1.6,0.9c0.9-1.3,2-2.6,3.2-3.7
				c0.4-0.4-0.1-1.2-0.7-1c-6.2,2.8-9.5,8.8-7.5,15.6c1.1,3.9,5.9,12.9,11.5,9.4c6.7-4.1,7.1-14.6,11.5-20.7
				c4.3-5.9,8.9-11.6,5.5-19.1C129.2-129.8,127.9-130.4,127-129.7z"/>
			<path fill="#FFFFFF" d="M137.1-139.5c-0.2,0-0.3,0-0.5,0c0,0,0,0-0.1,0c0.1-0.5,0.2-1,0.2-1.5c0-0.2-0.2-0.4-0.4-0.4
				c-2.4-0.5-3.2,2.9-3.4,4.7c-0.3,3,0.8,6.3,2.6,8.7c4.4,5.7,15.3,1.5,14.9-5.6C150.2-139.5,141.6-142.6,137.1-139.5z"/>
		</g>
		<g>
			<path fill="#FFFFFF" d="M113.8-212.4c-0.4,0.2-0.8,0.4-1.2,0.6c-1.2,0.6-1.8,1.5-1.8,2.9c0,0.2,0,0.4,0,0.7
				c0,0.3,0.1,0.5,0.2,0.7c0,0,0,0,0,0c-0.1-0.1-0.2-0.2-0.4-0.3c-3.1-1.2-6.3-1.5-9.4,0.2c-0.4,0.2-0.8,0.5-1.2,0.8
				c-1.4,0.4-2.8,1-4.1,1.8c-1.4,0.8-1.9,3.2-0.8,4.4c0.1,0.1,0.2,0.2,0.3,0.3c-0.3,0.4-0.6,0.9-0.9,1.3c-0.4,0.5,0.2,1.3,0.8,0.9
				c0.5-0.4,1-0.7,1.5-1c2.8,2,5.6,1.3,8.5,0.1c0.9,2.5,4.8,3.2,5.7,0.6c1,0.3,2,0.3,2.8-0.3c3.9-2.9,5.3-7.2,3.8-11.9
				C117.2-212,115.2-213.1,113.8-212.4z"/>
			<path fill="#FFFFFF" d="M53.8-156.6c-0.1-0.8-0.5-1.7-1.2-2.2c-1.1-0.7-2.1-1-3.4-0.6c-0.8,0.3-1.6,1-2.1,1.6
				c-1.3,0-2.5,0.9-3.2,2c-0.9,1.4-1.2,2.8-0.7,4.5c0.4,1.4,1.6,2.1,2.9,2.4c1.9,2,5.5,1.9,8,1.4c2.6-0.5,4-3.1,2.5-5.4
				c-0.8-1.2-1.7-2.1-2.7-2.8c0-0.1-0.1-0.2-0.1-0.3C54-155.8,53.8-156.6,53.8-156.6z"/>
			<path fill="#FFFFFF" d="M106.9-268.9c-8.5-5.6-14.6-0.2-18,7.2c-10.5,11.8-0.5,29,7.6,39.2c0.8,1,2.2,1.4,3.2,0.6
				c1-0.8,1.8-1.6,2.6-2.4c0.7-0.1,1.3-0.7,1.1-1.4c0.1-0.2,0.3-0.3,0.4-0.5c0.4-0.5,0.4-1.4-0.1-1.8c-2.7-1.9-5-4.2-7.3-6.5
				c0,0,0,0,0-0.1c3.9-3.5,3.7-7.3,3.5-12.8c-0.1-3.9,4.5-5.2,4.2-8.4c0-0.3,0-0.6-0.1-0.9c0.9,0.4,2.1,0.3,3-0.6
				c3.3-3.2,2.6-6.1,0.4-7.6C108.2-266.2,108.4-267.9,106.9-268.9z"/>
			<path fill="#FFFFFF" d="M85.1-217.6c-2.8,5.5-5.3,8.1-11.2,9.9c-4.1,1.3-9.7-0.8-11,4.2c-0.9,3.2-5.5,4.2-4.2,8.2
				c0.2,0.5,0.3,1,0.5,1.5c0.5,0.8,1.1,1.5,1.6,2.2c1.9-0.9,1.7-2.5,3-4c0.8-1,2.9-2,4.2-1.7c6.4,2,9.5,5.4,8.3,11.7
				c0.2,0.2,0.3,0.3,0.5,0.5c2-2.8,4.6-4.9,7.7-7.2c1.1-0.8,2.6-0.4,3.4,0.6c3,4.1,2.5,6.4,0.2,10.7c-1.5,2.7,8.6,9.6,7.6,14.5
				c-1.7,8.6-18.3-1.2-22.6-0.2c-1.5,0.4-3-0.4-3.2-2c-0.7-5.2,4-9.8,1.7-13.7c-0.7-0.7-1.4-1.4-2.1-2.1c-1.4-1.4-0.9-3.3,0.3-4.1
				c-1-3.4-2-3.6-2.9-0.6c-0.2,0.4-0.5,0.8-0.9,1.1c-0.9,0.8-1.4,1.2-2,1.5c1.4,3.9,1.1,7.1-0.8,10.7c6.2,5.9,11.9,13.8,7.8,19.8
				c-3.7,5.5-6.3,3.7-8.2,0c-0.8-0.7-1.5-1.6-2-2.5c-0.9-1.7-1.8-4.2-1.3-6.2c0-0.1,0-0.2,0.1-0.2c-0.6-1.9-1-3.4-1.5-4.2
				c-0.7-1.2,0-2.4,0.9-2.9c-2.2-2.1-4.6-4-7.1-5.6c-1.8-1.1-2.2-3.5-0.4-4.9c1.7-1.3-7.1-12.6-6.1-16.3c2-7,12.4-11.3,13.2-17.6
				c0.1-1.1,1.3-2.4,2.5-2.3c1.5,0,9.9,0.2,5.6-4.3c-1.1-1.1-1.4-2.7-0.3-4c1.4-1.7,3-4.1,5.4-4c1.7,0.1,2.8,0.9,3.1,2.6
				c0.3,1.5-0.4,3.9-1,6.1c0.6,1.5,0.7,3-0.1,4.5c0.9,0.6,3-0.1,7.4-3C83.1-222.8,86.4-220.3,85.1-217.6z M73.5-213.6
				c-1-0.3-2-0.8-3-1.5c-1.2,0.7-2.5,1-3.7,1.3c0.3,0.1,0.6,0.2,0.8,0.4C69.6-212.3,71.7-212.7,73.5-213.6z"/>
			<path fill="#FFFFFF" d="M112.5-157.7c2.1,3.7-0.3,7.1-2.7,10.1c-2.5,3.1-5.6,7-9.5,8.5c-1.2,0.5-2.8-0.2-3.2-1.5
				c-1.4-4.3-3.5-9.7-1.1-14.2c1.4-2.6,3.4-4.1,5.8-5.7c1-0.6,1.4-1.7,2.7-1.6c0.9,0.1,1.5,1.2,1.1,2c0.1,0,0.2,0.1,0.3,0.1
				c0,0.1,0.1,0.2,0.1,0.3C108.4-160.4,111.1-160.2,112.5-157.7z M107.1-154.7c0,1.1-0.1,2.2-0.4,3.3c0.7-1,1.2-2,1.6-2.9
				C108.8-155.4,108-155.2,107.1-154.7z"/>
			<path fill="#FFFFFF" d="M37-129.7c-1.4,1.1-2.6,2.3-3.7,3.6c-0.8,0.1-1.5,0.6-1.8,1.5c-0.2,0.5-0.3,0.9-0.5,1.4
				c-1.4,2-2.7,4.2-4.1,6.3c-2.2,3.3-5.5,4.9-8.9,6.5c-0.2,0-0.3,0-0.5,0.1c-0.6,0.3-1.1,0.5-1.6,0.9c0.9-1.3,2-2.6,3.2-3.7
				c0.4-0.4-0.1-1.2-0.7-1c-6.2,2.8-9.5,8.8-7.5,15.6c1.1,3.9,5.9,12.9,11.5,9.4c6.7-4.1,7.1-14.6,11.5-20.7
				c4.3-5.9,8.9-11.6,5.5-19.1C39.2-129.8,37.9-130.4,37-129.7z"/>
			<path fill="#FFFFFF" d="M47.1-139.5c-0.2,0-0.3,0-0.5,0c0,0,0,0-0.1,0c0.1-0.5,0.2-1,0.2-1.5c0-0.2-0.2-0.4-0.4-0.4
				c-2.4-0.5-3.2,2.9-3.4,4.7c-0.3,3,0.8,6.3,2.6,8.7c4.4,5.7,15.3,1.5,14.9-5.6C60.2-139.5,51.6-142.6,47.1-139.5z"/>
		</g>
		<g>
			<path fill="#FFFFFF" d="M23.8-212.4c-0.4,0.2-0.8,0.4-1.2,0.6c-1.2,0.6-1.8,1.5-1.8,2.9c0,0.2,0,0.4,0,0.7c0,0.3,0.1,0.5,0.2,0.7
				c0,0,0,0,0,0c-0.1-0.1-0.2-0.2-0.4-0.3c-3.1-1.2-6.3-1.5-9.4,0.2c-0.4,0.2-0.8,0.5-1.2,0.8c-1.4,0.4-2.8,1-4.1,1.8
				c-1.4,0.8-1.9,3.2-0.8,4.4c0.1,0.1,0.2,0.2,0.3,0.3c-0.3,0.4-0.6,0.9-0.9,1.3c-0.4,0.5,0.2,1.3,0.8,0.9c0.5-0.4,1-0.7,1.5-1
				c2.8,2,5.6,1.3,8.5,0.1c0.9,2.5,4.8,3.2,5.7,0.6c1,0.3,2,0.3,2.8-0.3c3.9-2.9,5.3-7.2,3.8-11.9C27.2-212,25.2-213.1,23.8-212.4z"
				/>
			<path fill="#FFFFFF" d="M22.5-157.7c2.1,3.7-0.3,7.1-2.7,10.1c-2.5,3.1-5.6,7-9.5,8.5c-1.2,0.5-2.8-0.2-3.2-1.5
				c-1.4-4.3-3.5-9.7-1.1-14.2c1.4-2.6,3.4-4.1,5.8-5.7c1-0.6,1.4-1.7,2.7-1.6c0.9,0.1,1.5,1.2,1.1,2c0.1,0,0.2,0.1,0.3,0.1
				c0,0.1,0.1,0.2,0.1,0.3C18.4-160.4,21.1-160.2,22.5-157.7z M17.1-154.7c0,1.1-0.1,2.2-0.4,3.3c0.7-1,1.2-2,1.6-2.9
				C18.8-155.4,18-155.2,17.1-154.7z"/>
		</g>
		<g>
			<path fill="#FFFFFF" d="M278.8-309.4c-0.1-0.8-0.5-1.7-1.2-2.2c-1.1-0.7-2.1-1-3.4-0.6c-0.8,0.3-1.6,1-2.1,1.6
				c-1.3,0-2.5,0.9-3.2,2c-0.9,1.4-1.2,2.8-0.7,4.5c0.4,1.4,1.6,2.1,2.9,2.4c1.9,2,5.5,1.9,8,1.4c2.6-0.5,4-3.1,2.5-5.4
				c-0.8-1.2-1.7-2.1-2.7-2.8c0-0.1-0.1-0.2-0.1-0.3C279-308.6,278.8-309.4,278.8-309.4z"/>
			<path fill="#FFFFFF" d="M310.1-370.4c-2.8,5.5-5.3,8.1-11.2,9.9c-4.1,1.3-9.7-0.8-11,4.2c-0.9,3.2-5.5,4.2-4.2,8.2
				c0.2,0.5,0.3,1,0.5,1.5c0.5,0.8,1.1,1.5,1.6,2.2c1.9-0.9,1.7-2.5,3-4c0.8-1,2.9-2,4.2-1.7c6.4,2,9.5,5.4,8.3,11.7
				c0.2,0.2,0.3,0.3,0.5,0.5c2-2.8,4.6-4.9,7.7-7.2c1.1-0.8,2.6-0.4,3.4,0.6c3,4.1,2.5,6.4,0.2,10.7c-1.5,2.7,8.6,9.6,7.6,14.5
				c-1.7,8.6-18.3-1.2-22.6-0.2c-1.5,0.4-3-0.4-3.2-2c-0.7-5.2,4-9.8,1.7-13.7c-0.7-0.7-1.4-1.4-2.1-2.1c-1.4-1.4-0.9-3.3,0.3-4.1
				c-1-3.4-2-3.6-2.9-0.6c-0.2,0.4-0.5,0.8-0.9,1.1c-0.9,0.8-1.4,1.2-2,1.5c1.4,3.9,1.1,7.1-0.8,10.7c6.2,5.9,11.9,13.8,7.8,19.8
				c-3.7,5.5-6.3,3.7-8.2,0c-0.8-0.7-1.5-1.6-2-2.5c-0.9-1.7-1.8-4.2-1.3-6.2c0-0.1,0-0.2,0.1-0.2c-0.6-1.9-1-3.4-1.5-4.2
				c-0.7-1.2,0-2.4,0.9-2.9c-2.2-2.1-4.6-4-7.1-5.6c-1.8-1.1-2.2-3.5-0.4-4.9c1.7-1.3-7.1-12.6-6.1-16.3c2-7,12.4-11.3,13.2-17.6
				c0.1-1.1,1.3-2.4,2.5-2.3c1.5,0,9.9,0.2,5.6-4.3c-1.1-1.1-1.4-2.7-0.3-4c1.4-1.7,3-4.1,5.4-4c1.7,0.1,2.8,0.9,3.1,2.6
				c0.3,1.5-0.4,3.9-1,6.1c0.6,1.5,0.7,3-0.1,4.5c0.9,0.6,3-0.1,7.4-3C308.1-375.5,311.4-373,310.1-370.4z M298.5-366.4
				c-1-0.3-2-0.8-3-1.5c-1.2,0.7-2.5,1-3.7,1.3c0.3,0.1,0.6,0.2,0.8,0.4C294.6-365.1,296.7-365.4,298.5-366.4z"/>
			<path fill="#FFFFFF" d="M262-282.4c-1.4,1.1-2.6,2.3-3.7,3.6c-0.8,0.1-1.5,0.6-1.8,1.5c-0.2,0.5-0.3,0.9-0.5,1.4
				c-1.4,2-2.7,4.2-4.1,6.3c-2.2,3.3-5.5,4.9-8.9,6.5c-0.2,0-0.3,0-0.5,0.1c-0.6,0.3-1.1,0.5-1.6,0.9c0.9-1.3,2-2.6,3.2-3.7
				c0.4-0.4-0.1-1.2-0.7-1c-6.2,2.8-9.5,8.8-7.5,15.6c1.1,3.9,5.9,12.9,11.5,9.4c6.7-4.1,7.1-14.6,11.5-20.7
				c4.3-5.9,8.9-11.6,5.5-19.1C264.2-282.6,262.9-283.2,262-282.4z"/>
			<path fill="#FFFFFF" d="M272.1-292.2c-0.2,0-0.3,0-0.5,0c0,0,0,0-0.1,0c0.1-0.5,0.2-1,0.2-1.5c0-0.2-0.2-0.4-0.4-0.4
				c-2.4-0.5-3.2,2.9-3.4,4.7c-0.3,3,0.8,6.3,2.6,8.7c4.4,5.7,15.3,1.5,14.9-5.6C285.2-292.2,276.6-295.3,272.1-292.2z"/>
		</g>
		<g>
			<path fill="#FFFFFF" d="M188.8-309.4c-0.1-0.8-0.5-1.7-1.2-2.2c-1.1-0.7-2.1-1-3.4-0.6c-0.8,0.3-1.6,1-2.1,1.6
				c-1.3,0-2.5,0.9-3.2,2c-0.9,1.4-1.2,2.8-0.7,4.5c0.4,1.4,1.6,2.1,2.9,2.4c1.9,2,5.5,1.9,8,1.4c2.6-0.5,4-3.1,2.5-5.4
				c-0.8-1.2-1.7-2.1-2.7-2.8c0-0.1-0.1-0.2-0.1-0.3C189-308.6,188.8-309.4,188.8-309.4z"/>
			<path fill="#FFFFFF" d="M220.1-370.4c-2.8,5.5-5.3,8.1-11.2,9.9c-4.1,1.3-9.7-0.8-11,4.2c-0.9,3.2-5.5,4.2-4.2,8.2
				c0.2,0.5,0.3,1,0.5,1.5c0.5,0.8,1.1,1.5,1.6,2.2c1.9-0.9,1.7-2.5,3-4c0.8-1,2.9-2,4.2-1.7c6.4,2,9.5,5.4,8.3,11.7
				c0.2,0.2,0.3,0.3,0.5,0.5c2-2.8,4.6-4.9,7.7-7.2c1.1-0.8,2.6-0.4,3.4,0.6c3,4.1,2.5,6.4,0.2,10.7c-1.5,2.7,8.6,9.6,7.6,14.5
				c-1.7,8.6-18.3-1.2-22.6-0.2c-1.5,0.4-3-0.4-3.2-2c-0.7-5.2,4-9.8,1.7-13.7c-0.7-0.7-1.4-1.4-2.1-2.1c-1.4-1.4-0.9-3.3,0.3-4.1
				c-1-3.4-2-3.6-2.9-0.6c-0.2,0.4-0.5,0.8-0.9,1.1c-0.9,0.8-1.4,1.2-2,1.5c1.4,3.9,1.1,7.1-0.8,10.7c6.2,5.9,11.9,13.8,7.8,19.8
				c-3.7,5.5-6.3,3.7-8.2,0c-0.8-0.7-1.5-1.6-2-2.5c-0.9-1.7-1.8-4.2-1.3-6.2c0-0.1,0-0.2,0.1-0.2c-0.6-1.9-1-3.4-1.5-4.2
				c-0.7-1.2,0-2.4,0.9-2.9c-2.2-2.1-4.6-4-7.1-5.6c-1.8-1.1-2.2-3.5-0.4-4.9c1.7-1.3-7.1-12.6-6.1-16.3c2-7,12.4-11.3,13.2-17.6
				c0.1-1.1,1.3-2.4,2.5-2.3c1.5,0,9.9,0.2,5.6-4.3c-1.1-1.1-1.4-2.7-0.3-4c1.4-1.7,3-4.1,5.4-4c1.7,0.1,2.8,0.9,3.1,2.6
				c0.3,1.5-0.4,3.9-1,6.1c0.6,1.5,0.7,3-0.1,4.5c0.9,0.6,3-0.1,7.4-3C218.1-375.5,221.4-373,220.1-370.4z M208.5-366.4
				c-1-0.3-2-0.8-3-1.5c-1.2,0.7-2.5,1-3.7,1.3c0.3,0.1,0.6,0.2,0.8,0.4C204.6-365.1,206.7-365.4,208.5-366.4z"/>
			<path fill="#FFFFFF" d="M247.5-310.5c2.1,3.7-0.3,7.1-2.7,10.1c-2.5,3.1-5.6,7-9.5,8.5c-1.2,0.5-2.8-0.2-3.2-1.5
				c-1.4-4.3-3.5-9.7-1.1-14.2c1.4-2.6,3.4-4.1,5.8-5.7c1-0.6,1.4-1.7,2.7-1.6c0.9,0.1,1.5,1.2,1.1,2c0.1,0,0.2,0.1,0.3,0.1
				c0,0.1,0.1,0.2,0.1,0.3C243.4-313.2,246.1-313,247.5-310.5z M242.1-307.4c0,1.1-0.1,2.2-0.4,3.3c0.7-1,1.2-2,1.6-2.9
				C243.8-308.2,243-307.9,242.1-307.4z"/>
			<path fill="#FFFFFF" d="M172-282.4c-1.4,1.1-2.6,2.3-3.7,3.6c-0.8,0.1-1.5,0.6-1.8,1.5c-0.2,0.5-0.3,0.9-0.5,1.4
				c-1.4,2-2.7,4.2-4.1,6.3c-2.2,3.3-5.5,4.9-8.9,6.5c-0.2,0-0.3,0-0.5,0.1c-0.6,0.3-1.1,0.5-1.6,0.9c0.9-1.3,2-2.6,3.2-3.7
				c0.4-0.4-0.1-1.2-0.7-1c-6.2,2.8-9.5,8.8-7.5,15.6c1.1,3.9,5.9,12.9,11.5,9.4c6.7-4.1,7.1-14.6,11.5-20.7
				c4.3-5.9,8.9-11.6,5.5-19.1C174.2-282.6,172.9-283.2,172-282.4z"/>
			<path fill="#FFFFFF" d="M182.1-292.2c-0.2,0-0.3,0-0.5,0c0,0,0,0-0.1,0c0.1-0.5,0.2-1,0.2-1.5c0-0.2-0.2-0.4-0.4-0.4
				c-2.4-0.5-3.2,2.9-3.4,4.7c-0.3,3,0.8,6.3,2.6,8.7c4.4,5.7,15.3,1.5,14.9-5.6C195.2-292.2,186.6-295.3,182.1-292.2z"/>
		</g>
		<g>
			<path fill="#FFFFFF" d="M98.8-309.4c-0.1-0.8-0.5-1.7-1.2-2.2c-1.1-0.7-2.1-1-3.4-0.6c-0.8,0.3-1.6,1-2.1,1.6
				c-1.3,0-2.5,0.9-3.2,2c-0.9,1.4-1.2,2.8-0.7,4.5c0.4,1.4,1.6,2.1,2.9,2.4c1.9,2,5.5,1.9,8,1.4c2.6-0.5,4-3.1,2.5-5.4
				c-0.8-1.2-1.7-2.1-2.7-2.8c0-0.1-0.1-0.2-0.1-0.3C99-308.6,98.8-309.4,98.8-309.4z"/>
			<path fill="#FFFFFF" d="M130.1-370.4c-2.8,5.5-5.3,8.1-11.2,9.9c-4.1,1.3-9.7-0.8-11,4.2c-0.9,3.2-5.5,4.2-4.2,8.2
				c0.2,0.5,0.3,1,0.5,1.5c0.5,0.8,1.1,1.5,1.6,2.2c1.9-0.9,1.7-2.5,3-4c0.8-1,2.9-2,4.2-1.7c6.4,2,9.5,5.4,8.3,11.7
				c0.2,0.2,0.3,0.3,0.5,0.5c2-2.8,4.6-4.9,7.7-7.2c1.1-0.8,2.6-0.4,3.4,0.6c3,4.1,2.5,6.4,0.2,10.7c-1.5,2.7,8.6,9.6,7.6,14.5
				c-1.7,8.6-18.3-1.2-22.6-0.2c-1.5,0.4-3-0.4-3.2-2c-0.7-5.2,4-9.8,1.7-13.7c-0.7-0.7-1.4-1.4-2.1-2.1c-1.4-1.4-0.9-3.3,0.3-4.1
				c-1-3.4-2-3.6-2.9-0.6c-0.2,0.4-0.5,0.8-0.9,1.1c-0.9,0.8-1.4,1.2-2,1.5c1.4,3.9,1.1,7.1-0.8,10.7c6.2,5.9,11.9,13.8,7.8,19.8
				c-3.7,5.5-6.3,3.7-8.2,0c-0.8-0.7-1.5-1.6-2-2.5c-0.9-1.7-1.8-4.2-1.3-6.2c0-0.1,0-0.2,0.1-0.2c-0.6-1.9-1-3.4-1.5-4.2
				c-0.7-1.2,0-2.4,0.9-2.9c-2.2-2.1-4.6-4-7.1-5.6c-1.8-1.1-2.2-3.5-0.4-4.9c1.7-1.3-7.1-12.6-6.1-16.3c2-7,12.4-11.3,13.2-17.6
				c0.1-1.1,1.3-2.4,2.5-2.3c1.5,0,9.9,0.2,5.6-4.3c-1.1-1.1-1.4-2.7-0.3-4c1.4-1.7,3-4.1,5.4-4c1.7,0.1,2.8,0.9,3.1,2.6
				c0.3,1.5-0.4,3.9-1,6.1c0.6,1.5,0.7,3-0.1,4.5c0.9,0.6,3-0.1,7.4-3C128.1-375.5,131.4-373,130.1-370.4z M118.5-366.4
				c-1-0.3-2-0.8-3-1.5c-1.2,0.7-2.5,1-3.7,1.3c0.3,0.1,0.6,0.2,0.8,0.4C114.6-365.1,116.7-365.4,118.5-366.4z"/>
			<path fill="#FFFFFF" d="M157.5-310.5c2.1,3.7-0.3,7.1-2.7,10.1c-2.5,3.1-5.6,7-9.5,8.5c-1.2,0.5-2.8-0.2-3.2-1.5
				c-1.4-4.3-3.5-9.7-1.1-14.2c1.4-2.6,3.4-4.1,5.8-5.7c1-0.6,1.4-1.7,2.7-1.6c0.9,0.1,1.5,1.2,1.1,2c0.1,0,0.2,0.1,0.3,0.1
				c0,0.1,0.1,0.2,0.1,0.3C153.4-313.2,156.1-313,157.5-310.5z M152.1-307.4c0,1.1-0.1,2.2-0.4,3.3c0.7-1,1.2-2,1.6-2.9
				C153.8-308.2,153-307.9,152.1-307.4z"/>
			<path fill="#FFFFFF" d="M82-282.4c-1.4,1.1-2.6,2.3-3.7,3.6c-0.8,0.1-1.5,0.6-1.8,1.5c-0.2,0.5-0.3,0.9-0.5,1.4
				c-1.4,2-2.7,4.2-4.1,6.3c-2.2,3.3-5.5,4.9-8.9,6.5c-0.2,0-0.3,0-0.5,0.1c-0.6,0.3-1.1,0.5-1.6,0.9c0.9-1.3,2-2.6,3.2-3.7
				c0.4-0.4-0.1-1.2-0.7-1c-6.2,2.8-9.5,8.8-7.5,15.6c1.1,3.9,5.9,12.9,11.5,9.4c6.7-4.1,7.1-14.6,11.5-20.7
				c4.3-5.9,8.9-11.6,5.5-19.1C84.2-282.6,82.9-283.2,82-282.4z"/>
			<path fill="#FFFFFF" d="M92.1-292.2c-0.2,0-0.3,0-0.5,0c0,0,0,0-0.1,0c0.1-0.5,0.2-1,0.2-1.5c0-0.2-0.2-0.4-0.4-0.4
				c-2.4-0.5-3.2,2.9-3.4,4.7c-0.3,3,0.8,6.3,2.6,8.7c4.4,5.7,15.3,1.5,14.9-5.6C105.2-292.2,96.6-295.3,92.1-292.2z"/>
		</g>
		<g>
			<path fill="#FFFFFF" d="M40.1-370.4c-2.8,5.5-5.3,8.1-11.2,9.9c-4.1,1.3-9.7-0.8-11,4.2c-0.9,3.2-5.5,4.2-4.2,8.2
				c0.2,0.5,0.3,1,0.5,1.5c0.5,0.8,1.1,1.5,1.6,2.2c1.9-0.9,1.7-2.5,3-4c0.8-1,2.9-2,4.2-1.7c6.4,2,9.5,5.4,8.3,11.7
				c0.2,0.2,0.3,0.3,0.5,0.5c2-2.8,4.6-4.9,7.7-7.2c1.1-0.8,2.6-0.4,3.4,0.6c3,4.1,2.5,6.4,0.2,10.7c-1.5,2.7,8.6,9.6,7.6,14.5
				c-1.7,8.6-18.3-1.2-22.6-0.2c-1.5,0.4-3-0.4-3.2-2c-0.7-5.2,4-9.8,1.7-13.7c-0.7-0.7-1.4-1.4-2.1-2.1c-1.4-1.4-0.9-3.3,0.3-4.1
				c-1-3.4-2-3.6-2.9-0.6c-0.2,0.4-0.5,0.8-0.9,1.1c-0.9,0.8-1.4,1.2-2,1.5c1.4,3.9,1.1,7.1-0.8,10.7c6.2,5.9,11.9,13.8,7.8,19.8
				c-3.7,5.5-6.3,3.7-8.2,0c-0.8-0.7-1.5-1.6-2-2.5c-0.9-1.7-1.8-4.2-1.3-6.2c0-0.1,0-0.2,0.1-0.2c-0.6-1.9-1-3.4-1.5-4.2
				c-0.7-1.2,0-2.4,0.9-2.9c-2.2-2.1-4.6-4-7.1-5.6c-1.8-1.1-2.2-3.5-0.4-4.9c1.7-1.3-7.1-12.6-6.1-16.3c2-7,12.4-11.3,13.2-17.6
				c0.1-1.1,1.3-2.4,2.5-2.3c1.5,0,9.9,0.2,5.6-4.3c-1.1-1.1-1.4-2.7-0.3-4c1.4-1.7,3-4.1,5.4-4c1.7,0.1,2.8,0.9,3.1,2.6
				c0.3,1.5-0.4,3.9-1,6.1c0.6,1.5,0.7,3-0.1,4.5c0.9,0.6,3-0.1,7.4-3C38.1-375.5,41.4-373,40.1-370.4z M28.5-366.4
				c-1-0.3-2-0.8-3-1.5c-1.2,0.7-2.5,1-3.7,1.3c0.3,0.1,0.6,0.2,0.8,0.4C24.6-365.1,26.7-365.4,28.5-366.4z"/>
			<path fill="#FFFFFF" d="M67.5-310.5c2.1,3.7-0.3,7.1-2.7,10.1c-2.5,3.1-5.6,7-9.5,8.5c-1.2,0.5-2.8-0.2-3.2-1.5
				c-1.4-4.3-3.5-9.7-1.1-14.2c1.4-2.6,3.4-4.1,5.8-5.7c1-0.6,1.4-1.7,2.7-1.6c0.9,0.1,1.5,1.2,1.1,2c0.1,0,0.2,0.1,0.3,0.1
				c0,0.1,0.1,0.2,0.1,0.3C63.4-313.2,66.1-313,67.5-310.5z M62.1-307.4c0,1.1-0.1,2.2-0.4,3.3c0.7-1,1.2-2,1.6-2.9
				C63.8-308.2,63-307.9,62.1-307.4z"/>
		</g>
	</g>
</pattern>
<g>
	<g>
		<path fill="#9E623E" d="M82.4,187.3c-1,0-1.8,0.4-2.4,1c-0.6-0.6-1.4-1-2.4-1c-1.7,0-3.1,1.2-3.1,2.7v41c0,1.5,1.4,2.7,3.1,2.7
			c1,0,1.8-0.4,2.4-1c0.6,0.6,1.4,1,2.4,1c1.7,0,3.1-1.2,3.1-2.7v-41C85.4,188.5,84.1,187.3,82.4,187.3z"/>
		<path fill="#9E623E" d="M128.2,187.3c-1,0-1.8,0.4-2.4,1c-0.6-0.6-1.4-1-2.4-1c-1.7,0-3.1,1.2-3.1,2.7v41c0,1.5,1.4,2.7,3.1,2.7
			c1,0,1.8-0.4,2.4-1c0.6,0.6,1.4,1,2.4,1c1.7,0,3.1-1.2,3.1-2.7v-41C131.3,188.5,130,187.3,128.2,187.3z"/>
		<path fill="#EDC9A3" d="M75.2,227.2c1.1-0.1,1.9-1,1.9-2l-0.2-4.7l1.9,4.3c0.4,1,1.6,1.4,2.6,1c1-0.4,1.4-1.6,1-2.6l-1.9-4.3
			l3.4,3.3c0.8,0.8,2,0.7,2.8,0h0c0.8-0.8,0.7-2,0-2.8l-3.4-3.3l4.3,1.9c1,0.4,2.1,0,2.6-1c0.4-1,0-2.1-1-2.6l-4.3-1.9l4.7,0.2
			c1.1,0,2-0.8,2-1.9c0-1.1-0.8-2-1.9-2l-5.1-0.2c-0.9-5.5-6-9.3-11.5-8.6c-5,0.7-8.6,4.8-8.9,9.6l-5,0.7c-1.1,0.1-1.8,1.1-1.7,2.2
			c0.1,1.1,1.1,1.8,2.2,1.7l4.7-0.6l-4.1,2.3c-0.9,0.5-1.3,1.7-0.8,2.7c0.5,0.9,1.7,1.3,2.7,0.8l4.1-2.3l-3,3.6
			c-0.7,0.8-0.6,2.1,0.3,2.8h0c0.8,0.7,2.1,0.6,2.8-0.3l3-3.6l-1.5,4.5c-0.3,1,0.2,2.1,1.2,2.5c1,0.3,2.1-0.2,2.5-1.2l1.5-4.5
			l0.2,4.7C73.3,226.4,74.2,227.3,75.2,227.2z"/>
		<path fill="#CF8C58" d="M149.2,189.5v-32.2c0-3.9-3.2-7-7-7h-78c-3.9,0-7,3.2-7,7v39.9v8V233c0,1.3,1.1,2.4,2.4,2.4
			c0.7,0,1.4-0.4,1.8-0.9c0.4,0.5,1.1,0.9,1.8,0.9c1.3,0,2.4-1.1,2.4-2.4v-20.8h72.8V231c0,1.5,1.4,2.7,3.1,2.7c1,0,1.8-0.4,2.4-1
			c0.6,0.6,1.4,1,2.4,1c1.7,0,3.1-1.2,3.1-2.7v-40.8C149.3,189.9,149.3,189.7,149.2,189.5z"/>
		<path fill="#CF8C58" d="M47.3,158.2c4.1-2.4,10.9-2.6,16.9-2.6l1.4-5.2c-8.3,0-23.9,1.6-28.3,15.5c-4.4,13.9,14.1,23.9,7.1,34.1
			c-0.4,0.5-1.5,2.9-2.9,3.9c-0.1,0.1-0.2,0.1-0.3,0.2c-0.6-0.1-1.3,0-2.1,0.3c-3,1.2-2.4,5-3.3,7.7c2.8,0,3.4,0.4,6-1
			c2.6-1.4,1.8-2.2,2-4c0-0.1,0-0.2,0-0.3c2.6-2.4,9.5-10.1,2.4-23.4c-2.7-5-5.6-9-5.9-12.2C39.7,164.3,43.2,160.6,47.3,158.2z"/>
		<path fill="#9E623E" d="M42.3,176.4c0.2,4.6,3.9,13,5.4,16.4c2,4.6,0,9-2.7,6.1c-0.2,0.4-0.4,0.7-0.6,1.1
			c-0.4,0.5-1.5,2.9-2.9,3.9c-0.1,0.1-0.2,0.1-0.3,0.2c-0.6-0.1-1.3,0-2.1,0.3c-3,1.2-2.4,5-3.3,7.7c2.8,0,3.4,0.4,6-1
			c2.6-1.4,1.8-2.2,2-4c0-0.1,0-0.2,0-0.3c2.6-2.4,9.5-10.1,2.4-23.4C44.9,180.8,43.5,178.5,42.3,176.4z"/>
		<path fill="#9E623E" d="M142.2,150.3H77.8c-4,10.6,1.5,19.2,6.1,18c5.9-1.5,11.6-14.5,21.7-6.6s-11,18.2,4.8,28.3
			s14.1-13.2,19.3-8.7s15.5,16.4,15.9,6.2c0.2-5.2,2-6.3,3.6-6.2v-24C149.2,153.4,146.1,150.3,142.2,150.3z"/>
		<g>
			<path fill="#E9BD92" d="M101.4,110.7c-4.3,26.8,12,33.2,37.8,29.1c-0.9-4.5-0.1-13.1-2.2-15C121.2,127.1,107.6,133.4,101.4,110.7
				z"/>
			<path fill="#E9BD92" d="M180.8,99c11.8,24.4-1.9,35.2-27.8,38.8c-0.4-4.6-3.6-12.6-2.2-15C166.7,120.4,181.5,122.4,180.8,99z"/>
			
				<ellipse transform="matrix(0.685 0.7286 -0.7286 0.685 140.4016 -44.5834)" fill="#A77F61" cx="121.8" cy="140.1" rx="4.8" ry="8.9"/>
			
				<ellipse transform="matrix(-0.7286 0.685 -0.685 -0.7286 387.4385 111.8649)" fill="#A77F61" cx="171.6" cy="132.7" rx="4.8" ry="8.9"/>
			<path fill="#CF8C58" d="M167.6,124.7c-0.8-2.9-3.6-4.8-6.5-4.3l-11.9,1.8c1.3-0.6,2.4-1.4,3-2.5c-1.5-0.8-3.5,0.1-4.8,0.9
				c1.9-1.4,4.9-3.8,2.9-4.2c-2.7-0.6-5.9,3.9-5.9,3.9s3.9-5.5,3.6-7.7c-0.3-2.2-5.5,5.7-7.8,11l-12.4,1.8c-3,0.4-5.2,3.1-5,6.2
				l3.4,47.9c0.2,3.4,3.3,5.9,6.7,5.4l41.9-6.2c3.4-0.5,5.7-3.9,4.8-7.3L167.6,124.7z"/>
			<circle opacity="0.1" cx="161" cy="142.1" r="5.4"/>
			<circle fill="#5C3B28" cx="160.8" cy="140.8" r="4.4"/>
			<path fill="#A77F61" d="M174.9,178.5c3.4-0.5,5.7-3.9,4.8-7.3l-1.6-6.2c-7.5-6.3-17.5-9.5-27.9-7.9c-10.4,1.5-19.1,7.5-24.4,15.7
				l0.5,6.5c0.2,3.4,3.3,5.9,6.7,5.4L174.9,178.5z"/>
			<circle fill="#5C3B28" cx="140.3" cy="172" r="3.7"/>
			<circle fill="#5C3B28" cx="164.9" cy="168.4" r="3.7"/>
			<path fill="#EDC9A3" d="M144.2,153.6c2-6.5-3-9.2-2-13.5c1-4.3,10.7-0.8,14.6-4.9c3.2-3.4-0.2-8.8-3.8-13.7l-25.1,3.7
				c-3,0.4-5.2,3.1-5,6.2l1.6,22.5c0.5,1.1,1,2,1.6,2.6C130.9,161.3,142.3,160.2,144.2,153.6z"/>
			<circle opacity="0.1" cx="136.4" cy="145.7" r="5.4"/>
			<circle fill="#5C3B28" cx="136.2" cy="144.4" r="4.3"/>
		</g>
	</g>
	<g>
		<circle opacity="0.2" fill="#FFFFFF" cx="199.7" cy="202.5" r="4.7"/>
		
			<line fill="none" stroke="#A0682A" stroke-width="3" stroke-linecap="round" stroke-miterlimit="10" x1="242.6" y1="33.8" x2="199.8" y2="202.2"/>
		<g>
			<polygon opacity="0.1" fill-rule="evenodd" clip-rule="evenodd" fill="#12100B" points="388.8,126.6 216.5,148.2 246.3,30.9 
				388.8,126.6 			"/>
			<polygon fill-rule="evenodd" clip-rule="evenodd" fill="#DF5252" points="385.2,129.2 212.9,150.8 242.7,33.5 385.2,129.2 			"/>
			<polygon opacity="0.1" fill-rule="evenodd" clip-rule="evenodd" fill="#12100B" points="345,134.2 342.6,134.5 350,105.5 
				351.9,106.8 345,134.2 			"/>
			<polygon opacity="0.1" fill-rule="evenodd" clip-rule="evenodd" fill="#12100B" points="339.4,134.9 337.1,135.2 345.4,102.5 
				347.4,103.8 339.4,134.9 			"/>
			<polygon opacity="0.1" fill-rule="evenodd" clip-rule="evenodd" fill="#12100B" points="333.7,135.6 331.3,135.9 340.7,99.3 
				342.6,100.6 333.7,135.6 			"/>
			<polygon opacity="0.1" fill-rule="evenodd" clip-rule="evenodd" fill="#12100B" points="328.2,136.3 325.8,136.6 336.1,96.2 
				338,97.5 328.2,136.3 			"/>
			<polygon opacity="0.1" fill-rule="evenodd" clip-rule="evenodd" fill="#12100B" points="322.7,137 320.3,137.3 331.5,93.1 
				333.5,94.5 322.7,137 			"/>
			<polygon opacity="0.1" fill-rule="evenodd" clip-rule="evenodd" fill="#12100B" points="317.1,137.7 314.8,138 327,90.1 
				328.9,91.4 317.1,137.7 			"/>
			<polygon opacity="0.1" fill-rule="evenodd" clip-rule="evenodd" fill="#12100B" points="311.4,138.4 309,138.7 322.2,86.9 
				324.2,88.2 311.4,138.4 			"/>
			<polygon opacity="0.1" fill-rule="evenodd" clip-rule="evenodd" fill="#12100B" points="305.9,139.1 303.5,139.4 317.7,83.8 
				319.6,85.1 305.9,139.1 			"/>
			<polygon opacity="0.1" fill-rule="evenodd" clip-rule="evenodd" fill="#12100B" points="384.2,129.3 381.8,129.6 382.4,127.3 
				384.4,128.6 384.2,129.3 			"/>
			<polygon opacity="0.1" fill-rule="evenodd" clip-rule="evenodd" fill="#12100B" points="378.4,130 376.1,130.3 377.7,124.1 
				379.6,125.4 378.4,130 			"/>
			<polygon opacity="0.1" fill-rule="evenodd" clip-rule="evenodd" fill="#12100B" points="372.9,130.7 370.6,131 373.1,121 
				375,122.4 372.9,130.7 			"/>
			<polygon opacity="0.1" fill-rule="evenodd" clip-rule="evenodd" fill="#12100B" points="367.4,131.4 365,131.7 368.5,118 
				370.5,119.3 367.4,131.4 			"/>
			<polygon opacity="0.1" fill-rule="evenodd" clip-rule="evenodd" fill="#12100B" points="361.9,132.1 359.5,132.4 364,114.9 
				365.9,116.2 361.9,132.1 			"/>
			<polygon opacity="0.1" fill-rule="evenodd" clip-rule="evenodd" fill="#12100B" points="356.1,132.8 353.8,133.1 359.2,111.7 
				361.2,113 356.1,132.8 			"/>
			<polygon opacity="0.1" fill-rule="evenodd" clip-rule="evenodd" fill="#12100B" points="350.6,133.5 348.3,133.8 354.7,108.7 
				356.6,110 350.6,133.5 			"/>
			<polygon opacity="0.1" fill-rule="evenodd" clip-rule="evenodd" fill="#12100B" points="255.5,145.5 253.2,145.7 276,55.9 
				278,57.2 255.5,145.5 			"/>
			<polygon opacity="0.1" fill-rule="evenodd" clip-rule="evenodd" fill="#12100B" points="250,146.1 247.7,146.4 271.5,52.8 
				273.4,54.1 250,146.1 			"/>
			<polygon opacity="0.1" fill-rule="evenodd" clip-rule="evenodd" fill="#12100B" points="244.3,146.9 241.9,147.2 266.7,49.6 
				268.7,50.9 244.3,146.9 			"/>
			<polygon opacity="0.1" fill-rule="evenodd" clip-rule="evenodd" fill="#12100B" points="238.8,147.6 236.4,147.9 262.1,46.6 
				264.1,47.9 238.8,147.6 			"/>
			<polygon opacity="0.1" fill-rule="evenodd" clip-rule="evenodd" fill="#12100B" points="233.3,148.3 230.9,148.5 257.6,43.5 
				259.5,44.8 233.3,148.3 			"/>
			<polygon opacity="0.1" fill-rule="evenodd" clip-rule="evenodd" fill="#12100B" points="227.7,148.9 225.4,149.2 253,40.4 
				255,41.7 227.7,148.9 			"/>
			<polygon opacity="0.1" fill-rule="evenodd" clip-rule="evenodd" fill="#12100B" points="222,149.7 219.6,150 248.3,37.2 
				250.2,38.5 222,149.7 			"/>
			<polygon opacity="0.1" fill-rule="evenodd" clip-rule="evenodd" fill="#12100B" points="216.5,150.4 214.1,150.7 243.7,34.2 
				245.7,35.5 216.5,150.4 			"/>
			<polygon opacity="0.1" fill-rule="evenodd" clip-rule="evenodd" fill="#12100B" points="300.3,139.8 297.9,140.1 313,80.7 
				315,82 300.3,139.8 			"/>
			<polygon opacity="0.1" fill-rule="evenodd" clip-rule="evenodd" fill="#12100B" points="294.8,140.5 292.4,140.8 308.4,77.6 
				310.4,79 294.8,140.5 			"/>
			<polygon opacity="0.1" fill-rule="evenodd" clip-rule="evenodd" fill="#12100B" points="289,141.3 286.7,141.5 303.7,74.5 
				305.7,75.8 289,141.3 			"/>
			<polygon opacity="0.1" fill-rule="evenodd" clip-rule="evenodd" fill="#12100B" points="283.5,141.9 281.1,142.2 299.1,71.4 
				301.1,72.7 283.5,141.9 			"/>
			<polygon opacity="0.1" fill-rule="evenodd" clip-rule="evenodd" fill="#12100B" points="278,142.6 275.6,142.9 294.6,68.3 
				296.5,69.6 278,142.6 			"/>
			<polygon opacity="0.1" fill-rule="evenodd" clip-rule="evenodd" fill="#12100B" points="272.5,143.3 270.1,143.6 290,65.3 
				292,66.6 272.5,143.3 			"/>
			<polygon opacity="0.1" fill-rule="evenodd" clip-rule="evenodd" fill="#12100B" points="266.7,144.1 264.4,144.3 285.3,62.1 
				287.2,63.4 266.7,144.1 			"/>
			<polygon opacity="0.1" fill-rule="evenodd" clip-rule="evenodd" fill="#12100B" points="261.2,144.7 258.8,145 280.7,59 
				282.7,60.3 261.2,144.7 			"/>
			<polygon fill-rule="evenodd" clip-rule="evenodd" fill="#FFFFFF" points="226.8,143.8 228.2,144.2 229.9,137.6 228.4,137.2 
				226.8,143.8 			"/>
			<polygon fill-rule="evenodd" clip-rule="evenodd" fill="#FFFFFF" points="229.3,133.6 230.8,134 232.5,127.4 231,127 
				229.3,133.6 			"/>
			<polygon fill-rule="evenodd" clip-rule="evenodd" fill="#FFFFFF" points="231.9,123.4 233.4,123.7 235.1,117.2 233.6,116.8 
				231.9,123.4 			"/>
			<polygon fill-rule="evenodd" clip-rule="evenodd" fill="#FFFFFF" points="234.5,113.2 236,113.5 237.7,107 236.2,106.6 
				234.5,113.2 			"/>
			<polygon fill-rule="evenodd" clip-rule="evenodd" fill="#FFFFFF" points="237.1,103 238.6,103.3 240.3,96.8 238.8,96.4 
				237.1,103 			"/>
			<polygon fill-rule="evenodd" clip-rule="evenodd" fill="#FFFFFF" points="239.7,92.8 241.2,93.1 242.9,86.6 241.4,86.2 
				239.7,92.8 			"/>
			<polygon fill-rule="evenodd" clip-rule="evenodd" fill="#FFFFFF" points="242.3,82.6 243.8,82.9 245.5,76.4 244,76 242.3,82.6 
							"/>
			<polygon fill-rule="evenodd" clip-rule="evenodd" fill="#FFFFFF" points="244.9,72.4 246.4,72.7 248.1,66.2 246.6,65.8 
				244.9,72.4 			"/>
			<polygon fill-rule="evenodd" clip-rule="evenodd" fill="#FFFFFF" points="247.5,62.2 249,62.5 250.7,56 249.2,55.6 247.5,62.2 
							"/>
			<polygon fill-rule="evenodd" clip-rule="evenodd" fill="#FFFFFF" points="250.1,52 251.6,52.3 253.2,45.8 251.8,45.4 250.1,52 
							"/>
			<g>
				
					<rect x="243.1" y="100" transform="matrix(0.9692 0.2462 -0.2462 0.9692 40.0711 -72.6916)" fill="none" width="135.1" height="47.7"/>
				<text transform="matrix(0.9692 0.2462 -0.2463 0.9692 248.6378 93.9873)"><tspan x="0" y="0" fill="#FFFFFF" font-family="'helsinkiregular'" font-size="14">{{meat1}}</tspan></text>
			</g>
		</g>
	</g>
	<g>
		<g>
			<g>
				<path fill="#723B13" stroke="#723B13" stroke-width="2" stroke-miterlimit="10" d="M247.6,198.5c-0.4-0.9-3.3-1.3-5.7-1
					c-0.4,0-0.7-0.1-1.2-0.1c-17.3,0.2-35,1.9-52.5,3.6c-17.4,1.7-34.8,3.6-52.1,5.7c-12.9,1.6-25.7,3.2-38.5,5
					c-0.9-0.2-2-0.3-3.3-0.2c-2.8,0.2-5.3,1.4-5.1,2.5c0.2,1.7,0.5,3.3,0.8,5c0.3,1.7,0.3,3.6,2.5,5c2.2,1.4,6.7,1.9,10.7,2.2
					c3.6,0.3,7.4,0.2,11.2,0.1c17.3-0.5,34.7-1.2,52.1-2.2c17.2-1,34.4-2.3,51.4-4.5c4.4-0.6,8.8-1.2,13.2-1.8c3.5-0.5,7-1.2,10-2.2
					c3.7-1.2,6.1-2.8,7.4-4.5c1.2-1.6,1-3.3,1-4.9C249.5,203.5,248.8,201,247.6,198.5z"/>
				
					<pattern  id="SVGID_1_" xlink:href="#Nouveau_motif_2" patternTransform="matrix(0.9965 -8.304294e-02 8.304294e-02 0.9965 1353.5505 -623.7582)">
				</pattern>
				<path opacity="0.14" fill="url(#SVGID_1_)" d="M247.6,198.7c-0.4-0.9-3.3-1.3-5.7-1c-0.4,0-0.7-0.1-1.2-0.1
					c-17.3,0.2-35,1.9-52.5,3.6c-17.4,1.7-34.8,3.6-52.1,5.7c-12.9,1.6-25.7,3.2-38.5,5c-0.9-0.2-2-0.3-3.3-0.2
					c-2.8,0.2-5.3,1.4-5.1,2.5c0.2,1.7,0.5,3.3,0.8,5c0.3,1.7,0.3,3.6,2.5,5c2.2,1.4,6.7,1.9,10.7,2.2c3.6,0.3,7.4,0.2,11.2,0.1
					c17.3-0.5,34.7-1.2,52.1-2.2c17.2-1,34.4-2.3,51.4-4.5c4.4-0.6,8.8-1.2,13.2-1.8c3.5-0.5,7-1.2,10-2.2c3.7-1.2,6.1-2.8,7.4-4.5
					c1.2-1.6,1-3.3,1-4.9C249.5,203.7,248.8,201.2,247.6,198.7z"/>
				
					<pattern  id="SVGID_2_" xlink:href="#Nouveau_motif_4" patternTransform="matrix(0.9965 -8.304294e-02 8.304294e-02 0.9965 1804.6309 -559.2444)">
				</pattern>
				<path opacity="5.000000e-02" fill="url(#SVGID_2_)" stroke="#723B13" stroke-width="2" stroke-miterlimit="10" d="M247.6,198.8
					c-0.4-0.9-3.3-1.3-5.7-1c-0.4,0-0.7-0.1-1.2-0.1c-17.3,0.2-35,1.9-52.5,3.6c-17.4,1.7-34.8,3.6-52.1,5.7
					c-12.9,1.6-25.7,3.2-38.5,5c-0.9-0.2-2-0.3-3.3-0.2c-2.8,0.2-5.3,1.4-5.1,2.5c0.2,1.7,0.5,3.3,0.8,5c0.3,1.7,0.3,3.6,2.5,5
					c2.2,1.4,6.7,1.9,10.7,2.2c3.6,0.3,7.4,0.2,11.2,0.1c17.3-0.5,34.7-1.2,52.1-2.2c17.2-1,34.4-2.3,51.4-4.5
					c4.4-0.6,8.8-1.2,13.2-1.8c3.5-0.5,7-1.2,10-2.2c3.7-1.2,6.1-2.8,7.4-4.5c1.2-1.6,1-3.3,1-4.9
					C249.5,203.9,248.8,201.3,247.6,198.8z"/>
			</g>
			<path fill="#723B13" stroke="#723B13" stroke-width="2" stroke-miterlimit="10" d="M251.5,235.9c-0.1-1.8-0.1-3.8-1.4-5.5
				c-1.4-1.9-3.9-3.4-7.7-4.4c-3.1-0.8-6.6-1.3-10.2-1.6c-4.4-0.4-8.9-0.6-13.3-0.8c-17.1-0.8-34.4-0.8-51.6-0.2
				c-17.4,0.5-34.9,1.4-52.1,2.5c-3.8,0.2-7.6,0.5-11.1,1.2c-3.9,0.7-8.5,1.7-10.5,3.5c-2.1,1.9-1.9,3.9-2.1,6
				c-0.2,1.9-0.3,3.8-0.4,5.8c-0.1,1.3,2.5,2.4,5.3,2.4c1.2,0,2.3-0.2,3.2-0.5c12.9,0.8,25.8,1.5,38.8,2.1
				c17.4,0.7,34.9,1.2,52.4,1.5c17.5,0.3,35.3,0.6,52.6-0.9c0.4,0,0.8-0.1,1.2-0.2c2.4,0.1,5.2-0.6,5.6-1.7
				C251.1,241.9,251.6,238.9,251.5,235.9z"/>
			<pattern  id="SVGID_3_" xlink:href="#Nouveau_motif_2" patternTransform="matrix(1 0 0 1 825.0006 112)">
			</pattern>
			<path opacity="0.11" fill="url(#SVGID_3_)" d="M251.5,235.9c-0.1-1.8-0.1-3.8-1.4-5.5c-1.4-1.9-3.9-3.4-7.7-4.4
				c-3.1-0.8-6.6-1.3-10.2-1.6c-4.4-0.4-8.9-0.6-13.3-0.8c-17.1-0.8-34.4-0.8-51.6-0.2c-17.4,0.5-34.9,1.4-52.1,2.5
				c-3.8,0.2-7.6,0.5-11.1,1.2c-3.9,0.7-8.5,1.7-10.5,3.5c-2.1,1.9-1.9,3.9-2.1,6c-0.2,1.9-0.3,3.8-0.4,5.8
				c-0.1,1.3,2.5,2.4,5.3,2.4c1.2,0,2.3-0.2,3.2-0.5c12.9,0.8,25.8,1.5,38.8,2.1c17.4,0.7,34.9,1.2,52.4,1.5
				c17.5,0.3,35.3,0.6,52.6-0.9c0.4,0,0.8-0.1,1.2-0.2c2.4,0.1,5.2-0.6,5.6-1.7C251.1,241.9,251.6,238.9,251.5,235.9z"/>
			<pattern  id="SVGID_4_" xlink:href="#Nouveau_motif_4" patternTransform="matrix(1 0 0 1 1365.0005 112)">
			</pattern>
			<path opacity="5.000000e-02" fill="url(#SVGID_4_)" stroke="#723B13" stroke-width="2" stroke-miterlimit="10" d="M251.5,235.9
				c-0.1-1.8-0.1-3.8-1.4-5.5c-1.4-1.9-3.9-3.4-7.7-4.4c-3.1-0.8-6.6-1.3-10.2-1.6c-4.4-0.4-8.9-0.6-13.3-0.8
				c-17.1-0.8-34.4-0.8-51.6-0.2c-17.4,0.5-34.9,1.4-52.1,2.5c-3.8,0.2-7.6,0.5-11.1,1.2c-3.9,0.7-8.5,1.7-10.5,3.5
				c-2.1,1.9-1.9,3.9-2.1,6c-0.2,1.9-0.3,3.8-0.4,5.8c-0.1,1.3,2.5,2.4,5.3,2.4c1.2,0,2.3-0.2,3.2-0.5c12.9,0.8,25.8,1.5,38.8,2.1
				c17.4,0.7,34.9,1.2,52.4,1.5c17.5,0.3,35.3,0.6,52.6-0.9c0.4,0,0.8-0.1,1.2-0.2c2.4,0.1,5.2-0.6,5.6-1.7
				C251.1,241.9,251.6,238.9,251.5,235.9z"/>
		</g>
	</g>
</g>
</svg>
