<?xml version="1.0" encoding="utf-8"?>
<!-- Generator: Adobe Illustrator 18.0.0, SVG Export Plug-In . SVG Version: 6.00 Build 0)  -->
<!DOCTYPE svg PUBLIC "-//W3C//DTD SVG 1.1//EN" "http://www.w3.org/Graphics/SVG/1.1/DTD/svg11.dtd">
<svg version="1.1" id="Calque_1" xmlns="http://www.w3.org/2000/svg" xmlns:xlink="http://www.w3.org/1999/xlink" x="0px" y="0px"
	 viewBox="103.4 0 1073.1 800" enable-background="new 103.4 0 1073.1 800" xml:space="preserve">
<pattern  x="0" y="800" width="41.1" height="27.5" patternUnits="userSpaceOnUse" id="SVGID_1_" viewBox="0 -27.7 41.1 27.5" overflow="visible">
	<g>
		<polygon fill="none" points="0,-0.1 41.1,-0.1 41.1,-27.7 0,-27.7 		"/>
		<g>
			<polygon fill="none" points="0,-27.7 41.1,-27.7 41.1,-0.1 0,-0.1 			"/>
			<path fill="#1B8EC1" d="M11.3-14.5c0,0.6,0.2,1.6,0.8,1.6c1.2,0.2,1.2,2.1,0,1.9c-1.4-0.2-2.3-1-2.7-2.1c0-0.2-0.6-0.2-0.6-0.4
				c-0.6,0-1.6-0.4-1.6-1v-0.4c0-0.8,1.4-1.2,1.9-0.8c0.2-1,1-1.6,1.4-2.3c0.4-0.6,1.7-0.6,1.9,0.2l0.6,2.3
				C13-14.1,11.6-13.7,11.3-14.5z"/>
			<path fill="#1B8EC1" d="M31.6-12.7c-0.4,0.4-1,1-1.4,1.4c-0.2,0.2-0.6,0.4-1,0.2h-0.2c0,0.2-0.2,0.2-0.2,0.4
				c-0.4,1.2-2.1,0.8-1.9-0.6c0-0.2,0.2-0.4,0.4-0.8c-0.6-0.8,0-1.9,1-1.6c0,0,0,0,0.2,0c0.6-0.4,1.4-0.8,2.3-0.8
				C31.8-14.5,32.2-13.3,31.6-12.7z"/>
			<path fill="#1B8EC1" d="M20.8-15.6C20.6-15.5,20.6-15.5,20.8-15.6c-0.4,0.6-1,0.8-1.4,0.4c-1,0-1.4-1.6-0.4-1.9
				c0.2,0,0.4-0.2,0.4-0.2c0.8-1,1.4-2.1,2.3-2.9c0.8-0.8,1.7,0,1.6,1C23.1-17.6,22.1-16.2,20.8-15.6z"/>
			<path fill="#1B8EC1" d="M23.3-9.8c-0.6,1.6-1.7,2.7-3.5,3.1c-0.6,0.2-1.7,0.2-2.1-0.4c-0.6-0.6-1-1.7-0.8-2.5
				c0.2-1.2,1.9-1.2,1.9,0l0,0c1.9-0.4,1.9-0.8,2.9-1.4C22.5-11.2,23.5-10.8,23.3-9.8z"/>
			<path fill="#1B8EC1" d="M10.9-3.2c-0.4,0.2-0.6,0-1,0c0,0.2,0,0.2,0,0.4C9.7-1.7,7.8-1.7,8-2.8C8-3.6,8.4-4.2,8.5-5
				c0-0.4,0.2-0.6,0.4-0.6c0.6-0.8,1.6-1.4,2.5-1.4c0.8-0.2,1.4,0.4,1.2,1.2C12.6-4.6,12-3.6,10.9-3.2z"/>
			<path fill="#1B8EC1" d="M19.6-2.8C19-4.8,16.9-5,15.5-4c-0.8,0.6-1.4,1-1.7,1.9c-0.2,0.4,0,1,0.4,1.4c0.2,0.4,0.6,0.6,1,0.6
				C16.5-0.3,20.2-0.5,19.6-2.8z"/>
			<path fill="#1B8EC1" d="M27.2-4.6c-0.2-0.2-0.6-0.4-1-0.2c-1.4,0.4-3.3,1.4-2.9,3.1c0.4,1.4,2.1,2.3,3.1,1.2l0.2-0.2
				c0.2,0,0.4,0,0.6-0.4C28.1-2.3,28.1-3.6,27.2-4.6z"/>
			<path fill="#1B8EC1" d="M40.9-12.7c-1.4,1.7-2.7,3.5-4.3,5c-0.8,1-2.1-0.4-1.4-1.4c1.4-1.7,2.7-3.5,4.3-5
				C40.4-15.1,41.7-13.7,40.9-12.7z"/>
			<path fill="#1B8EC1" d="M35.7-19.1c-1,0.6-1.9,0.8-2.9,0.8c0,0.6-0.4,1.2-1.2,1c-0.8-0.2-1.6-0.8-1.9-1.6c-0.2-0.2-0.2-0.8,0-1
				c1.4-2.1,4.5-2.5,6.4-0.8C36.5-20.1,36.3-19.3,35.7-19.1z"/>
			<path fill="#1B8EC1" d="M21.2-25.9c-1.7,0.8-3.5,1.2-5.2,1.2l0,0l0,0c-0.2,0-0.4,0-0.4,0c-0.8,0-1.4-0.8-1-1.4
				c0.8-1.2,2.1-1.7,3.5-1.4c0.4,0,0.6,0.2,0.6,0.6c0.6-0.2,1-0.4,1.6-0.6C21.3-28.1,22.3-26.3,21.2-25.9z"/>
			<path fill="#1B8EC1" d="M5.1-13.5l-0.2,0.2c-0.2,1.2-1,2.1-2.1,2.7l0,0c0.4,1-1.2,1.9-1.7,0.8c-0.6-1.6-1.4-3.3-0.8-5.2
				c0.4-1.6,1.9-2.5,3.5-2.3c1.4,0.2,1.6,2.1,1.6,3.3C5.2-13.9,5.2-13.7,5.1-13.5z"/>
		</g>
	</g>
</pattern>
<g>
	<g>
		<path fill="#EDEDED" d="M874.1,619.2c-53.8-28.8-88.1-83.3-142.3-111.3c-27.3-14-57.9-18.8-86.6-29.1
			c-15.1-5.5-29.9-12.5-42.4-23.2c-12.5-10.7-22.5-22.5-38-29.9c-6.6-2.9-13.3-5.2-19.9-7.4c-4.8-1.5-9.2-2.6-14,0
			c-9.6,4.4-11.4,20.3-14.7,28.8c-10.3,24.3-30.6,43.1-50.5,59.3c-21,17-43.1,32.8-62.3,52c-19.9,20.3-36.9,43.1-53.1,66.3
			c-4.4-1.1-9.2,0.4-12.2,4.1c-4.1,5.2-1.1,13.3,4.1,16.2c7,25.1,25.8,45.3,50.5,54.6c16.2,6.3,34.3,7.7,51.2,9.2
			c18.8,1.8,37.6,2.2,56.4,1.5c37.2-1.1,73.7-7.7,109.8-17.7c18.4-5.2,36.5-10.7,55.3-14.7c18.1-4.1,36.1-6.6,54.6-9.2
			c29.9-4.4,59.7-8.1,89.2-15.1c22.9-5.5,52.3-11.8,66-33.2C874.8,620.3,874.5,619.2,874.1,619.2z"/>
		<pattern  id="SVGID_2_" xlink:href="#SVGID_1_" patternTransform="matrix(2.3661 0 0 -2.3661 -573.395 -17201.1719)">
		</pattern>
		<path opacity="9.000000e-02" fill="url(#SVGID_2_)" enable-background="new    " d="M875.6,619.2
			c-53.8-28.8-88.1-83.3-142.3-111.3c-27.3-14-57.9-18.8-86.6-29.1c-15.1-5.5-29.9-12.5-42.4-23.2c-12.5-10.7-22.5-22.5-38-29.9
			c-6.6-2.9-13.3-5.2-19.9-7.4c-4.8-1.5-9.2-2.6-14,0c-9.6,4.4-11.4,20.3-14.7,28.8c-10.3,24.3-30.6,43.1-50.5,59.3
			c-21,17-43.1,32.8-62.3,52c-19.9,20.3-36.9,43.1-53.1,66.3c-4.4-1.1-9.2,0.4-12.2,4.1c-4.1,5.2-1.1,13.3,4.1,16.2
			c7,25.1,25.8,45.3,50.5,54.6c16.2,6.3,34.3,7.7,51.2,9.2c18.8,1.8,37.6,2.2,56.4,1.5c37.2-1.1,73.7-7.7,109.8-17.7
			c18.4-5.2,36.5-10.7,55.3-14.7c18.1-4.1,36.1-6.6,54.6-9.2c29.9-4.4,59.7-8.1,89.2-15.1c22.9-5.5,52.3-11.8,66-33.2
			C876.3,620.3,876.3,619.2,875.6,619.2z"/>
		<path opacity="7.000000e-02" enable-background="new    " d="M349.2,624.4c-4.4-1.1-9.2,0.4-12.2,4.1c-4.1,5.2-1.1,13.3,4.1,16.2
			c7,25.1,25.8,45.3,50.5,54.6c16.2,6.3,34.3,7.7,51.2,9.2c18.8,1.8,37.6,2.2,56.4,1.5c37.2-1.1,73.7-7.7,109.8-17.7
			C627.5,687.8,404.1,733.9,349.2,624.4z"/>
		<path opacity="7.000000e-02" enable-background="new    " d="M873.4,619.2c-49.4-34.3-36.9-28.4-47.5-3.7
			c-18.8,32.8-233.3,82.2-216.4,77.4c18.4-5.2,36.5-10.7,55.3-14.7c18.1-4.1,36.1-6.6,54.6-9.2c29.9-4.4,59.7-8.1,89.2-15.1
			c22.9-5.5,52.3-11.8,66-33.2C874.1,620.3,873.7,619.6,873.4,619.2z"/>
	</g>
	<path fill="#EDEDED" d="M547.1,838.5c-2.2-2.2-5.5-2.2-7.7,0l-0.7,0.7c-2.2,2.2-2.2,5.5,0,7.7c2.2,2.2,5.5,2.2,7.7,0
		c0.4-0.4,0.7-0.7,0.7-0.7C549.3,844.1,549.3,840.8,547.1,838.5z"/>
	<path fill="#EDEDED" d="M584.7,806.5L584.7,806.5c-7.4,0-7.4,11.1,0,11.1l0,0C591.7,817.5,591.7,806.5,584.7,806.5z"/>
	<path fill="#EDEDED" d="M626.4,790.6l-0.7-0.7c-2.2-2.2-5.5-2.2-7.7,0c-2.2,2.2-2.2,5.5,0,7.7c0.4,0.4,0.7,0.7,0.7,0.7
		c2.2,2.2,5.5,2.2,7.7,0C628.6,796.2,628.6,792.8,626.4,790.6z"/>
	<path fill="#EDEDED" d="M710.1,784.4L710.1,784.4c0,7.4,11.1,7.4,11.1,0l0,0C721.1,777,710.1,777,710.1,784.4z"/>
	<path fill="#EDEDED" d="M754.3,757.8c-7.4,0-7.4,11.1,0,11.1S761.7,757.8,754.3,757.8z"/>
	<path fill="#EDEDED" d="M788.6,754.5c-1.5-2.6-4.8-3.3-7.7-1.8c-0.7,0.4-1.1,0.7-1.8,1.1c-2.6,1.5-3.3,5.2-1.8,7.7
		c1.5,2.6,4.8,3.3,7.7,1.8c0.7-0.4,1.1-0.7,1.8-1.1C788.9,760.8,790,757.1,788.6,754.5z"/>
	<path fill="#EDEDED" d="M735.9,798.4c-7,0-7,11.1,0,11.1C742.9,809.4,742.9,798.4,735.9,798.4z"/>
	<path fill="#EDEDED" d="M853.8,758.6c-7.4,0-7.4,11.1,0,11.1S861.2,758.6,853.8,758.6z"/>
	<path fill="#EDEDED" d="M183,698.8c-7.4,0-7.4,11.1,0,11.1S190.3,698.8,183,698.8z"/>
	<path fill="#EDEDED" d="M190.3,718L190.3,718c-7,0-7,11.1,0,11.1l0,0C197.7,729.1,197.7,718,190.3,718z"/>
	<path fill="#EDEDED" d="M175.6,714.3L175.6,714.3c-7.4,0-7.4,11.1,0,11.1l0,0C183,725.4,183,714.3,175.6,714.3z"/>
	<path fill="#EDEDED" d="M190.3,740.9c-3.7,0-3.7,11.1,0,11.1C197.7,751.9,197.7,740.9,190.3,740.9z"/>
	<path fill="#EDEDED" d="M407.8,887.6L407.8,887.6c-7.4,0-7.4,11.1,0,11.1l0,0C415.2,898.6,415.2,887.6,407.8,887.6z"/>
	<path fill="#EDEDED" d="M241.9,903.4c-7,0-7,11.1,0,11.1S248.9,903.4,241.9,903.4z"/>
	<path fill="#EDEDED" d="M359.9,852.2c-1.5-2.6-4.8-3.3-7.7-1.8c-0.4,0.4-0.7,0.4-1.1,0.7c-2.6,1.5-3.3,5.2-1.8,7.7
		c1.5,2.6,4.8,3.3,7.7,1.8c0.4-0.4,0.7-0.4,1.1-0.7C360.6,858.4,361.4,854.8,359.9,852.2z"/>
	<path fill="#EDEDED" d="M496.3,807.6c-7.4,0-7.4,11.1,0,11.1C503.6,818.6,503.6,807.6,496.3,807.6z"/>
	<path fill="#EDEDED" d="M942.3,791.7h-3.7c-3.7,0-3.7,11.1,0,11.1h3.7C949.7,802.8,949.7,791.7,942.3,791.7z"/>
	<path fill="#EDEDED" d="M960.7,747.5L960.7,747.5c-7.4,0-7.4,11.1,0,11.1l0,0C968.1,758.6,968.1,747.5,960.7,747.5z"/>
	<path fill="#EDEDED" d="M1058.8,859.2c-0.7-2.9-3.7-4.4-6.6-3.7c-2.9,0.7-5.2,2.9-5.9,5.9s0.7,5.9,3.7,6.6c2.2,0.7,5.2-0.4,6.3-2.6
		C1058.4,864,1059.5,861.4,1058.8,859.2z"/>
	<path fill="#EDEDED" d="M1045.5,763c-7.4,0-7.4,11.1,0,11.1C1052.9,774,1052.9,763,1045.5,763z"/>
	<path fill="#EDEDED" d="M1082.3,721.7L1082.3,721.7c0,7.4,11.1,7.4,11.1,0l0,0C1093.4,714.3,1082.3,714.3,1082.3,721.7z"/>
	<path fill="#EDEDED" d="M153.5,826.7c-7,0-7,11.1,0,11.1C160.5,837.8,160.5,826.7,153.5,826.7z"/>
	<path fill="#EDEDED" d="M-1.3,800.9c-7,0-7,11.1,0,11.1S5.7,800.9-1.3,800.9z"/>
	<path fill="#EDEDED" d="M-5,718h-7.4c-7,0-7,11.1,0,11.1H-5C2,729.1,2,718-5,718z"/>
	<path fill="#EDEDED" d="M98.2,719.9c-7,0-7,11.1,0,11.1C105.2,730.9,105.2,719.9,98.2,719.9z"/>
	<path fill="#EDEDED" d="M102.2,798.7l-3.7-3.7c-2.2-2.2-5.5-2.2-7.7,0c-2.2,2.2-2.2,5.5,0,7.7c1.1,1.1,2.6,2.6,3.7,3.7
		c2.2,2.2,5.5,2.2,7.7,0C104.1,804.6,104.1,800.9,102.2,798.7z"/>
	<path fill="#EDEDED" d="M42.9,714.3h-3.7c-7,0-7,11.1,0,11.1h3.7C49.9,725.4,49.9,714.3,42.9,714.3z"/>
	<path fill="#EDEDED" d="M146.5,640.2l-3.7-3.7c-2.2-2.2-5.5-2.2-7.7,0c-2.2,2.2-2.2,5.5,0,7.7c1.1,1.1,2.6,2.6,3.7,3.7
		c2.2,2.2,5.5,2.2,7.7,0C148.3,646.1,148.3,642.4,146.5,640.2z"/>
	<path fill="#EDEDED" d="M1134,620.3c-7,0-7,11.1,0,11.1C1141,631.4,1141,620.3,1134,620.3z"/>
	<path fill="#EDEDED" d="M979.1,552.1v3.7c0,7,11.1,7,11.1,0v-3.7C990.2,545.1,979.1,545.1,979.1,552.1z"/>
	<path fill="#EDEDED" d="M1160.5,548.5c-1.5-2.6-4.8-3.3-7.7-1.8c-2.6,1.5-4.8,2.6-7.4,4.1c-2.6,1.5-3.3,5.2-1.8,7.7
		c1.5,2.6,4.8,3.3,7.7,1.8c2.6-1.5,4.8-2.6,7.4-4.1S1162,551,1160.5,548.5z"/>
	<path fill="#EDEDED" d="M1027.4,588.6c-2.2-2.2-5.5-2.2-7.7,0l-3.7,3.7c-2.2,2.2-2.2,5.5,0,7.7c2.2,2.2,5.5,2.2,7.7,0
		c1.1-1.1,2.6-2.6,3.7-3.7C1029.3,594.5,1029.3,590.8,1027.4,588.6z"/>
	<path fill="#EDEDED" d="M1108.5,603.4c-2.2-2.2-5.5-2.2-7.7,0l-3.7,3.7c-2.2,2.2-2.2,5.5,0,7.7c2.2,2.2,5.5,2.2,7.7,0
		c1.1-1.1,2.6-2.6,3.7-3.7C1110.4,609.3,1110.4,605.6,1108.5,603.4z"/>
	<path fill="#EDEDED" d="M50.3,624c-7,0-7,11.1,0,11.1S57.3,624,50.3,624z"/>
	<path fill="#EDEDED" d="M-71.4,673.8h-3.7c-7,0-7,11.1,0,11.1h3.7C-64.4,684.8-64.4,673.8-71.4,673.8z"/>
	<path fill="#EDEDED" d="M-200.4,683c-7,0-7,11.1,0,11.1S-193.4,683-200.4,683z"/>
	<path fill="#EDEDED" d="M194,572.4c-7,0-7,11.1,0,11.1S201,572.4,194,572.4z"/>
	<path fill="#EDEDED" d="M1233.5,613c-7,0-7,11.1,0,11.1C1240.5,624,1240.5,613,1233.5,613z"/>
	<path fill="#EDEDED" d="M1336.7,684.8h-3.7c-7,0-7,11.1,0,11.1h3.7C1343.7,695.9,1343.7,684.8,1336.7,684.8z"/>
	<path fill="#EDEDED" d="M1251.9,878.4c-7,0-7,11.1,0,11.1C1258.9,889.4,1258.9,878.4,1251.9,878.4z"/>
	<path fill="#EDEDED" d="M798.5,911.5c-7,0-7,11.1,0,11.1C805.5,922.6,805.5,911.5,798.5,911.5z"/>
	<path fill="#EDEDED" d="M606.9,920.7v3.7c0,7,11.1,7,11.1,0v-3.7C617.9,913.7,606.9,913.7,606.9,920.7z"/>
</g>
<g>
	<circle opacity="0.2" fill="#FFFFFF" enable-background="new    " cx="621.2" cy="482.8" r="11.8"/>
	
		<line fill="none" stroke="#A0682A" stroke-width="3" stroke-linecap="round" stroke-miterlimit="10" x1="727.4" y1="65.6" x2="621.6" y2="482.1"/>
	<g>
		<polygon opacity="0.1" fill="#12100B" enable-background="new    " points="1089,294.9 662.9,348.7 736.6,58.6 		"/>
		<polygon fill="#DF5252" points="1080.1,301.5 654,354.9 727.4,64.8 		"/>
		<polygon opacity="0.1" fill="#12100B" enable-background="new    " points="980.6,314 974.7,314.8 992.8,242.9 997.6,246.2 		"/>
		<polygon opacity="0.1" fill="#12100B" enable-background="new    " points="966.6,315.9 961.1,316.6 981.4,235.5 986.5,238.5 		
			"/>
		<polygon opacity="0.1" fill="#12100B" enable-background="new    " points="952.6,317.3 946.7,318.1 969.9,227.4 974.7,230.7 		
			"/>
		<polygon opacity="0.1" fill="#12100B" enable-background="new    " points="939,319.2 933.1,319.9 958.5,220 963.3,223.3 		"/>
		<polygon opacity="0.1" fill="#12100B" enable-background="new    " points="925.3,321 919.4,321.8 947.1,212.3 952.2,215.6 		"/>
		<polygon opacity="0.1" fill="#12100B" enable-background="new    " points="911.7,322.5 905.8,323.2 936,204.9 940.8,207.9 		"/>
		<polygon opacity="0.1" fill="#12100B" enable-background="new    " points="897.3,324.3 891.8,325.1 924.2,196.8 929,200.1 		"/>
		<polygon opacity="0.1" fill="#12100B" enable-background="new    " points="883.7,326.2 878.1,326.9 912.8,189.4 917.6,192.4 		
			"/>
		<polygon opacity="0.1" fill="#12100B" enable-background="new    " points="1077.6,301.9 1071.7,302.6 1073.1,296.7 1077.9,300 		
			"/>
		<polygon opacity="0.1" fill="#12100B" enable-background="new    " points="1063.2,303.7 1057.3,304.4 1061.3,289 1066.1,292.3 		
			"/>
		<polygon opacity="0.1" fill="#12100B" enable-background="new    " points="1049.5,305.2 1043.6,305.9 1049.9,281.2 1054.7,284.5 
					"/>
		<polygon opacity="0.1" fill="#12100B" enable-background="new    " points="1035.9,307 1030,307.8 1038.9,273.8 1043.6,277.2 		
			"/>
		<polygon opacity="0.1" fill="#12100B" enable-background="new    " points="1022.3,308.9 1016.4,309.6 1027.4,266.1 1032.2,269.4 
					"/>
		<polygon opacity="0.1" fill="#12100B" enable-background="new    " points="1008.3,310.3 1002.4,311.1 1015.6,258.4 1020.4,261.7 
					"/>
		<polygon opacity="0.1" fill="#12100B" enable-background="new    " points="994.6,312.2 988.7,312.9 1004.6,250.6 1009.4,253.9 		
			"/>
		<polygon opacity="0.1" fill="#12100B" enable-background="new    " points="759.5,341.7 753.6,342.4 810,120.1 814.7,123.5 		"/>
		<polygon opacity="0.1" fill="#12100B" enable-background="new    " points="745.8,343.5 739.9,344.2 798.5,112.8 803.3,115.7 		
			"/>
		<polygon opacity="0.1" fill="#12100B" enable-background="new    " points="731.4,345.4 725.5,346.1 787.1,104.7 791.9,108 		"/>
		<polygon opacity="0.1" fill="#12100B" enable-background="new    " points="717.8,346.8 711.9,347.6 775.7,97.3 780.5,100.2 		"/>
		<polygon opacity="0.1" fill="#12100B" enable-background="new    " points="704.2,348.7 698.3,349.4 764.2,89.5 769,92.9 		"/>
		<polygon opacity="0.1" fill="#12100B" enable-background="new    " points="690.5,350.5 684.6,351.2 753.2,82.2 758,85.1 		"/>
		<polygon opacity="0.1" fill="#12100B" enable-background="new    " points="676.5,352 670.6,352.7 741.4,74.1 746.2,77.4 		"/>
		<polygon opacity="0.1" fill="#12100B" enable-background="new    " points="662.9,353.8 657,354.6 730,66.7 734.8,69.6 		"/>
		<polygon opacity="0.1" fill="#12100B" enable-background="new    " points="870,327.7 864.1,328.4 901.4,181.7 906.2,185 		"/>
		<polygon opacity="0.1" fill="#12100B" enable-background="new    " points="856.4,329.5 850.5,330.2 890.3,173.9 895.1,177.3 		
			"/>
		<polygon opacity="0.1" fill="#12100B" enable-background="new    " points="842,331.3 836.1,332.1 878.5,166.2 883.3,169.5 		"/>
		<polygon opacity="0.1" fill="#12100B" enable-background="new    " points="828.4,333.2 822.5,333.9 867.1,158.5 871.9,161.8 		
			"/>
		<polygon opacity="0.1" fill="#12100B" enable-background="new    " points="814.7,334.7 808.8,335.4 856,151.1 860.8,154.4 		"/>
		<polygon opacity="0.1" fill="#12100B" enable-background="new    " points="801.1,336.5 795.2,337.2 844.6,143.4 849.4,146.7 		
			"/>
		<polygon opacity="0.1" fill="#12100B" enable-background="new    " points="787.1,338.3 781.2,339.1 832.8,135.6 837.6,138.9 		
			"/>
		<polygon opacity="0.1" fill="#12100B" enable-background="new    " points="773.5,339.8 767.6,340.6 821.4,127.9 826.5,131.2 		
			"/>
		<polygon fill="#FFFFFF" points="688.3,337.6 692,338.3 696.1,322.1 692.4,321.4 		"/>
		<polygon fill="#FFFFFF" points="694.6,312.2 698.3,313.3 702.3,297.1 698.6,296 		"/>
		<polygon fill="#FFFFFF" points="700.8,287.1 704.5,288.2 709,271.6 705.3,270.9 		"/>
		<polygon fill="#FFFFFF" points="707.5,262 711.2,262.8 715.2,246.6 711.5,245.5 		"/>
		<polygon fill="#FFFFFF" points="713.7,236.6 717.4,237.7 721.5,221.1 717.8,220.4 		"/>
		<polygon fill="#FFFFFF" points="720.4,211.5 724.1,212.3 728.1,196.1 724.4,195 		"/>
		<polygon fill="#FFFFFF" points="726.6,186.1 730.3,187.2 734.4,171 730.7,169.9 		"/>
		<polygon fill="#FFFFFF" points="732.9,161 736.6,161.8 741,145.6 737.3,144.8 		"/>
		<polygon fill="#FFFFFF" points="739.5,135.6 743.2,136.7 747.3,120.5 743.6,119.4 		"/>
		<polygon fill="#FFFFFF" points="745.8,110.5 749.5,111.7 753.6,95.1 749.9,94.3 		"/>
		<g>
			
				<rect x="747.7" y="211.8" transform="matrix(-0.9692 -0.2462 0.2462 -0.9692 1634.5052 685.1481)" fill="none" width="224.8" height="57.1"/>
			
				<text transform="matrix(0.9692 0.2462 -0.2463 0.9692 744.5329 239.8081)" fill="#FFFFFF" font-family="'helsinkiregular'" font-size="57.7321">{{sel1}}</text>
		</g>
		
			<rect x="720.8" y="281.3" transform="matrix(-0.9825 0.1864 -0.1864 -0.9825 1661.1414 452.822)" fill="none" width="176.9" height="46.4"/>
		
			<text transform="matrix(0.9825 -0.1864 0.1864 0.9825 725.7287 337.4465)" fill="#FFFFFF" font-family="'Courgette'" font-size="58.4964">de sel</text>
	</g>
</g>
</svg>
