<?xml version="1.0" encoding="utf-8"?>
<!-- Generator: Adobe Illustrator 18.0.0, SVG Export Plug-In . SVG Version: 6.00 Build 0)  -->
<!DOCTYPE svg PUBLIC "-//W3C//DTD SVG 1.1//EN" "http://www.w3.org/Graphics/SVG/1.1/DTD/svg11.dtd">
<svg version="1.1" id="Calque_1" xmlns="http://www.w3.org/2000/svg" xmlns:xlink="http://www.w3.org/1999/xlink" x="0px" y="0px"
	 viewBox="0 0 460 296" enable-background="new 0 0 460 296" xml:space="preserve">
<pattern  x="-399" y="-252" width="21.2" height="14.2" patternUnits="userSpaceOnUse" id="Nouvelle_nuance_de_motif_2" viewBox="0.2 -14.4 21.2 14.2" overflow="visible">
	<g>
		<polygon fill="none" points="0.2,-0.2 21.4,-0.2 21.4,-14.4 0.2,-14.4 		"/>
		<path fill="#1B8EC1" d="M6-7c0-0.3,0.1-0.8,0.4-0.8c0.6-0.1,0.6-1.1,0-1C5.7-8.7,5.2-8.3,5-7.7c0,0.1-0.3,0.1-0.3,0.2
			C4.4-7.5,3.9-7.3,3.9-7v0.2c0,0.4,0.7,0.6,1,0.4C5-5.9,5.4-5.6,5.6-5.2c0.2,0.3,0.9,0.3,1-0.1l0.3-1.2C6.9-7.2,6.2-7.4,6-7z"/>
		<path fill="#1B8EC1" d="M16.5-7.9c-0.2-0.2-0.5-0.5-0.7-0.7c-0.1-0.1-0.3-0.2-0.5-0.1c0,0-0.1,0-0.1,0c0-0.1-0.1-0.1-0.1-0.2
			c-0.2-0.6-1.1-0.4-1,0.3c0,0.1,0.1,0.2,0.2,0.4c-0.3,0.4,0,1,0.5,0.8c0,0,0,0,0.1,0C15.2-7.2,15.6-7,16.1-7
			C16.6-7,16.8-7.6,16.5-7.9z"/>
		<path fill="#1B8EC1" d="M10.9-6.4C10.8-6.5,10.8-6.5,10.9-6.4c-0.2-0.3-0.5-0.4-0.7-0.2c-0.5,0-0.7,0.8-0.2,1
			c0.1,0,0.2,0.1,0.2,0.1c0.4,0.5,0.7,1.1,1.2,1.5c0.4,0.4,0.9,0,0.8-0.5C12.1-5.4,11.6-6.1,10.9-6.4z"/>
		<path fill="#1B8EC1" d="M12.2-9.4c-0.3-0.8-0.9-1.4-1.8-1.6c-0.3-0.1-0.9-0.1-1.1,0.2C9-10.5,8.8-9.9,8.9-9.5c0.1,0.6,1,0.6,1,0
			c0,0,0,0,0,0c1,0.2,1,0.4,1.5,0.7C11.8-8.7,12.3-8.9,12.2-9.4z"/>
		<path fill="#1B8EC1" d="M5.8-12.8c-0.2-0.1-0.3,0-0.5,0c0-0.1,0-0.1,0-0.2c-0.1-0.6-1.1-0.6-1,0c0,0.4,0.2,0.7,0.3,1.1
			c0,0.2,0.1,0.3,0.2,0.3c0.3,0.4,0.8,0.7,1.3,0.7c0.4,0.1,0.7-0.2,0.6-0.6C6.7-12.1,6.4-12.6,5.8-12.8z"/>
		<path fill="#1B8EC1" d="M10.3-13c-0.3,1-1.4,1.1-2.1,0.6c-0.4-0.3-0.7-0.5-0.9-1c-0.1-0.2,0-0.5,0.2-0.7c0.1-0.2,0.3-0.3,0.5-0.3
			C8.7-14.3,10.6-14.2,10.3-13z"/>
		<path fill="#1B8EC1" d="M14.2-12.1c-0.1,0.1-0.3,0.2-0.5,0.1c-0.7-0.2-1.7-0.7-1.5-1.6c0.2-0.7,1.1-1.2,1.6-0.6
			c0,0,0.1,0.1,0.1,0.1c0.1,0,0.2,0,0.3,0.2C14.7-13.3,14.7-12.6,14.2-12.1z"/>
		<path fill="#1B8EC1" d="M21.3-7.9c-0.7-0.9-1.4-1.8-2.2-2.6c-0.4-0.5-1.1,0.2-0.7,0.7c0.7,0.9,1.4,1.8,2.2,2.6
			C21-6.7,21.7-7.4,21.3-7.9z"/>
		<path fill="#1B8EC1" d="M18.6-4.6c-0.5-0.3-1-0.4-1.5-0.4c0-0.3-0.2-0.6-0.6-0.5c-0.4,0.1-0.8,0.4-1,0.8c-0.1,0.1-0.1,0.4,0,0.5
			c0.7,1.1,2.3,1.3,3.3,0.4C19-4.1,18.9-4.5,18.6-4.6z"/>
		<path fill="#1B8EC1" d="M11.1-1.1c-0.9-0.4-1.8-0.6-2.7-0.6c0,0,0,0,0,0c0,0,0,0,0,0c-0.1,0-0.2,0-0.2,0C7.8-1.7,7.5-1.3,7.7-1
			c0.4,0.6,1.1,0.9,1.8,0.7c0.2,0,0.3-0.1,0.3-0.3c0.3,0.1,0.5,0.2,0.8,0.3C11.2,0,11.7-0.9,11.1-1.1z"/>
		<path fill="#1B8EC1" d="M2.8-7.5c0,0-0.1-0.1-0.1-0.1C2.6-8.2,2.2-8.7,1.6-9c0,0,0,0,0,0C1.8-9.5,1-10,0.7-9.4
			C0.4-8.6,0-7.7,0.3-6.7c0.2,0.8,1,1.3,1.8,1.2c0.7-0.1,0.8-1.1,0.8-1.7C2.9-7.3,2.9-7.4,2.8-7.5z"/>
	</g>
</pattern>
<g>
	<g>
		<path fill="#EDEDED" d="M323.5,182.2c-14.6-7.8-23.9-22.6-38.6-30.2c-7.4-3.8-15.7-5.1-23.5-7.9c-4.1-1.5-8.1-3.4-11.5-6.3
			c-3.4-2.9-6.1-6.1-10.3-8.1c-1.8-0.8-3.6-1.4-5.4-2c-1.3-0.4-2.5-0.7-3.8,0c-2.6,1.2-3.1,5.5-4,7.8c-2.8,6.6-8.3,11.7-13.7,16.1
			c-5.7,4.6-11.7,8.9-16.9,14.1c-5.4,5.5-10,11.7-14.4,18c-1.2-0.3-2.5,0.1-3.3,1.1c-1.1,1.4-0.3,3.6,1.1,4.4
			c1.9,6.8,7,12.3,13.7,14.8c4.4,1.7,9.3,2.1,13.9,2.5c5.1,0.5,10.2,0.6,15.3,0.4c10.1-0.3,20-2.1,29.8-4.8c5-1.4,9.9-2.9,15-4
			c4.9-1.1,9.8-1.8,14.8-2.5c8.1-1.2,16.2-2.2,24.2-4.1c6.2-1.5,14.2-3.2,17.9-9C323.7,182.5,323.6,182.2,323.5,182.2z"/>
		
			<pattern  id="SVGID_1_" xlink:href="#Nouvelle_nuance_de_motif_2" patternTransform="matrix(0.6419 0 0 0.6419 -2511.8889 -2580.1208)">
		</pattern>
		<path opacity="9.000000e-02" fill="url(#SVGID_1_)" d="M323.9,182.2c-14.6-7.8-23.9-22.6-38.6-30.2c-7.4-3.8-15.7-5.1-23.5-7.9
			c-4.1-1.5-8.1-3.4-11.5-6.3c-3.4-2.9-6.1-6.1-10.3-8.1c-1.8-0.8-3.6-1.4-5.4-2c-1.3-0.4-2.5-0.7-3.8,0c-2.6,1.2-3.1,5.5-4,7.8
			c-2.8,6.6-8.3,11.7-13.7,16.1c-5.7,4.6-11.7,8.9-16.9,14.1c-5.4,5.5-10,11.7-14.4,18c-1.2-0.3-2.5,0.1-3.3,1.1
			c-1.1,1.4-0.3,3.6,1.1,4.4c1.9,6.8,7,12.3,13.7,14.8c4.4,1.7,9.3,2.1,13.9,2.5c5.1,0.5,10.2,0.6,15.3,0.4
			c10.1-0.3,20-2.1,29.8-4.8c5-1.4,9.9-2.9,15-4c4.9-1.1,9.8-1.8,14.8-2.5c8.1-1.2,16.2-2.2,24.2-4.1c6.2-1.5,14.2-3.2,17.9-9
			C324.1,182.5,324.1,182.2,323.9,182.2z"/>
		<path opacity="7.000000e-02" d="M181.1,183.6c-1.2-0.3-2.5,0.1-3.3,1.1c-1.1,1.4-0.3,3.6,1.1,4.4c1.9,6.8,7,12.3,13.7,14.8
			c4.4,1.7,9.3,2.1,13.9,2.5c5.1,0.5,10.2,0.6,15.3,0.4c10.1-0.3,20-2.1,29.8-4.8C256.6,200.8,196,213.3,181.1,183.6z"/>
		<path opacity="7.000000e-02" d="M323.3,182.2c-13.4-9.3-10-7.7-12.9-1c-5.1,8.9-63.3,22.3-58.7,21c5-1.4,9.9-2.9,15-4
			c4.9-1.1,9.8-1.8,14.8-2.5c8.1-1.2,16.2-2.2,24.2-4.1c6.2-1.5,14.2-3.2,17.9-9C323.5,182.5,323.4,182.3,323.3,182.2z"/>
	</g>
	<path fill="#EDEDED" d="M234.8,241.7c-0.6-0.6-1.5-0.6-2.1,0l-0.2,0.2c-0.6,0.6-0.6,1.5,0,2.1c0.6,0.6,1.5,0.6,2.1,0
		c0.1-0.1,0.2-0.2,0.2-0.2C235.4,243.2,235.4,242.3,234.8,241.7z"/>
	<path fill="#EDEDED" d="M245,233L245,233c-2,0-2,3,0,3l0,0C246.9,236,246.9,233,245,233z"/>
	<path fill="#EDEDED" d="M256.3,228.7l-0.2-0.2c-0.6-0.6-1.5-0.6-2.1,0c-0.6,0.6-0.6,1.5,0,2.1c0.1,0.1,0.2,0.2,0.2,0.2
		c0.6,0.6,1.5,0.6,2.1,0C256.9,230.2,256.9,229.3,256.3,228.7z"/>
	<path fill="#EDEDED" d="M279,227L279,227c0,2,3,2,3,0l0,0C282,225,279,225,279,227z"/>
	<path fill="#EDEDED" d="M291,219.8c-2,0-2,3,0,3S293,219.8,291,219.8z"/>
	<path fill="#EDEDED" d="M300.3,218.9c-0.4-0.7-1.3-0.9-2.1-0.5c-0.2,0.1-0.3,0.2-0.5,0.3c-0.7,0.4-0.9,1.4-0.5,2.1
		c0.4,0.7,1.3,0.9,2.1,0.5c0.2-0.1,0.3-0.2,0.5-0.3C300.4,220.6,300.7,219.6,300.3,218.9z"/>
	<path fill="#EDEDED" d="M286,230.8c-1.9,0-1.9,3,0,3S287.9,230.8,286,230.8z"/>
	<path fill="#EDEDED" d="M318,220c-2,0-2,3,0,3S320,220,318,220z"/>
	<path fill="#EDEDED" d="M136,203.8c-2,0-2,3,0,3S138,203.8,136,203.8z"/>
	<path fill="#EDEDED" d="M138,209L138,209c-1.9,0-1.9,3,0,3l0,0C140,212,140,209,138,209z"/>
	<path fill="#EDEDED" d="M134,208L134,208c-2,0-2,3,0,3l0,0C136,211,136,208,134,208z"/>
	<path fill="#EDEDED" d="M138,215.2c-1,0-1,3,0,3C140,218.2,140,215.2,138,215.2z"/>
	<path fill="#EDEDED" d="M197,255L197,255c-2,0-2,3,0,3l0,0C199,258,199,255,197,255z"/>
	<path fill="#EDEDED" d="M152,259.3c-1.9,0-1.9,3,0,3S153.9,259.3,152,259.3z"/>
	<path fill="#EDEDED" d="M184,245.4c-0.4-0.7-1.3-0.9-2.1-0.5c-0.1,0.1-0.2,0.1-0.3,0.2c-0.7,0.4-0.9,1.4-0.5,2.1
		c0.4,0.7,1.3,0.9,2.1,0.5c0.1-0.1,0.2-0.1,0.3-0.2C184.2,247.1,184.4,246.1,184,245.4z"/>
	<path fill="#EDEDED" d="M221,233.3c-2,0-2,3,0,3S223,233.3,221,233.3z"/>
	<path fill="#EDEDED" d="M342,229h-1c-1,0-1,3,0,3h1C344,232,344,229,342,229z"/>
	<path fill="#EDEDED" d="M347,217L347,217c-2,0-2,3,0,3l0,0C349,220,349,217,347,217z"/>
	<path fill="#EDEDED" d="M373.6,247.3c-0.2-0.8-1-1.2-1.8-1c-0.8,0.2-1.4,0.8-1.6,1.6c-0.2,0.8,0.2,1.6,1,1.8
		c0.6,0.2,1.4-0.1,1.7-0.7C373.5,248.6,373.8,247.9,373.6,247.3z"/>
	<path fill="#EDEDED" d="M370,221.2c-2,0-2,3,0,3S372,221.2,370,221.2z"/>
	<path fill="#EDEDED" d="M380,210L380,210c0,2,3,2,3,0l0,0C383,208,380,208,380,210z"/>
	<path fill="#EDEDED" d="M128,238.5c-1.9,0-1.9,3,0,3S129.9,238.5,128,238.5z"/>
	<path fill="#EDEDED" d="M86,231.5c-1.9,0-1.9,3,0,3S87.9,231.5,86,231.5z"/>
	<path fill="#EDEDED" d="M85,209h-2c-1.9,0-1.9,3,0,3h2C86.9,212,86.9,209,85,209z"/>
	<path fill="#EDEDED" d="M113,209.5c-1.9,0-1.9,3,0,3S114.9,209.5,113,209.5z"/>
	<path fill="#EDEDED" d="M114.1,230.9l-1-1c-0.6-0.6-1.5-0.6-2.1,0c-0.6,0.6-0.6,1.5,0,2.1c0.3,0.3,0.7,0.7,1,1
		c0.6,0.6,1.5,0.6,2.1,0C114.6,232.5,114.6,231.5,114.1,230.9z"/>
	<path fill="#EDEDED" d="M98,208h-1c-1.9,0-1.9,3,0,3h1C99.9,211,99.9,208,98,208z"/>
	<path fill="#EDEDED" d="M126.1,187.9l-1-1c-0.6-0.6-1.5-0.6-2.1,0c-0.6,0.6-0.6,1.5,0,2.1c0.3,0.3,0.7,0.7,1,1
		c0.6,0.6,1.5,0.6,2.1,0C126.6,189.5,126.6,188.5,126.1,187.9z"/>
	<path fill="#EDEDED" d="M394,182.5c-1.9,0-1.9,3,0,3S395.9,182.5,394,182.5z"/>
	<path fill="#EDEDED" d="M352,164v1c0,1.9,3,1.9,3,0v-1C355,162.1,352,162.1,352,164z"/>
	<path fill="#EDEDED" d="M401.2,163c-0.4-0.7-1.3-0.9-2.1-0.5c-0.7,0.4-1.3,0.7-2,1.1c-0.7,0.4-0.9,1.4-0.5,2.1
		c0.4,0.7,1.3,0.9,2.1,0.5c0.7-0.4,1.3-0.7,2-1.1C401.4,164.7,401.6,163.7,401.2,163z"/>
	<path fill="#EDEDED" d="M365.1,173.9c-0.6-0.6-1.5-0.6-2.1,0l-1,1c-0.6,0.6-0.6,1.5,0,2.1c0.6,0.6,1.5,0.6,2.1,0
		c0.3-0.3,0.7-0.7,1-1C365.6,175.5,365.6,174.5,365.1,173.9z"/>
	<path fill="#EDEDED" d="M387.1,177.9c-0.6-0.6-1.5-0.6-2.1,0l-1,1c-0.6,0.6-0.6,1.5,0,2.1c0.6,0.6,1.5,0.6,2.1,0
		c0.3-0.3,0.7-0.7,1-1C387.6,179.5,387.6,178.5,387.1,177.9z"/>
	<path fill="#EDEDED" d="M100,183.5c-1.9,0-1.9,3,0,3S101.9,183.5,100,183.5z"/>
	<path fill="#EDEDED" d="M67,197h-1c-1.9,0-1.9,3,0,3h1C68.9,200,68.9,197,67,197z"/>
	<path fill="#EDEDED" d="M32,199.5c-1.9,0-1.9,3,0,3S33.9,199.5,32,199.5z"/>
	<path fill="#EDEDED" d="M139,169.5c-1.9,0-1.9,3,0,3S140.9,169.5,139,169.5z"/>
	<path fill="#EDEDED" d="M421,180.5c-1.9,0-1.9,3,0,3S422.9,180.5,421,180.5z"/>
	<path fill="#EDEDED" d="M449,200h-1c-1.9,0-1.9,3,0,3h1C450.9,203,450.9,200,449,200z"/>
	<path fill="#EDEDED" d="M426,252.5c-1.9,0-1.9,3,0,3S427.9,252.5,426,252.5z"/>
	<path fill="#EDEDED" d="M303,261.5c-1.9,0-1.9,3,0,3S304.9,261.5,303,261.5z"/>
	<path fill="#EDEDED" d="M251,264v1c0,1.9,3,1.9,3,0v-1C254,262.1,251,262.1,251,264z"/>
</g>
<g>
	<circle opacity="0.2" fill="#FFFFFF" cx="254.9" cy="145.2" r="3.2"/>
	
		<line fill="none" stroke="#A0682A" stroke-width="3" stroke-linecap="round" stroke-miterlimit="10" x1="283.7" y1="32" x2="255" y2="145"/>
	<g>
		<polygon opacity="0.1" fill-rule="evenodd" clip-rule="evenodd" fill="#12100B" points="381.8,94.2 266.2,108.8 286.2,30.1 
			381.8,94.2 		"/>
		<polygon fill-rule="evenodd" clip-rule="evenodd" fill="#DF5252" points="379.4,96 263.8,110.5 283.7,31.8 379.4,96 		"/>
		<polygon opacity="0.1" fill-rule="evenodd" clip-rule="evenodd" fill="#12100B" points="352.4,99.4 350.8,99.6 355.7,80.1 357,81 
			352.4,99.4 		"/>
		<polygon opacity="0.1" fill-rule="evenodd" clip-rule="evenodd" fill="#12100B" points="348.6,99.9 347.1,100.1 352.6,78.1 
			354,78.9 348.6,99.9 		"/>
		<polygon opacity="0.1" fill-rule="evenodd" clip-rule="evenodd" fill="#12100B" points="344.8,100.3 343.2,100.5 349.5,75.9 
			350.8,76.8 344.8,100.3 		"/>
		<polygon opacity="0.1" fill-rule="evenodd" clip-rule="evenodd" fill="#12100B" points="341.1,100.8 339.5,101 346.4,73.9 
			347.7,74.8 341.1,100.8 		"/>
		<polygon opacity="0.1" fill-rule="evenodd" clip-rule="evenodd" fill="#12100B" points="337.4,101.3 335.8,101.5 343.3,71.8 
			344.7,72.7 337.4,101.3 		"/>
		<polygon opacity="0.1" fill-rule="evenodd" clip-rule="evenodd" fill="#12100B" points="333.7,101.7 332.1,101.9 340.3,69.8 
			341.6,70.6 333.7,101.7 		"/>
		<polygon opacity="0.1" fill-rule="evenodd" clip-rule="evenodd" fill="#12100B" points="329.8,102.2 328.3,102.4 337.1,67.6 
			338.4,68.5 329.8,102.2 		"/>
		<polygon opacity="0.1" fill-rule="evenodd" clip-rule="evenodd" fill="#12100B" points="326.1,102.7 324.6,102.9 334,65.6 
			335.3,66.4 326.1,102.7 		"/>
		<polygon opacity="0.1" fill-rule="evenodd" clip-rule="evenodd" fill="#12100B" points="378.7,96.1 377.1,96.3 377.5,94.7 
			378.8,95.6 378.7,96.1 		"/>
		<polygon opacity="0.1" fill-rule="evenodd" clip-rule="evenodd" fill="#12100B" points="374.8,96.6 373.2,96.8 374.3,92.6 
			375.6,93.5 374.8,96.6 		"/>
		<polygon opacity="0.1" fill-rule="evenodd" clip-rule="evenodd" fill="#12100B" points="371.1,97 369.5,97.2 371.2,90.5 
			372.5,91.4 371.1,97 		"/>
		<polygon opacity="0.1" fill-rule="evenodd" clip-rule="evenodd" fill="#12100B" points="367.4,97.5 365.8,97.7 368.2,88.5 
			369.5,89.4 367.4,97.5 		"/>
		<polygon opacity="0.1" fill-rule="evenodd" clip-rule="evenodd" fill="#12100B" points="363.7,98 362.1,98.2 365.1,86.4 
			366.4,87.3 363.7,98 		"/>
		<polygon opacity="0.1" fill-rule="evenodd" clip-rule="evenodd" fill="#12100B" points="359.9,98.4 358.3,98.6 361.9,84.3 
			363.2,85.2 359.9,98.4 		"/>
		<polygon opacity="0.1" fill-rule="evenodd" clip-rule="evenodd" fill="#12100B" points="356.2,98.9 354.6,99.1 358.9,82.2 
			360.2,83.1 356.2,98.9 		"/>
		<polygon opacity="0.1" fill-rule="evenodd" clip-rule="evenodd" fill="#12100B" points="292.4,106.9 290.8,107.1 306.1,46.8 
			307.4,47.7 292.4,106.9 		"/>
		<polygon opacity="0.1" fill-rule="evenodd" clip-rule="evenodd" fill="#12100B" points="288.7,107.4 287.1,107.6 303,44.8 
			304.3,45.6 288.7,107.4 		"/>
		<polygon opacity="0.1" fill-rule="evenodd" clip-rule="evenodd" fill="#12100B" points="284.8,107.9 283.2,108.1 299.9,42.6 
			301.2,43.5 284.8,107.9 		"/>
		<polygon opacity="0.1" fill-rule="evenodd" clip-rule="evenodd" fill="#12100B" points="281.1,108.3 279.5,108.5 296.8,40.6 
			298.1,41.4 281.1,108.3 		"/>
		<polygon opacity="0.1" fill-rule="evenodd" clip-rule="evenodd" fill="#12100B" points="277.4,108.8 275.8,109 293.7,38.5 
			295,39.4 277.4,108.8 		"/>
		<polygon opacity="0.1" fill-rule="evenodd" clip-rule="evenodd" fill="#12100B" points="273.7,109.3 272.1,109.5 290.7,36.5 
			292,37.3 273.7,109.3 		"/>
		<polygon opacity="0.1" fill-rule="evenodd" clip-rule="evenodd" fill="#12100B" points="269.9,109.7 268.3,109.9 287.5,34.3 
			288.8,35.2 269.9,109.7 		"/>
		<polygon opacity="0.1" fill-rule="evenodd" clip-rule="evenodd" fill="#12100B" points="266.2,110.2 264.6,110.4 284.4,32.3 
			285.7,33.1 266.2,110.2 		"/>
		<polygon opacity="0.1" fill-rule="evenodd" clip-rule="evenodd" fill="#12100B" points="322.4,103.1 320.8,103.3 330.9,63.5 
			332.2,64.4 322.4,103.1 		"/>
		<polygon opacity="0.1" fill-rule="evenodd" clip-rule="evenodd" fill="#12100B" points="318.7,103.6 317.1,103.8 327.9,61.4 
			329.2,62.3 318.7,103.6 		"/>
		<polygon opacity="0.1" fill-rule="evenodd" clip-rule="evenodd" fill="#12100B" points="314.8,104.1 313.2,104.3 324.7,59.3 
			326,60.2 314.8,104.1 		"/>
		<polygon opacity="0.1" fill-rule="evenodd" clip-rule="evenodd" fill="#12100B" points="311.1,104.6 309.5,104.8 321.6,57.2 
			322.9,58.1 311.1,104.6 		"/>
		<polygon opacity="0.1" fill-rule="evenodd" clip-rule="evenodd" fill="#12100B" points="307.4,105 305.8,105.2 318.6,55.2 
			319.9,56.1 307.4,105 		"/>
		<polygon opacity="0.1" fill-rule="evenodd" clip-rule="evenodd" fill="#12100B" points="303.7,105.5 302.1,105.7 315.5,53.1 
			316.8,54 303.7,105.5 		"/>
		<polygon opacity="0.1" fill-rule="evenodd" clip-rule="evenodd" fill="#12100B" points="299.9,106 298.3,106.2 312.3,51 
			313.6,51.9 299.9,106 		"/>
		<polygon opacity="0.1" fill-rule="evenodd" clip-rule="evenodd" fill="#12100B" points="296.2,106.4 294.6,106.6 309.2,48.9 
			310.6,49.8 296.2,106.4 		"/>
		<polygon fill-rule="evenodd" clip-rule="evenodd" fill="#FFFFFF" points="273.1,105.8 274.1,106 275.2,101.6 274.2,101.4 
			273.1,105.8 		"/>
		<polygon fill-rule="evenodd" clip-rule="evenodd" fill="#FFFFFF" points="274.8,98.9 275.8,99.2 276.9,94.8 275.9,94.5 
			274.8,98.9 		"/>
		<polygon fill-rule="evenodd" clip-rule="evenodd" fill="#FFFFFF" points="276.5,92.1 277.5,92.4 278.7,87.9 277.7,87.7 
			276.5,92.1 		"/>
		<polygon fill-rule="evenodd" clip-rule="evenodd" fill="#FFFFFF" points="278.3,85.3 279.3,85.5 280.4,81.1 279.4,80.8 
			278.3,85.3 		"/>
		<polygon fill-rule="evenodd" clip-rule="evenodd" fill="#FFFFFF" points="280,78.4 281,78.7 282.1,74.2 281.1,74 280,78.4 		"/>
		<polygon fill-rule="evenodd" clip-rule="evenodd" fill="#FFFFFF" points="281.8,71.6 282.8,71.8 283.9,67.4 282.9,67.1 
			281.8,71.6 		"/>
		<polygon fill-rule="evenodd" clip-rule="evenodd" fill="#FFFFFF" points="283.5,64.7 284.5,65 285.6,60.6 284.6,60.3 283.5,64.7 
					"/>
		<polygon fill-rule="evenodd" clip-rule="evenodd" fill="#FFFFFF" points="285.2,57.9 286.2,58.1 287.4,53.7 286.4,53.5 
			285.2,57.9 		"/>
		<polygon fill-rule="evenodd" clip-rule="evenodd" fill="#FFFFFF" points="287,51 288,51.3 289.1,46.9 288.1,46.6 287,51 		"/>
		<polygon fill-rule="evenodd" clip-rule="evenodd" fill="#FFFFFF" points="288.7,44.2 289.7,44.5 290.8,40 289.8,39.8 288.7,44.2 
					"/>
		<g>
			
				<rect x="289.2" y="71.7" transform="matrix(0.9692 0.2462 -0.2462 0.9692 29.4079 -76.2867)" fill="none" width="61" height="15.5"/>
			
				<text transform="matrix(0.9692 0.2462 -0.2463 0.9692 288.3523 79.2661)" fill="#FFFFFF" font-family="'NexaRustSlab-BlackShadow01'" font-size="21.0881">{{sel2}} mg</text>
		</g>
		
			<rect x="281.9" y="90.5" transform="matrix(0.9825 -0.1864 0.1864 0.9825 -12.6715 58.7319)" fill="none" width="48" height="12.6"/>
		
			<text transform="matrix(0.9825 -0.1864 0.1864 0.9825 283.2508 105.7553)" fill="#FFFFFF" font-family="'NexaRustScriptL-0'" font-size="15.8693">de sel</text>
	</g>
</g>
</svg>
